<svg id="Capa_1" data-name="Capa 1" xmlns="http://www.w3.org/2000/svg" xmlns:xlink="http://www.w3.org/1999/xlink" viewBox="0 0 1440 1024"><defs><style>.cls-1,.cls-11,.cls-8{fill:none;}.cls-2{clip-path:url(#clip-path);}.cls-3{clip-path:url(#clip-path-2);}.cls-4{fill:url(#Degradado_sin_nombre_4);}.cls-5{opacity:0.25;}.cls-6{clip-path:url(#clip-path-4);}.cls-7{fill:#f5a79a;}.cls-8{stroke:#1d1d1b;}.cls-9{fill:#fff;}.cls-10{fill:#90b9c9;}.cls-11{stroke:#90b9c9;stroke-width:5px;}</style><clipPath id="clip-path"><rect class="cls-1" width="1440" height="1024"/></clipPath><clipPath id="clip-path-2"><rect class="cls-1" x="0.5" y="0.5" width="1439" height="1023"/></clipPath><linearGradient id="Degradado_sin_nombre_4" x1="524.64" y1="934.29" x2="525.64" y2="934.29" gradientTransform="matrix(1440, 0, 0, -1440, -755475, 1345894)" gradientUnits="userSpaceOnUse"><stop offset="0" stop-color="#a53816"/><stop offset="0.01" stop-color="#a53816"/><stop offset="0.03" stop-color="#aa3b1b"/><stop offset="0.17" stop-color="#c24d36"/><stop offset="0.31" stop-color="#d55b4a"/><stop offset="0.48" stop-color="#e36559"/><stop offset="0.67" stop-color="#eb6b61"/><stop offset="0.99" stop-color="#ed6d64"/><stop offset="1" stop-color="#ed6d64"/></linearGradient><clipPath id="clip-path-4"><rect class="cls-1" x="-199.61" y="557" width="1409.42" height="598"/></clipPath></defs><g class="cls-2"><g class="cls-3"><rect class="cls-4" x="0.5" y="0.5" width="1439" height="1023"/></g><g class="cls-3"><g class="cls-5"><g class="cls-6"><polygon class="cls-7" points="973.79 564 790.4 864.36 793.53 564 603.15 564 566.51 564 393.7 847.03 396.65 564 206.27 564 169.63 564 -190.61 1154 40.17 1154 206.27 879.09 206.27 1154 390.49 1154 437.05 1154 603.15 879.09 603.15 1154 613.55 1154 787.37 1154 844.33 1154 1200.82 564 973.79 564"/></g></g></g><g class="cls-2"><rect class="cls-8" x="0.5" y="0.5" width="1439" height="1023"/><path class="cls-9" d="M985.36,342a17,17,0,0,0,5.49-7l1.14,8.34h12.35V295.78H978.28v11.43h9V317a31,31,0,0,1-.75,7.15,9.7,9.7,0,0,1-2.68,5,9.29,9.29,0,0,1-10.92.11,8.86,8.86,0,0,1-2.57-4.8,32.08,32.08,0,0,1-.69-7v-41a42.7,42.7,0,0,1,.46-6.46,9.45,9.45,0,0,1,2.17-5q1.71-1.93,5.49-1.94t5.31,1.6a7.62,7.62,0,0,1,2.12,4.4,41.05,41.05,0,0,1,.46,6.46v6.51h18.4v-5.37a37.38,37.38,0,0,0-2.52-14.4,19,19,0,0,0-8.28-9.38q-5.77-3.32-15.72-3.31-10.29,0-16.29,3.89a20.45,20.45,0,0,0-8.4,11.08,54.47,54.47,0,0,0-2.4,17.15v31a55,55,0,0,0,2.34,16.86,21.38,21.38,0,0,0,7.83,11.2q5.49,3.94,14.86,3.94,6.18,0,9.83-2.74M899,343.33V292.12l20.57,51.21H932.1V250.74H916.55V299L896,250.74H882.83v92.59Zm-36-92.59H844.19v92.59h18.75Zm-74.18,92.59v-41H805.1v41H824V250.74H805.1v38.07H788.76V250.74H769.89v92.59Zm-47.21,0V264.8h14.06V250.74H708.28V264.8h14.29v78.53Zm-42.87,0v-12.8H677v-29h16.58V288.35H677V263.77h21.49v-13H658.1v92.59Zm-112.25,0,1.26-63.21L600,343.33h11.77l11.77-62.75,1.49,62.75h13.72l-1.6-92.59H617.87l-12.23,58.41-11.43-58.41h-20l-1.6,92.59Zm-64.47-14a8.06,8.06,0,0,1-2.23-4.46,33.54,33.54,0,0,1-.51-6V275.09a29.14,29.14,0,0,1,.57-5.94,8.28,8.28,0,0,1,2.29-4.41,7.15,7.15,0,0,1,5.14-1.65q3.66,0,5.37,1.65a8.28,8.28,0,0,1,2.29,4.41,29.14,29.14,0,0,1,.57,5.94v43.78a30.11,30.11,0,0,1-.57,6,8.26,8.26,0,0,1-2.29,4.46c-1.14,1.1-2.93,1.66-5.37,1.66a7.36,7.36,0,0,1-5.26-1.66m21.55,11.6a20.23,20.23,0,0,0,8.57-10.46,45.94,45.94,0,0,0,2.58-16.29V279.66a45,45,0,0,0-2.58-16.17,20,20,0,0,0-8.57-10.29q-6-3.6-16.29-3.6t-16.12,3.54a19.8,19.8,0,0,0-8.51,10.29A45.53,45.53,0,0,0,500,279.66v34.52a46,46,0,0,0,2.57,16.29,20.31,20.31,0,0,0,8.51,10.46q6,3.66,16.12,3.66t16.29-3.66m-69,.69a21.36,21.36,0,0,0,8.29-8.23,23.54,23.54,0,0,0,3-11.78q0-9.48-4.17-15.94a53.29,53.29,0,0,0-10-11.49L462.18,286a39.56,39.56,0,0,1-6.11-6.57,13.59,13.59,0,0,1-2.23-8.06,9.73,9.73,0,0,1,1.6-5.43,5.44,5.44,0,0,1,4.91-2.46,5.71,5.71,0,0,1,4.63,1.83,10.14,10.14,0,0,1,2.06,5,71.91,71.91,0,0,1,.74,7.43l16.12-2.4a55.77,55.77,0,0,0-1.2-9,25.11,25.11,0,0,0-3.43-8.35,17.42,17.42,0,0,0-6.92-6.11,24.91,24.91,0,0,0-11.43-2.29q-11.66,0-18.34,6.11t-6.69,17.55a26,26,0,0,0,3.26,13.49,38.66,38.66,0,0,0,8.4,9.83l9.6,8.34a46.34,46.34,0,0,1,7.37,7.95,16.44,16.44,0,0,1,2.81,9.77A10.32,10.32,0,0,1,466,327.9c-.88,1.53-2.53,2.29-5,2.29a7,7,0,0,1-5-1.89,11.57,11.57,0,0,1-3-5.71,48.56,48.56,0,0,1-1.2-9.55l-16.23,2.74q.46,9.84,3.37,16.18a20,20,0,0,0,8.63,9.49q5.71,3.14,14.29,3.14a25.26,25.26,0,0,0,12.52-3"/><path class="cls-9" d="M979.93,492.15a21.91,21.91,0,0,0,7.06-9l1.47,10.74h15.88V432.74H970.81v14.71h11.62v12.64a40,40,0,0,1-1,9.2,12.43,12.43,0,0,1-3.46,6.39c-1.66,1.57-4,2.36-7,2.36s-5.37-.74-7-2.21a11.42,11.42,0,0,1-3.31-6.18,41.31,41.31,0,0,1-.88-9V407.89a54.72,54.72,0,0,1,.59-8.31,12.16,12.16,0,0,1,2.79-6.4c1.47-1.66,3.82-2.5,7.06-2.5s5.42.69,6.84,2.06a9.79,9.79,0,0,1,2.72,5.66,52.46,52.46,0,0,1,.59,8.31v8.38H1004v-6.91a48.36,48.36,0,0,0-3.23-18.53,24.41,24.41,0,0,0-10.66-12.06q-7.42-4.26-20.22-4.26-13.24,0-21,5a26.32,26.32,0,0,0-10.81,14.26,70,70,0,0,0-3.09,22.06v39.86a70.72,70.72,0,0,0,3,21.69,27.58,27.58,0,0,0,10.07,14.41q7.07,5.07,19.12,5.07,7.94,0,12.65-3.53m-111.18,1.77V428l26.47,65.88H911.4V374.8h-20v62.06L864.93,374.8H848V493.92ZM822.43,374.8H798.31V493.92h24.12ZM761.84,493.92v-101h18.09V374.8H719.05v18.09h18.38v101ZM700.66,374.8H676.55V493.92h24.11ZM641,490.9a24.87,24.87,0,0,0,10.15-12.64,53.48,53.48,0,0,0,2.94-18.46V450H630.52v11.62a61,61,0,0,1-.52,8.08,11.32,11.32,0,0,1-2.5,6.11q-2,2.28-6.69,2.28a9.68,9.68,0,0,1-6.54-2,10.16,10.16,0,0,1-3.09-5.73,41.84,41.84,0,0,1-.81-8.75V407.45a54.11,54.11,0,0,1,.59-8.31,11.22,11.22,0,0,1,2.79-6.11c1.47-1.56,3.83-2.35,7.06-2.35s5.52.76,6.84,2.28a10.77,10.77,0,0,1,2.43,5.88,64.64,64.64,0,0,1,.44,7.72v11.18h23.53v-10a50,50,0,0,0-3-18.09,23.46,23.46,0,0,0-10.29-12.06q-7.29-4.26-20.08-4.26-13.23,0-20.95,4.85a25.69,25.69,0,0,0-10.81,13.75,65,65,0,0,0-3.09,21.25V456a62.94,62.94,0,0,0,3.09,20.66,26.41,26.41,0,0,0,10.81,13.9q7.71,5,20.95,5T641,490.9m-120.89,3,13.68-37.5,15.59,37.5H572l-23.83-58.09,21.77-61H549.49l-11.92,34.26L523.46,374.8h-23l22.65,55.44-23.53,63.68Zm-32.2,0V477.45H459.93V440.09h21.32V423.18H459.93V391.56h27.64V374.8H435.66V493.92Z"/><path class="cls-9" d="M983.68,637a18.38,18.38,0,0,0,6-7.59l1.25,9.09h13.44V586.74H976v12.44h9.83v10.71a33.84,33.84,0,0,1-.81,7.77,10.56,10.56,0,0,1-2.93,5.42,10.11,10.11,0,0,1-11.88.12,9.67,9.67,0,0,1-2.8-5.23,35,35,0,0,1-.75-7.59V565.71a47.37,47.37,0,0,1,.5-7,10.29,10.29,0,0,1,2.36-5.41q1.88-2.12,6-2.12t5.79,1.74a8.39,8.39,0,0,1,2.3,4.79,44.44,44.44,0,0,1,.49,7v7.1h20V566a40.87,40.87,0,0,0-2.74-15.68,20.51,20.51,0,0,0-9-10.2q-6.29-3.62-17.11-3.61-11.21,0-17.73,4.23a22.24,22.24,0,0,0-9.15,12.07,59.3,59.3,0,0,0-2.61,18.66v33.73a59.81,59.81,0,0,0,2.55,18.35,23.3,23.3,0,0,0,8.52,12.2q6,4.29,16.18,4.29,6.72,0,10.7-3m-94.07,1.5V582.76L912,638.51H925.7V537.71H908.77v52.52l-22.4-52.52H872.06v100.8Zm-39.2-100.8H830v100.8h20.41Zm-98.68,100.8,1.37-68.82,13.44,68.82h12.82l12.81-68.32,1.62,68.32h14.93L807,537.71H786L772.64,601.3l-12.45-63.59H738.42l-1.75,100.8Zm-70.18-15.25a8.73,8.73,0,0,1-2.43-4.85,36.44,36.44,0,0,1-.56-6.53V564.22a32,32,0,0,1,.62-6.47,9.15,9.15,0,0,1,2.49-4.8c1.25-1.2,3.11-1.8,5.6-1.8q4,0,5.85,1.8a9,9,0,0,1,2.49,4.8,31.3,31.3,0,0,1,.62,6.47v47.66a32.25,32.25,0,0,1-.62,6.53,9,9,0,0,1-2.49,4.85q-1.86,1.82-5.85,1.81t-5.72-1.81M705,635.89a22.09,22.09,0,0,0,9.33-11.38,50.15,50.15,0,0,0,2.8-17.74V569.19a49,49,0,0,0-2.8-17.6,21.8,21.8,0,0,0-9.33-11.2q-6.54-3.93-17.74-3.92t-17.54,3.86a21.49,21.49,0,0,0-9.27,11.19,49.63,49.63,0,0,0-2.8,17.67v37.58a50.15,50.15,0,0,0,2.8,17.74,22.08,22.08,0,0,0,9.27,11.38q6.46,4,17.54,4t17.74-4m-75.72.07a21,21,0,0,0,8.58-10.71,45.13,45.13,0,0,0,2.49-15.61V601.3H620.45v9.83A53,53,0,0,1,620,618a9.72,9.72,0,0,1-2.12,5.17q-1.68,1.93-5.66,1.93a8.19,8.19,0,0,1-5.54-1.68,8.55,8.55,0,0,1-2.61-4.86,35.08,35.08,0,0,1-.69-7.4V565.34a45.73,45.73,0,0,1,.5-7,9.45,9.45,0,0,1,2.37-5.17c1.24-1.32,3.23-2,6-2s4.67.64,5.78,1.93a9.06,9.06,0,0,1,2.06,5,53.6,53.6,0,0,1,.37,6.53v9.46h19.91v-8.46a42.31,42.31,0,0,0-2.55-15.31,19.74,19.74,0,0,0-8.71-10.2q-6.17-3.62-17-3.61-11.19,0-17.73,4.1a21.81,21.81,0,0,0-9.15,11.64,55.07,55.07,0,0,0-2.61,18V606.4a53.38,53.38,0,0,0,2.61,17.49,22.32,22.32,0,0,0,9.15,11.75q6.54,4.25,17.73,4.24T629.29,636m-111.81.68a23.12,23.12,0,0,0,9-9,25.55,25.55,0,0,0,3.24-12.82q0-10.32-4.54-17.36A58.51,58.51,0,0,0,514.31,585l-10.21-9a42.32,42.32,0,0,1-6.65-7.16,14.78,14.78,0,0,1-2.43-8.77,10.6,10.6,0,0,1,1.74-5.91,5.94,5.94,0,0,1,5.35-2.68,6.22,6.22,0,0,1,5,2,11,11,0,0,1,2.24,5.47,80.19,80.19,0,0,1,.81,8.09l17.55-2.61a62.38,62.38,0,0,0-1.31-9.77,27.5,27.5,0,0,0-3.73-9.09,19.09,19.09,0,0,0-7.53-6.65q-4.86-2.49-12.45-2.49-12.69,0-20,6.65t-7.28,19.11q0,8.7,3.55,14.68a42,42,0,0,0,9.14,10.7l10.46,9.09a50.86,50.86,0,0,1,8,8.64A18,18,0,0,1,509.7,616a11.33,11.33,0,0,1-1.43,5.73c-.95,1.66-2.76,2.49-5.41,2.49a7.55,7.55,0,0,1-5.41-2.06,12.51,12.51,0,0,1-3.24-6.22,51.39,51.39,0,0,1-1.31-10.39l-17.67,3q.5,10.69,3.67,17.6a21.75,21.75,0,0,0,9.4,10.33q6.22,3.42,15.55,3.43a27.46,27.46,0,0,0,13.63-3.24m-61.41-98.93H435.66v100.8h20.41Z"/><path class="cls-10" d="M1004.34,198.65v-4.6H992.81V177.19h9.26v-4.55h-9.26V157.43h11.41v-4.77H986.39v46Zm-42.08,0,10.17-46h-5.85l-6.93,33.9-7.27-33.9h-6l10.28,46Zm-45.45-5.59a5.14,5.14,0,0,1-1.79-2.95,19.58,19.58,0,0,1-.45-4.46V165.49a18.79,18.79,0,0,1,.45-4.4,4.82,4.82,0,0,1,1.79-2.84,6.45,6.45,0,0,1,3.89-1,6.33,6.33,0,0,1,3.86,1,4.88,4.88,0,0,1,1.76,2.84,18.79,18.79,0,0,1,.45,4.4v20.16a19.58,19.58,0,0,1-.45,4.46,5.2,5.2,0,0,1-1.76,2.95,6.06,6.06,0,0,1-3.86,1.05,6.18,6.18,0,0,1-3.89-1.05m11.27,4.26a10.36,10.36,0,0,0,3.95-5.2,22.91,22.91,0,0,0,1.22-7.83V166.8A22.14,22.14,0,0,0,932,159a9.94,9.94,0,0,0-3.95-5,13.52,13.52,0,0,0-7.38-1.76,13.82,13.82,0,0,0-7.41,1.73,9.76,9.76,0,0,0-4,5,22.43,22.43,0,0,0-1.22,7.81v17.43a23.91,23.91,0,0,0,1.19,7.92,10,10,0,0,0,4,5.2,13.43,13.43,0,0,0,7.44,1.81,13,13,0,0,0,7.38-1.84m-60.59,1.33.51-33.39,7.73,33.39h3.63l7.78-33.39.51,33.39h5.17l-.85-46h-6.25L877.54,190l-8.12-37.3h-6.3l-.85,46Zm-59-5.59a5.14,5.14,0,0,1-1.79-2.95,19.54,19.54,0,0,1-.46-4.46V165.49a18.75,18.75,0,0,1,.46-4.4,4.82,4.82,0,0,1,1.79-2.84,6.45,6.45,0,0,1,3.89-1,6.33,6.33,0,0,1,3.86,1,4.88,4.88,0,0,1,1.76,2.84,18.79,18.79,0,0,1,.45,4.4v20.16a19.58,19.58,0,0,1-.45,4.46,5.2,5.2,0,0,1-1.76,2.95,6.06,6.06,0,0,1-3.86,1.05,6.18,6.18,0,0,1-3.89-1.05m11.27,4.26a10.36,10.36,0,0,0,4-5.2,22.91,22.91,0,0,0,1.22-7.83V166.8a22.14,22.14,0,0,0-1.22-7.78,9.94,9.94,0,0,0-4-5,13.52,13.52,0,0,0-7.38-1.76A13.82,13.82,0,0,0,805,154a9.76,9.76,0,0,0-4,5,22.43,22.43,0,0,0-1.22,7.81v17.43a23.91,23.91,0,0,0,1.19,7.92,10,10,0,0,0,4,5.2,13.43,13.43,0,0,0,7.44,1.81,13,13,0,0,0,7.38-1.84m-40.2,1.33V157.43h7.55v-4.77H765.34v4.77h7.78v41.22Zm-56.78,0V182.41l9.88-29.75h-6l-6.93,22.2-7-22.2h-6l9.93,29.75v16.24ZM677,157.43h3.46a8.9,8.9,0,0,1,4.83,1,4.88,4.88,0,0,1,2,3.24,30,30,0,0,1,.45,5.79v14.93a53.76,53.76,0,0,1-.31,6.3,6.23,6.23,0,0,1-1.79,4c-1,.91-2.65,1.36-5,1.36H677Zm4.09,41.22a14.85,14.85,0,0,0,7.69-1.73,9.86,9.86,0,0,0,4.15-5.08,23.32,23.32,0,0,0,1.27-8.24V166.68a20.73,20.73,0,0,0-1.27-7.78,9,9,0,0,0-4.26-4.68,17.61,17.61,0,0,0-8.09-1.56h-10v46Zm-37.14-36.91,3.86,20.73h-7.66Zm-6.87,36.91,2.21-11.58h9.37l2.1,11.58h6.08l-9.82-46h-6.19l-9.77,46Zm-17.77,0v-4.6H607.77V177.19H617v-4.55h-9.26V157.43h11.41v-4.77H601.35v46Zm-50.09-41.39h2.84c2.92,0,4.87.59,5.85,1.79s1.48,3.13,1.48,5.82a10.74,10.74,0,0,1-.8,4.59,4.55,4.55,0,0,1-2.49,2.33,12,12,0,0,1-4.43.68h-2.45Zm0,41.39V177.07h5l6,21.58h6.19l-6.53-23.05a7.14,7.14,0,0,0,3.29-2.19,9.26,9.26,0,0,0,1.82-3.69,19.21,19.21,0,0,0,.57-4.85,14.84,14.84,0,0,0-1.45-7.07,8.48,8.48,0,0,0-4.46-3.92,20.25,20.25,0,0,0-7.61-1.22H562.8v46Zm-49.57,0V157.43h7.56v-4.77H505.45v4.77h7.78v41.22Zm-25.72,0v-4.6H482.39V177.19h9.26v-4.55h-9.26V157.43h11.42v-4.77H476v46Zm-41.11-1.08a9.63,9.63,0,0,0,2.84-4.2l.62,5.28h4V175.88H448.67v4.54h5.84v3.18a27.78,27.78,0,0,1-.51,5.8,6.32,6.32,0,0,1-1.87,3.52,5.71,5.71,0,0,1-3.86,1.19,6.07,6.07,0,0,1-3.86-1.08,5.52,5.52,0,0,1-1.85-3.29,26.65,26.65,0,0,1-.48-5.51v-17a36.93,36.93,0,0,1,.31-5.08,6.16,6.16,0,0,1,1.59-3.55,5.56,5.56,0,0,1,4.12-1.3,6.33,6.33,0,0,1,3.83.93,4.66,4.66,0,0,1,1.62,2.84,25.17,25.17,0,0,1,.4,4.91v1.42h6v-1.7a20.25,20.25,0,0,0-1.2-7.52,8.38,8.38,0,0,0-3.83-4.43,14.4,14.4,0,0,0-7-1.45q-4.82,0-7.52,1.87a9.7,9.7,0,0,0-3.75,5.43,30.58,30.58,0,0,0-1,8.6v15.39a27,27,0,0,0,1.17,8.46,10.28,10.28,0,0,0,3.74,5.36,11.67,11.67,0,0,0,6.9,1.85,8,8,0,0,0,5.34-1.65"/><path class="cls-9" d="M1000.55,715.61c.33,0,.66-.08,1-.14v-1.78l-.68.08a5.12,5.12,0,0,1-.64.05c-.69,0-1.14-.19-1.34-.57a4.2,4.2,0,0,1-.31-1.92v-13h3.1v-1.55h-3.1V691H996.2v5.79h-2.29v1.55h2.29v13.25a7.91,7.91,0,0,0,.26,2.11,2.62,2.62,0,0,0,1,1.46,3.62,3.62,0,0,0,2.1.53c.32,0,.65,0,1,0m-10.28-.71a4,4,0,0,0,1.37-2.26,13.69,13.69,0,0,0,.36-3.31v-.91h-2.2v1a15.59,15.59,0,0,1-.16,2.48,2.52,2.52,0,0,1-.71,1.51,2.41,2.41,0,0,1-1.65.5,2.13,2.13,0,0,1-2.13-1.15,9.94,9.94,0,0,1-.55-4v-5.23a20.16,20.16,0,0,1,.19-3.15,2.79,2.79,0,0,1,.78-1.7,2.48,2.48,0,0,1,1.68-.52,2.75,2.75,0,0,1,1.5.37,2.11,2.11,0,0,1,.81,1.28,10.44,10.44,0,0,1,.24,2.55v.91H992v-.87a12.41,12.41,0,0,0-.36-3.17,3.58,3.58,0,0,0-1.38-2.1,5.17,5.17,0,0,0-3-.74,5,5,0,0,0-3.06.8,4.28,4.28,0,0,0-1.5,2.48,17.74,17.74,0,0,0-.42,4.24v4.37a18.61,18.61,0,0,0,.34,3.76,4.14,4.14,0,0,0,4.64,3.61,4.78,4.78,0,0,0,3-.83M978.62,691h-2.36v3.2h2.36Zm0,5.79h-2.36v18.67h2.36ZM969,715.43V701.09a4.4,4.4,0,0,1,1.57-1.65,3.8,3.8,0,0,1,2-.52,4.56,4.56,0,0,1,.62.05,2,2,0,0,1,.55.15v-2.53l-.23,0h-.19a4.67,4.67,0,0,0-2.23.63,5.62,5.62,0,0,0-2.07,2.12v-2.55h-2.39v18.67Zm-6.19.18c.33,0,.66-.08,1-.14v-1.78l-.68.08a5.27,5.27,0,0,1-.65.05,1.39,1.39,0,0,1-1.34-.57,4.34,4.34,0,0,1-.31-1.92v-13h3.11v-1.55h-3.11V691h-2.36v5.79h-2.29v1.55h2.29v13.25a7.91,7.91,0,0,0,.26,2.11,2.67,2.67,0,0,0,1,1.46,3.63,3.63,0,0,0,2.11.53c.32,0,.65,0,1,0m-10.36-.42a4,4,0,0,0,1.67-1.52,4.6,4.6,0,0,0,.6-2.44,5,5,0,0,0-.46-2.24,7,7,0,0,0-1.16-1.73,18.65,18.65,0,0,0-1.49-1.46l-2.65-2.35a5.4,5.4,0,0,1-1.19-1.46,3.21,3.21,0,0,1-.32-1.49,2.13,2.13,0,0,1,.66-1.66,2.48,2.48,0,0,1,1.73-.6,2.37,2.37,0,0,1,1.37.39,2.55,2.55,0,0,1,.89,1.21,7.14,7.14,0,0,1,.39,2.09l1.68-.55a6,6,0,0,0-1.2-3.54,3.87,3.87,0,0,0-3.23-1.37,5,5,0,0,0-2.34.5,3.67,3.67,0,0,0-1.55,1.42,4.24,4.24,0,0,0-.57,2.28,4.74,4.74,0,0,0,.65,2.55,8.89,8.89,0,0,0,1.9,2.13l2.52,2.2a8.09,8.09,0,0,1,1.75,1.92,3.65,3.65,0,0,1,.55,1.83,2.71,2.71,0,0,1-.66,2,2.5,2.5,0,0,1-1.9.7,2.77,2.77,0,0,1-2.26-1,5.7,5.7,0,0,1-1-3.12l-2,.59a6.23,6.23,0,0,0,1.52,3.86,4.59,4.59,0,0,0,3.55,1.44,5.51,5.51,0,0,0,2.52-.54M941.65,691h-2.36v3.2h2.36Zm0,5.79h-2.36v18.67h2.36Zm-13,16.46a3.91,3.91,0,0,1-.78-2,20.29,20.29,0,0,1-.21-3.17v-4.4a12.5,12.5,0,0,1,.5-4,2,2,0,0,1,2.06-1.37,3,3,0,0,1,1.58.43,7.52,7.52,0,0,1,1.19.89v13a5.28,5.28,0,0,1-1.26.89,3,3,0,0,1-1.45.37,2,2,0,0,1-1.63-.66m3,2a6,6,0,0,0,1.34-1.11v1.32h2.36V689.26H933v8.82a5.73,5.73,0,0,0-1.37-1.11,4.14,4.14,0,0,0-4.65.48,5.41,5.41,0,0,0-1.31,2.76,21.7,21.7,0,0,0-.36,4.24v3.45c0,2.81.35,4.81,1,6a3.69,3.69,0,0,0,3.45,1.81,3.31,3.31,0,0,0,1.85-.51m-29.78-5.65a2.46,2.46,0,0,1-1-1.23,6,6,0,0,1-.36-2.28,10.81,10.81,0,0,1,.83-4.39,7.76,7.76,0,0,1,2.1-2.93,4.11,4.11,0,0,1,2.63-1,3.47,3.47,0,0,1,.78.1,2.52,2.52,0,0,1,.74.32l-1.16,8.18a6.57,6.57,0,0,1-1.39,2.6,2.91,2.91,0,0,1-1.88,1,2.13,2.13,0,0,1-1.32-.31m6,9.23c1.14-.18,2.28-.4,3.43-.68l-.52-1.72c-.56.15-1.16.29-1.81.41s-1.32.21-2,.29a21.28,21.28,0,0,1-2.14.11,16,16,0,0,1-3.15-.32,10,10,0,0,1-2.94-1.12,7.91,7.91,0,0,1-2.41-2.15,10.27,10.27,0,0,1-1.63-3.42,17.9,17.9,0,0,1-.6-4.94,20.17,20.17,0,0,1,.81-6,13.39,13.39,0,0,1,2.25-4.43,9.6,9.6,0,0,1,3.42-2.75,10.43,10.43,0,0,1,4.32-1,11.85,11.85,0,0,1,4,.65,6.83,6.83,0,0,1,3,2,8.82,8.82,0,0,1,1.75,3.55,17.62,17.62,0,0,1,.43,5.14,13.32,13.32,0,0,1-.51,3.52,7.74,7.74,0,0,1-1.13,2.36,4.86,4.86,0,0,1-1.44,1.32,3.1,3.1,0,0,1-1.5.42,1,1,0,0,1-.91-.37,1.73,1.73,0,0,1-.26-1,11.31,11.31,0,0,1,.1-1.46l1.62-11.21h-1.75l-.29.61a3.39,3.39,0,0,0-.68-.4,4.93,4.93,0,0,0-.78-.29,2.63,2.63,0,0,0-.8-.12,5.51,5.51,0,0,0-2.85.81,8.27,8.27,0,0,0-2.39,2.2,11.43,11.43,0,0,0-1.65,3.23,12.27,12.27,0,0,0-.61,3.91,7.76,7.76,0,0,0,.55,3.05,4.29,4.29,0,0,0,1.57,2,3.93,3.93,0,0,0,2.4.62,3.15,3.15,0,0,0,2.3-1,6.22,6.22,0,0,0,1.29-2.1,3,3,0,0,0,.36,1.63,2.59,2.59,0,0,0,1.05,1,3,3,0,0,0,1.4.34,5.4,5.4,0,0,0,2.28-.52,6.26,6.26,0,0,0,2.13-1.61,8.61,8.61,0,0,0,1.62-2.86,14.55,14.55,0,0,0,.73-4.25,20.41,20.41,0,0,0-.5-5.42,10.77,10.77,0,0,0-2-4.13,8.75,8.75,0,0,0-3.46-2.64,12.34,12.34,0,0,0-5-.87,13.29,13.29,0,0,0-5.09,1,11.46,11.46,0,0,0-4.16,2.94,13.77,13.77,0,0,0-2.8,5,22.68,22.68,0,0,0-1,7.13,18.47,18.47,0,0,0,1,6.5,10.23,10.23,0,0,0,6.82,6.52,16.33,16.33,0,0,0,4.91.71,21.76,21.76,0,0,0,3.2-.25m-20.07-3.37v-2h-9.11l6.56-9.89c.52-.82,1-1.63,1.49-2.44a14.09,14.09,0,0,0,1.16-2.53,9.06,9.06,0,0,0,.45-2.91,7.39,7.39,0,0,0-1.48-4.9,5.54,5.54,0,0,0-4.46-1.76,6.87,6.87,0,0,0-3.61.84,4.93,4.93,0,0,0-2,2.47,11.12,11.12,0,0,0-.64,4.06V697h2.36v-.58a10.9,10.9,0,0,1,.33-2.79,3.36,3.36,0,0,1,3.67-2.67,3,3,0,0,1,2.64,1.2,5.54,5.54,0,0,1,.85,3.29,8.28,8.28,0,0,1-.43,2.78,13,13,0,0,1-1.12,2.35c-.45.74-.94,1.51-1.45,2.31l-7,10.82v1.71Zm-15.67,0v-2h-9.11l6.56-9.89c.51-.82,1-1.63,1.48-2.44a14.13,14.13,0,0,0,1.17-2.53,9.06,9.06,0,0,0,.45-2.91,7.39,7.39,0,0,0-1.49-4.9A5.52,5.52,0,0,0,866.8,689a6.85,6.85,0,0,0-3.6.84,4.88,4.88,0,0,0-2,2.47,11.11,11.11,0,0,0-.65,4.06V697h2.36v-.58a10.88,10.88,0,0,1,.34-2.79A3.36,3.36,0,0,1,866.9,691a3,3,0,0,1,2.63,1.2,5.54,5.54,0,0,1,.86,3.29,8.27,8.27,0,0,1-.44,2.78,12.93,12.93,0,0,1-1.11,2.35c-.45.74-.94,1.51-1.46,2.31l-7,10.82v1.71Zm-29-12.18a13.57,13.57,0,0,1,.26-3.08,2.42,2.42,0,0,1,.85-1.51,2.67,2.67,0,0,1,1.57-.42,2.25,2.25,0,0,1,1.7.57,3,3,0,0,1,.69,1.61,16.77,16.77,0,0,1,.16,2.54v1.55h-5.23Zm6.46,10.94a7,7,0,0,0,1.07-4.09v-1h-2.3v1.29a5.84,5.84,0,0,1-.34,2.25,1.89,1.89,0,0,1-.92,1.06,2.9,2.9,0,0,1-1.29.28,2.49,2.49,0,0,1-1.54-.45,2.73,2.73,0,0,1-.87-1.51,12,12,0,0,1-.27-2.86v-3.26h7.56v-1.68a19.87,19.87,0,0,0-.4-4.35,4.46,4.46,0,0,0-1.44-2.53,4.75,4.75,0,0,0-3-.84,5.49,5.49,0,0,0-2.81.66,3.9,3.9,0,0,0-1.68,2.23,13.47,13.47,0,0,0-.55,4.34v4.72a14.3,14.3,0,0,0,.53,4.3,4.12,4.12,0,0,0,1.65,2.31,5.36,5.36,0,0,0,2.86.7c1.81,0,3.07-.52,3.78-1.54m-19.39,1.24V700.08a7.57,7.57,0,0,1,1.6-1.27,3.24,3.24,0,0,1,1.67-.5,1.55,1.55,0,0,1,1.34.6,3.59,3.59,0,0,1,.43,2.05v14.47h2.39v-15a6,6,0,0,0-.34-2.15,3,3,0,0,0-1-1.36,2.6,2.6,0,0,0-1.57-.46,5,5,0,0,0-2.49.63,8.6,8.6,0,0,0-2.07,1.63v-9.47H828v26.17Zm-6,.18c.34,0,.67-.08,1-.14v-1.78l-.68.08a5.27,5.27,0,0,1-.64.05,1.41,1.41,0,0,1-1.35-.57,4.37,4.37,0,0,1-.3-1.92v-13h3.1v-1.55h-3.1V691h-2.36v5.79h-2.3v1.55h2.3v13.25a7.52,7.52,0,0,0,.26,2.11,2.57,2.57,0,0,0,1,1.46,3.58,3.58,0,0,0,2.1.53c.32,0,.65,0,1,0m-22.83-.18V700.05a7.41,7.41,0,0,1,1.58-1.26,3.26,3.26,0,0,1,1.61-.48,1.59,1.59,0,0,1,1.36.6,3.49,3.49,0,0,1,.45,2.05v14.47h2.36v-15a6,6,0,0,0-.34-2.15,3,3,0,0,0-1-1.36,2.55,2.55,0,0,0-1.56-.46,5,5,0,0,0-2.46.63,8.39,8.39,0,0,0-2,1.59v-1.93h-2.36v18.67ZM795.11,691h-2.36v3.2h2.36Zm0,5.79h-2.36v18.67h2.36Zm-20,18.67V700.05a7.41,7.41,0,0,1,1.58-1.26,3.27,3.27,0,0,1,1.62-.48,1.58,1.58,0,0,1,1.35.6,3.4,3.4,0,0,1,.46,2.05v14.47h2.36v-15a6.18,6.18,0,0,0-.34-2.15,3,3,0,0,0-1-1.36,2.58,2.58,0,0,0-1.57-.46,5,5,0,0,0-2.46.63,8.39,8.39,0,0,0-2,1.59v-1.93h-2.36v18.67Zm-12.41-2.13a3.37,3.37,0,0,1-.7-1.81,23.36,23.36,0,0,1-.14-2.68v-5.43a23.18,23.18,0,0,1,.14-2.67,3.43,3.43,0,0,1,.7-1.8,2.17,2.17,0,0,1,1.78-.67,2.22,2.22,0,0,1,1.79.67,3.2,3.2,0,0,1,.69,1.8,23.37,23.37,0,0,1,.13,2.67v5.43a23.55,23.55,0,0,1-.13,2.68,3.14,3.14,0,0,1-.69,1.81,2.28,2.28,0,0,1-1.79.65,2.23,2.23,0,0,1-1.78-.65m4.8,1.6a4.34,4.34,0,0,0,1.52-2.39,14.5,14.5,0,0,0,.43-3.83v-5.17a14.55,14.55,0,0,0-.43-3.83,4.38,4.38,0,0,0-1.52-2.39,6,6,0,0,0-6,0,4.34,4.34,0,0,0-1.53,2.39,14.51,14.51,0,0,0-.44,3.83v5.17a14.46,14.46,0,0,0,.44,3.83,4.3,4.3,0,0,0,1.53,2.39,5.89,5.89,0,0,0,6,0m-17.69-1.6a3.37,3.37,0,0,1-.7-1.81,21.29,21.29,0,0,1-.14-2.68v-5.43a21.12,21.12,0,0,1,.14-2.67,3.43,3.43,0,0,1,.7-1.8,2.13,2.13,0,0,1,1.77-.67,2.23,2.23,0,0,1,1.8.67,3.35,3.35,0,0,1,.69,1.8,23.37,23.37,0,0,1,.13,2.67v5.43a23.55,23.55,0,0,1-.13,2.68,3.29,3.29,0,0,1-.69,1.81,2.29,2.29,0,0,1-1.8.65,2.19,2.19,0,0,1-1.77-.65m4.79,1.6a4.29,4.29,0,0,0,1.52-2.39,14.46,14.46,0,0,0,.44-3.83v-5.17a14.51,14.51,0,0,0-.44-3.83,4.33,4.33,0,0,0-1.52-2.39,5.93,5.93,0,0,0-6,0,4.3,4.3,0,0,0-1.54,2.39,14.55,14.55,0,0,0-.43,3.83v5.17a14.5,14.5,0,0,0,.43,3.83,4.26,4.26,0,0,0,1.54,2.39,5.87,5.87,0,0,0,6,0m-12.58.29a3.94,3.94,0,0,0,1.66-1.52,4.6,4.6,0,0,0,.6-2.44,5.18,5.18,0,0,0-.45-2.24,6.76,6.76,0,0,0-1.17-1.73,20.36,20.36,0,0,0-1.48-1.46l-2.65-2.35a5.67,5.67,0,0,1-1.2-1.46,3.34,3.34,0,0,1-.32-1.49,2.13,2.13,0,0,1,.66-1.66,2.48,2.48,0,0,1,1.73-.6,2.33,2.33,0,0,1,1.37.39,2.48,2.48,0,0,1,.89,1.21,6.54,6.54,0,0,1,.39,2.09l1.68-.55a5.83,5.83,0,0,0-1.2-3.54,3.86,3.86,0,0,0-3.23-1.37,5,5,0,0,0-2.34.5,3.73,3.73,0,0,0-1.55,1.42,4.24,4.24,0,0,0-.57,2.28,4.83,4.83,0,0,0,.65,2.55,9,9,0,0,0,1.91,2.13l2.52,2.2a8,8,0,0,1,1.74,1.92,3.55,3.55,0,0,1,.55,1.83,2.71,2.71,0,0,1-.66,2,2.46,2.46,0,0,1-1.89.7,2.74,2.74,0,0,1-2.26-1,5.7,5.7,0,0,1-1-3.12l-2,.59a6.28,6.28,0,0,0,1.52,3.86,4.61,4.61,0,0,0,3.56,1.44,5.51,5.51,0,0,0,2.52-.54m-24-7.77a3,3,0,0,1-1-1.18,5.72,5.72,0,0,1-.45-1.6,13.84,13.84,0,0,1-.11-1.65,10.5,10.5,0,0,1,.13-1.63,5.38,5.38,0,0,1,.47-1.58,2.8,2.8,0,0,1,1-1.18,2.67,2.67,0,0,1,1.59-.45,2.61,2.61,0,0,1,1.57.43,2.76,2.76,0,0,1,.92,1.17,6,6,0,0,1,.46,1.56,11.87,11.87,0,0,1,.12,1.68,12.72,12.72,0,0,1-.11,1.72,5.47,5.47,0,0,1-.42,1.58,2.94,2.94,0,0,1-4.17,1.13m-1.5,11.75a1.65,1.65,0,0,1-1-1.57,2.27,2.27,0,0,1,.4-1.33,5.92,5.92,0,0,1,1-1,11.91,11.91,0,0,1,1-.79l2.36.33a9.34,9.34,0,0,1,2.24.56,2.12,2.12,0,0,1,1,.84,2.35,2.35,0,0,1,.27,1.12,1.88,1.88,0,0,1-1.16,1.82,7,7,0,0,1-3,.57,7.33,7.33,0,0,1-3.1-.5m6.2,1.94a4.78,4.78,0,0,0,2.19-1.44,3.77,3.77,0,0,0,.79-2.43,3.66,3.66,0,0,0-1.21-3,7.06,7.06,0,0,0-3.48-1.38l-3-.42a3.08,3.08,0,0,1-1.18-.37.77.77,0,0,1-.37-.69,1.94,1.94,0,0,1,.39-1.09,7.13,7.13,0,0,1,.87-1.05c.23.07.53.13.89.2a6.06,6.06,0,0,0,1,.1,4.87,4.87,0,0,0,3-.86,4.74,4.74,0,0,0,1.63-2.34,10.22,10.22,0,0,0,.5-3.33,10.79,10.79,0,0,0-.17-1.68,9,9,0,0,0-.41-1.59,3,3,0,0,1,.78-.64,7.62,7.62,0,0,1,1.14-.6,5.41,5.41,0,0,1,1.15-.37l-.65-1.65-.48.19a4.52,4.52,0,0,0-1.52,1,5.75,5.75,0,0,0-1,1.14,4.57,4.57,0,0,0-1.42-1.68,4.38,4.38,0,0,0-2.59-.67,4.71,4.71,0,0,0-3,.9,5.19,5.19,0,0,0-1.71,2.38,9.11,9.11,0,0,0-.55,3.24,9.41,9.41,0,0,0,.53,3.36,4.86,4.86,0,0,0,1.83,2.33,11,11,0,0,0-1.64,1.65,2.84,2.84,0,0,0-.59,1.74,1.68,1.68,0,0,0,.5,1.25,3.45,3.45,0,0,0,1.56.79,8.12,8.12,0,0,0-1.45,1,5.07,5.07,0,0,0-1.16,1.37,3.37,3.37,0,0,0-.46,1.71,2.67,2.67,0,0,0,.73,1.92,4.35,4.35,0,0,0,2.09,1.12,12.58,12.58,0,0,0,3.2.35,10,10,0,0,0,3.19-.46m-18.8-5.68V700.05a7.41,7.41,0,0,1,1.58-1.26,3.27,3.27,0,0,1,1.62-.48,1.58,1.58,0,0,1,1.35.6,3.4,3.4,0,0,1,.46,2.05v14.47h2.36v-15a6.18,6.18,0,0,0-.34-2.15,3,3,0,0,0-1-1.36,2.58,2.58,0,0,0-1.57-.46,5,5,0,0,0-2.46.63,8.39,8.39,0,0,0-2,1.59v-1.93h-2.36v18.67ZM697.5,691h-2.36v3.2h2.36Zm0,5.79h-2.36v18.67h2.36ZM684,715.43V700.05a7.41,7.41,0,0,1,1.58-1.26,3.27,3.27,0,0,1,1.62-.48,1.58,1.58,0,0,1,1.35.6A3.4,3.4,0,0,1,689,701v14.47h2.36v-15a6.18,6.18,0,0,0-.34-2.15,3,3,0,0,0-1-1.36,2.58,2.58,0,0,0-1.57-.46,5,5,0,0,0-2.46.63,8.39,8.39,0,0,0-2,1.59v-1.93h-2.36v18.67Zm-13.12-12.18a13.57,13.57,0,0,1,.26-3.08,2.42,2.42,0,0,1,.85-1.51,2.67,2.67,0,0,1,1.57-.42,2.24,2.24,0,0,1,1.7.57,3,3,0,0,1,.69,1.61,16.77,16.77,0,0,1,.16,2.54v1.55h-5.23Zm6.46,10.94a7,7,0,0,0,1.07-4.09v-1h-2.3v1.29a5.84,5.84,0,0,1-.34,2.25,1.89,1.89,0,0,1-.92,1.06,2.87,2.87,0,0,1-1.29.28,2.46,2.46,0,0,1-1.53-.45,2.74,2.74,0,0,1-.88-1.51,12,12,0,0,1-.27-2.86v-3.26h7.56v-1.68a19.27,19.27,0,0,0-.4-4.35,4.46,4.46,0,0,0-1.44-2.53,4.73,4.73,0,0,0-3-.84,5.49,5.49,0,0,0-2.81.66,3.9,3.9,0,0,0-1.68,2.23,13.47,13.47,0,0,0-.55,4.34v4.72a14.3,14.3,0,0,0,.53,4.3,4.12,4.12,0,0,0,1.65,2.31,5.36,5.36,0,0,0,2.86.7c1.81,0,3.07-.52,3.78-1.54m-18.31-.73a5.07,5.07,0,0,1-1.27-1V699.76a8,8,0,0,1,1.24-1,3.07,3.07,0,0,1,1.67-.48,2,2,0,0,1,1.64.64,3.66,3.66,0,0,1,.73,1.89,22.15,22.15,0,0,1,.18,3.09v4a24.81,24.81,0,0,1-.18,3.25,4.1,4.1,0,0,1-.73,2,1.92,1.92,0,0,1-1.61.69,3.42,3.42,0,0,1-1.67-.42m-1.27,8.11V714a7.46,7.46,0,0,0,1.37,1.19,3.3,3.3,0,0,0,2,.59,3.7,3.7,0,0,0,2.71-1A5.54,5.54,0,0,0,665.2,712a19,19,0,0,0,.41-4.17v-3.91a24.5,24.5,0,0,0-.16-2.75,9,9,0,0,0-.62-2.39,4,4,0,0,0-1.27-1.69,3.51,3.51,0,0,0-2.18-.63,3.74,3.74,0,0,0-2.14.58,6.67,6.67,0,0,0-1.45,1.26v-1.55h-2.36v24.81Zm-12.41-8.27a3.37,3.37,0,0,1-.7-1.81,23.36,23.36,0,0,1-.14-2.68v-5.43a23.18,23.18,0,0,1,.14-2.67,3.43,3.43,0,0,1,.7-1.8,2.17,2.17,0,0,1,1.78-.67,2.2,2.2,0,0,1,1.79.67,3.27,3.27,0,0,1,.7,1.8,26.16,26.16,0,0,1,.12,2.67v5.43a26.36,26.36,0,0,1-.12,2.68,3.22,3.22,0,0,1-.7,1.81,2.26,2.26,0,0,1-1.79.65,2.23,2.23,0,0,1-1.78-.65m4.8,1.6a4.34,4.34,0,0,0,1.52-2.39,14.5,14.5,0,0,0,.43-3.83v-5.17a14.55,14.55,0,0,0-.43-3.83,4.38,4.38,0,0,0-1.52-2.39,6,6,0,0,0-6,0,4.34,4.34,0,0,0-1.53,2.39,14.51,14.51,0,0,0-.44,3.83v5.17a14.46,14.46,0,0,0,.44,3.83,4.3,4.3,0,0,0,1.53,2.39,5.89,5.89,0,0,0,6,0m-17.61-13.07h-2.42v2.84h2.42Zm-19.3,11.47a3.44,3.44,0,0,1-.69-1.81,21.14,21.14,0,0,1-.15-2.68v-5.43a21,21,0,0,1,.15-2.67,3.51,3.51,0,0,1,.69-1.8,2.17,2.17,0,0,1,1.78-.67,2.23,2.23,0,0,1,1.8.67,3.35,3.35,0,0,1,.69,1.8,23.37,23.37,0,0,1,.13,2.67v5.43a23.55,23.55,0,0,1-.13,2.68,3.29,3.29,0,0,1-.69,1.81,2.29,2.29,0,0,1-1.8.65,2.23,2.23,0,0,1-1.78-.65m4.8,1.6a4.34,4.34,0,0,0,1.52-2.39,14.46,14.46,0,0,0,.44-3.83v-5.17a14.51,14.51,0,0,0-.44-3.83,4.38,4.38,0,0,0-1.52-2.39,5.93,5.93,0,0,0-6,0,4.3,4.3,0,0,0-1.54,2.39,14.55,14.55,0,0,0-.43,3.83v5.17a14.5,14.5,0,0,0,.43,3.83,4.26,4.26,0,0,0,1.54,2.39,5.87,5.87,0,0,0,6,0M606.46,691H604.1v3.2h2.36Zm0,5.79H604.1v18.67h2.36Zm-13,16.46a3.91,3.91,0,0,1-.77-2,20.29,20.29,0,0,1-.21-3.17v-4.4a12.22,12.22,0,0,1,.5-4,2,2,0,0,1,2-1.37,3,3,0,0,1,1.58.43,7.63,7.63,0,0,1,1.2.89v13a5.72,5.72,0,0,1-1.26.89,3.1,3.1,0,0,1-1.46.37,2,2,0,0,1-1.63-.66m3,2a6.44,6.44,0,0,0,1.34-1.11v1.32h2.36V689.26h-2.36v8.82a6,6,0,0,0-1.38-1.11,3.57,3.57,0,0,0-1.92-.5,3.62,3.62,0,0,0-2.73,1,5.49,5.49,0,0,0-1.31,2.76,21.77,21.77,0,0,0-.35,4.24v3.45c0,2.81.35,4.81,1.05,6a3.67,3.67,0,0,0,3.44,1.81,3.37,3.37,0,0,0,1.86-.51m-14.08-.16a7.8,7.8,0,0,0,2.07-1.69v2.06h2.36V696.76h-2.36V712a7.7,7.7,0,0,1-1.6,1.34,3.13,3.13,0,0,1-1.69.53,1.61,1.61,0,0,1-1.36-.59,3.55,3.55,0,0,1-.45-2.06V696.76H577v15a6,6,0,0,0,.34,2.15,2.91,2.91,0,0,0,1,1.36,2.65,2.65,0,0,0,1.59.47,4.94,4.94,0,0,0,2.48-.67m-8.87.55c.34,0,.67-.08,1-.14v-1.78l-.68.08a5.27,5.27,0,0,1-.65.05,1.39,1.39,0,0,1-1.34-.57,4.37,4.37,0,0,1-.3-1.92v-13h3.1v-1.55h-3.1V691H569.2v5.79h-2.3v1.55h2.3v13.25a7.52,7.52,0,0,0,.26,2.11,2.57,2.57,0,0,0,1,1.46,3.58,3.58,0,0,0,2.1.53c.32,0,.65,0,1,0m-10.35-.42a3.94,3.94,0,0,0,1.66-1.52,4.6,4.6,0,0,0,.6-2.44A5.18,5.18,0,0,0,565,709a7,7,0,0,0-1.17-1.73,20.36,20.36,0,0,0-1.48-1.46l-2.65-2.35a5.46,5.46,0,0,1-1.2-1.46,3.21,3.21,0,0,1-.32-1.49,2.13,2.13,0,0,1,.66-1.66,2.48,2.48,0,0,1,1.73-.6,2.35,2.35,0,0,1,1.37.39,2.55,2.55,0,0,1,.89,1.21,6.83,6.83,0,0,1,.39,2.09l1.68-.55a5.9,5.9,0,0,0-1.2-3.54,3.87,3.87,0,0,0-3.23-1.37,5,5,0,0,0-2.34.5,3.67,3.67,0,0,0-1.55,1.42,4.24,4.24,0,0,0-.57,2.28,4.83,4.83,0,0,0,.65,2.55,8.89,8.89,0,0,0,1.9,2.13l2.53,2.2a8.24,8.24,0,0,1,1.74,1.92,3.55,3.55,0,0,1,.55,1.83,2.71,2.71,0,0,1-.66,2,2.46,2.46,0,0,1-1.89.7,2.77,2.77,0,0,1-2.27-1,5.78,5.78,0,0,1-1-3.12l-2,.59a6.28,6.28,0,0,0,1.52,3.86,4.6,4.6,0,0,0,3.56,1.44,5.54,5.54,0,0,0,2.52-.54m-17,.42c.33,0,.66-.08,1-.14v-1.78l-.68.08a5.12,5.12,0,0,1-.64.05c-.69,0-1.14-.19-1.34-.57a4.2,4.2,0,0,1-.31-1.92v-13h3.1v-1.55h-3.1V691h-2.36v5.79h-2.29v1.55h2.29v13.25a7.91,7.91,0,0,0,.26,2.11,2.57,2.57,0,0,0,1,1.46,3.62,3.62,0,0,0,2.1.53c.32,0,.65,0,1,0m-16.27-.18V700.05a7.41,7.41,0,0,1,1.58-1.26,3.26,3.26,0,0,1,1.61-.48,1.59,1.59,0,0,1,1.36.6,3.49,3.49,0,0,1,.45,2.05v14.47h2.36v-15a6,6,0,0,0-.34-2.15,3,3,0,0,0-1-1.36,2.55,2.55,0,0,0-1.56-.46,5,5,0,0,0-2.46.63,8.39,8.39,0,0,0-2,1.59v-1.93h-2.36v18.67Zm-13.12-12.18a14.29,14.29,0,0,1,.25-3.08,2.48,2.48,0,0,1,.86-1.51,2.67,2.67,0,0,1,1.57-.42,2.21,2.21,0,0,1,1.69.57,2.93,2.93,0,0,1,.7,1.61A16.77,16.77,0,0,1,522,703v1.55h-5.23Zm6.46,10.94a7,7,0,0,0,1.06-4.09v-1H522v1.29a5.84,5.84,0,0,1-.34,2.25,1.93,1.93,0,0,1-.92,1.06,2.9,2.9,0,0,1-1.29.28,2.49,2.49,0,0,1-1.54-.45,2.68,2.68,0,0,1-.87-1.51,12,12,0,0,1-.27-2.86v-3.26h7.56v-1.68a19.2,19.2,0,0,0-.41-4.35,4.51,4.51,0,0,0-1.43-2.53,4.75,4.75,0,0,0-3-.84,5.49,5.49,0,0,0-2.81.66,3.9,3.9,0,0,0-1.68,2.23,13.47,13.47,0,0,0-.55,4.34v4.72a14,14,0,0,0,.53,4.3,4.07,4.07,0,0,0,1.65,2.31,5.34,5.34,0,0,0,2.86.7c1.81,0,3.07-.52,3.78-1.54m-27.08,1.24V700a7,7,0,0,1,1.71-1.39,3.52,3.52,0,0,1,1.78-.52,1.84,1.84,0,0,1,1.34.53,3.22,3.22,0,0,1,.53,2.18v14.67h2.2v-15.1a1.87,1.87,0,0,0,0-.34,6.73,6.73,0,0,1,1.71-1.42,3.57,3.57,0,0,1,1.81-.52,1.76,1.76,0,0,1,1.32.53,3.22,3.22,0,0,1,.52,2.18v14.67h2.23V700.7a6,6,0,0,0-.45-2.55,2.83,2.83,0,0,0-1.18-1.33,3.2,3.2,0,0,0-1.54-.39,5.29,5.29,0,0,0-2.47.62,6.38,6.38,0,0,0-2.11,1.84,3,3,0,0,0-1.18-1.94,3.37,3.37,0,0,0-1.8-.52,5.1,5.1,0,0,0-2.32.57,6.57,6.57,0,0,0-2.07,1.66v-1.9H494v18.67Zm-13-12.18a14.17,14.17,0,0,1,.26-3.08,2.47,2.47,0,0,1,.85-1.51,2.7,2.7,0,0,1,1.57-.42,2.24,2.24,0,0,1,1.7.57,2.92,2.92,0,0,1,.69,1.61,16.77,16.77,0,0,1,.16,2.54v1.55h-5.23Zm6.46,10.94a7,7,0,0,0,1.07-4.09v-1h-2.3v1.29a6.07,6.07,0,0,1-.33,2.25,1.94,1.94,0,0,1-.93,1.06,2.84,2.84,0,0,1-1.29.28,2.48,2.48,0,0,1-1.53-.45,2.74,2.74,0,0,1-.88-1.51,12,12,0,0,1-.27-2.86v-3.26h7.56v-1.68a19.27,19.27,0,0,0-.4-4.35,4.46,4.46,0,0,0-1.44-2.53,4.73,4.73,0,0,0-3-.84,5.49,5.49,0,0,0-2.81.66,4,4,0,0,0-1.68,2.23,13.47,13.47,0,0,0-.55,4.34v4.72a14.3,14.3,0,0,0,.53,4.3,4.12,4.12,0,0,0,1.65,2.31,5.38,5.38,0,0,0,2.86.7c1.81,0,3.07-.52,3.78-1.54M475,715.43l3.91-18.67h-2.3l-3,16-3-16h-2.39l4,18.67Zm-15.64-2.13a3.37,3.37,0,0,1-.7-1.81,23.36,23.36,0,0,1-.14-2.68v-5.43a23.18,23.18,0,0,1,.14-2.67,3.43,3.43,0,0,1,.7-1.8,2.15,2.15,0,0,1,1.77-.67,2.23,2.23,0,0,1,1.8.67,3.27,3.27,0,0,1,.69,1.8,23.37,23.37,0,0,1,.13,2.67v5.43a23.55,23.55,0,0,1-.13,2.68,3.21,3.21,0,0,1-.69,1.81,2.29,2.29,0,0,1-1.8.65,2.2,2.2,0,0,1-1.77-.65m4.8,1.6a4.33,4.33,0,0,0,1.51-2.39,14.05,14.05,0,0,0,.44-3.83v-5.17a14.1,14.1,0,0,0-.44-3.83,4.37,4.37,0,0,0-1.51-2.39,6,6,0,0,0-6,0,4.35,4.35,0,0,0-1.54,2.39,14.55,14.55,0,0,0-.43,3.83v5.17a14.5,14.5,0,0,0,.43,3.83,4.32,4.32,0,0,0,1.54,2.39,5.89,5.89,0,0,0,6,0m-26.26.53V700a7,7,0,0,1,1.71-1.39,3.55,3.55,0,0,1,1.78-.52,1.82,1.82,0,0,1,1.34.53,3.16,3.16,0,0,1,.53,2.18v14.67h2.2v-15.1a1.87,1.87,0,0,0,0-.34,6.73,6.73,0,0,1,1.71-1.42,3.57,3.57,0,0,1,1.81-.52,1.8,1.8,0,0,1,1.33.53,3.29,3.29,0,0,1,.51,2.18v14.67H453V700.7a6,6,0,0,0-.45-2.55,2.78,2.78,0,0,0-1.18-1.33,3.19,3.19,0,0,0-1.53-.39,5.3,5.3,0,0,0-2.48.62,6.38,6.38,0,0,0-2.11,1.84,3,3,0,0,0-1.18-1.94,3.37,3.37,0,0,0-1.8-.52,5.1,5.1,0,0,0-2.32.57,6.57,6.57,0,0,0-2.07,1.66v-1.9h-2.2v18.67Z"/></g><rect class="cls-11" x="581.5" y="802.11" width="277" height="93.78"/><g class="cls-2"><path class="cls-9" d="M1226.21,827.67a25.86,25.86,0,0,0-8.61,1.66,18.09,18.09,0,0,0-10.36,10.4,26.27,26.27,0,0,0-1.63,8.62c-.16,3.78-.2,5-.18,14.62s.06,10.85.24,14.64a26,26,0,0,0,1.66,8.6,18.09,18.09,0,0,0,10.4,10.36,26,26,0,0,0,8.61,1.63c3.79.17,5,.21,14.63.19s10.85-.06,14.63-.24a26.35,26.35,0,0,0,8.61-1.67,18.09,18.09,0,0,0,10.36-10.4,25.94,25.94,0,0,0,1.63-8.61c.16-3.78.2-5,.19-14.63s-.07-10.84-.24-14.63a26.35,26.35,0,0,0-1.67-8.61,18.09,18.09,0,0,0-10.4-10.36,26.2,26.2,0,0,0-8.61-1.63c-3.79-.16-5-.2-14.63-.18s-10.84.06-14.63.24m.41,64.14a19.53,19.53,0,0,1-6.59-1.21,11.78,11.78,0,0,1-6.75-6.71,19.85,19.85,0,0,1-1.23-6.59c-.18-3.74-.22-4.86-.23-14.34s0-10.59.18-14.34a19.47,19.47,0,0,1,1.2-6.58,11.74,11.74,0,0,1,6.73-6.75,19.64,19.64,0,0,1,6.58-1.24c3.74-.17,4.86-.21,14.34-.23s10.6,0,14.34.18a19.47,19.47,0,0,1,6.59,1.21,11,11,0,0,1,4.08,2.64,10.82,10.82,0,0,1,2.66,4.08,19.71,19.71,0,0,1,1.24,6.58c.18,3.74.22,4.87.23,14.34s0,10.6-.18,14.33a19.55,19.55,0,0,1-1.21,6.6,11.7,11.7,0,0,1-6.72,6.74,19.52,19.52,0,0,1-6.58,1.23c-3.74.18-4.87.22-14.34.24s-10.6,0-14.34-.18m28.93-47.87a4.26,4.26,0,1,0,4.25-4.27,4.27,4.27,0,0,0-4.25,4.27m-32.87,19a18.22,18.22,0,1,0,18.19-18.26,18.22,18.22,0,0,0-18.19,18.26m6.4,0a11.83,11.83,0,1,1,11.85,11.8,11.83,11.83,0,0,1-11.85-11.8"/><path class="cls-9" d="M825.08,843.16V824.61h3.36v-2.88H817.75v2.88h3.41v18.55Zm-17.68,0v-12.8l5.24,12.8h2.59V821.73H812V834l-5.22-12.23h-2.72v21.43Zm-6.14,0v-2.7h-5.13v-7.09h4v-2.72h-4v-6.17h5.08v-2.75h-9v21.43Zm-24.77,0,.29-14.95,3.1,14.95h2.35l3-14.89.32,14.89h2.91l-.4-21.43h-3.92L781,836.57l-3-14.84h-4l-.37,21.43Zm-5.69,0v-2.7h-5.13v-7.09h4v-2.72h-4v-6.17h5.08v-2.75h-9v21.43Zm-16.09,0L759,821.73h-3.55l-2.65,15.16L750,821.73h-3.46l4.31,21.43Zm-18.07-3A2,2,0,0,1,736,839a8.08,8.08,0,0,1-.15-1.61V827.5a7.94,7.94,0,0,1,.16-1.62,2,2,0,0,1,.64-1.12,2.09,2.09,0,0,1,1.4-.41,2.15,2.15,0,0,1,1.44.41,2,2,0,0,1,.62,1.12,7.29,7.29,0,0,1,.16,1.62v9.87a7.38,7.38,0,0,1-.16,1.61,2.07,2.07,0,0,1-.62,1.17,2.66,2.66,0,0,1-2.87,0m5.09,2.45a4.92,4.92,0,0,0,1.94-2.44,10.68,10.68,0,0,0,.59-3.72v-8a10.52,10.52,0,0,0-.59-3.72,4.7,4.7,0,0,0-1.94-2.37,8.51,8.51,0,0,0-7.29,0,4.59,4.59,0,0,0-1.93,2.37,10.53,10.53,0,0,0-.58,3.72v8a10.82,10.82,0,0,0,.58,3.75,4.71,4.71,0,0,0,1.93,2.44,6.82,6.82,0,0,0,3.63.85,6.74,6.74,0,0,0,3.66-.86m-25.2.56.29-14.95,3.1,14.95h2.35l3-14.89.32,14.89h2.91l-.39-21.43h-3.92l-3.18,14.84-3-14.84h-4l-.37,21.43Zm-12.49,0v-2.7h-5.13v-7.09h4v-2.72h-4v-6.17H704v-2.75h-9v21.43Zm-21.14,0v-9.68h4.37v9.68h3.91V821.73h-3.91v9H682.9v-9H679v21.43Zm-9.79,0V824.61h3.36v-2.88H665.78v2.88h3.41v18.55Zm-24.47,0v-12.8l5.24,12.8h2.59V821.73h-3.23V834L648,821.73H645.3v21.43Zm-7.18-21.43H637.6v21.43h3.86Zm-15,18.42a2,2,0,0,1-.62-1.17,8.08,8.08,0,0,1-.15-1.61V827.5a7.94,7.94,0,0,1,.16-1.62,2,2,0,0,1,.64-1.12,2.09,2.09,0,0,1,1.4-.41,2.15,2.15,0,0,1,1.44.41,2,2,0,0,1,.62,1.12,7.29,7.29,0,0,1,.16,1.62v9.87A7.38,7.38,0,0,1,630,839a2.07,2.07,0,0,1-.62,1.17,2.66,2.66,0,0,1-2.87,0m5.09,2.45a4.92,4.92,0,0,0,1.94-2.44,10.68,10.68,0,0,0,.59-3.72v-8a10.52,10.52,0,0,0-.59-3.72,4.7,4.7,0,0,0-1.94-2.37,8.51,8.51,0,0,0-7.29,0,4.59,4.59,0,0,0-1.93,2.37,10.53,10.53,0,0,0-.58,3.72v8a10.82,10.82,0,0,0,.58,3.75,4.71,4.71,0,0,0,1.93,2.44,6.82,6.82,0,0,0,3.63.85,6.74,6.74,0,0,0,3.66-.86m-18.11,1.09a6.25,6.25,0,0,0,2.95-.57,3.06,3.06,0,0,0,1.47-1.74,9,9,0,0,0,.42-3V821.73h-3.89v16.51a5.9,5.9,0,0,1-.13,1.39,1.54,1.54,0,0,1-.44.82,1.68,1.68,0,0,1-.86.39,7.74,7.74,0,0,1-1.4.1v2.75Z"/><path class="cls-10" d="M821.18,873.81a2.25,2.25,0,0,1-.79-1.3,8.24,8.24,0,0,1-.2-2v-8.9a8,8,0,0,1,.2-1.95,2.13,2.13,0,0,1,.79-1.25,2.85,2.85,0,0,1,1.72-.44,2.78,2.78,0,0,1,1.7.44,2.11,2.11,0,0,1,.78,1.25,8.54,8.54,0,0,1,.2,1.95v8.9a8.79,8.79,0,0,1-.2,2,2.24,2.24,0,0,1-.78,1.3,2.65,2.65,0,0,1-1.7.47,2.71,2.71,0,0,1-1.72-.47m5,1.88a4.54,4.54,0,0,0,1.74-2.29,10.1,10.1,0,0,0,.54-3.46v-7.73a9.72,9.72,0,0,0-.54-3.43,4.38,4.38,0,0,0-1.74-2.21,6,6,0,0,0-3.26-.78,6.12,6.12,0,0,0-3.28.77,4.27,4.27,0,0,0-1.75,2.21,9.82,9.82,0,0,0-.54,3.44v7.7a10.27,10.27,0,0,0,.53,3.5,4.39,4.39,0,0,0,1.75,2.3,6,6,0,0,0,3.29.8,5.7,5.7,0,0,0,3.26-.82m-14.25.59v-18.2h3.34V856h-9.61v2.11h3.44v18.2Zm-16.4,0V862.42l5.84,13.86h1.81V856H800.8v13.49L795,856H793.1v20.31Zm-5.19,0v-2h-5.09V866.8h4.09v-2h-4.09v-6.72h5V856h-7.88v20.31ZM778.61,856h-2.79v20.31h2.79Zm-17.73,20.31.22-14.74,3.41,14.74h1.61l3.43-14.74.23,14.74h2.28L771.69,856h-2.76l-3.61,16.48L761.73,856H759l-.38,20.31Zm-6-20.31h-2.78v20.31h2.78Zm-10.08,20.31L749.24,856h-2.58l-3.06,15-3.21-15h-2.66l4.54,20.31Zm-16.56-2.47a2.25,2.25,0,0,1-.79-1.3,8.24,8.24,0,0,1-.2-2v-8.9a8,8,0,0,1,.2-1.95,2.13,2.13,0,0,1,.79-1.25,2.85,2.85,0,0,1,1.72-.44,2.78,2.78,0,0,1,1.7.44,2.11,2.11,0,0,1,.78,1.25,8.54,8.54,0,0,1,.2,1.95v8.9a8.79,8.79,0,0,1-.2,2,2.24,2.24,0,0,1-.78,1.3,2.65,2.65,0,0,1-1.7.47,2.71,2.71,0,0,1-1.72-.47m5,1.88a4.54,4.54,0,0,0,1.74-2.29,10.1,10.1,0,0,0,.54-3.46v-7.73a9.72,9.72,0,0,0-.54-3.43,4.38,4.38,0,0,0-1.74-2.21,6,6,0,0,0-3.26-.78,6.12,6.12,0,0,0-3.28.77,4.27,4.27,0,0,0-1.75,2.21,9.82,9.82,0,0,0-.54,3.44v7.7a10.27,10.27,0,0,0,.53,3.5,4.39,4.39,0,0,0,1.75,2.3,6,6,0,0,0,3.29.8,5.7,5.7,0,0,0,3.26-.82m-23.25.59.22-14.74,3.42,14.74h1.6l3.44-14.74.22,14.74h2.28L720.73,856H718l-3.61,16.48L710.77,856H708l-.38,20.31Zm-10.93,0v-2h-5.2V856H691v20.31ZM682.71,860l1.7,9.16H681Zm-3,16.3,1-5.11h4.14l.93,5.11h2.68L684.06,856h-2.73L677,876.28Zm-10.58,0v-2H664V866.8h4.09v-2H664v-6.72h5V856h-7.87v20.31Zm-13.72,0v-18.2h3.34V856H649.1v2.11h3.44v18.2Zm-7.85,0v-2h-5.09V866.8h4.09v-2h-4.09v-6.72h5V856H639.6v20.31Zm-19.26,0V862.42l5.85,13.86h1.8V856h-2.35v13.49L627.79,856h-1.93v20.31Zm-10.63-21.52,2.81-5h-2.68l-1.48,5Zm2.72,20.87a4.35,4.35,0,0,0,1.59-2.47,14.19,14.19,0,0,0,.43-3.72V856h-2.68v13.59a14.41,14.41,0,0,1-.18,2.38,3.29,3.29,0,0,1-.75,1.71,2.82,2.82,0,0,1-3.55,0,3.15,3.15,0,0,1-.76-1.71,14.41,14.41,0,0,1-.18-2.38V856h-2.71v13.47a14.19,14.19,0,0,0,.43,3.72,4.36,4.36,0,0,0,1.6,2.47,5.59,5.59,0,0,0,3.39.88,5.5,5.5,0,0,0,3.37-.88"/></g></g></svg>