<svg width="281" height="108" viewBox="0 0 281 108" fill="none" xmlns="http://www.w3.org/2000/svg">
<g clip-path="url(#clip0_37_1498)">
<path d="M27.9667 76.5688H21.1977C21.1087 76.5639 21.0195 76.5768 20.9356 76.6069C20.8516 76.637 20.7745 76.6837 20.7088 76.7441C20.5829 76.878 20.5068 77.0513 20.4934 77.2348L18.7473 91.9281C18.7434 91.9723 18.7299 92.015 18.7078 92.0533C18.6856 92.0917 18.6554 92.1247 18.6193 92.1501C18.5552 92.1501 18.497 92.1501 18.4388 92.0157L11.629 77.0128C11.57 76.8662 11.4644 76.7432 11.3287 76.6629C11.1929 76.5827 11.0346 76.5496 10.8782 76.5688H4.38853C4.30041 76.564 4.21223 76.5771 4.12924 76.6072C4.04624 76.6373 3.97014 76.6838 3.90545 76.7441C3.77977 76.8787 3.702 77.0512 3.68428 77.2348L0.0116449 106.978C-0.0112262 107.062 -0.0128792 107.151 0.00684018 107.237C0.0265595 107.322 0.0670335 107.402 0.124657 107.468C0.182281 107.533 0.255268 107.584 0.337103 107.615C0.418937 107.646 0.507081 107.656 0.593678 107.644H7.35691C7.54263 107.651 7.72401 107.586 7.86327 107.463C8.00155 107.337 8.08861 107.164 8.10773 106.978L9.7898 92.2845C9.7898 92.1618 9.85965 92.0917 9.91785 92.0625C9.97605 92.0333 10.0343 92.0625 10.0983 92.191L16.9954 107.2C17.0485 107.342 17.1469 107.463 17.2753 107.543C17.4037 107.623 17.5549 107.659 17.7055 107.644H24.1602C24.3478 107.652 24.5314 107.587 24.6724 107.463C24.8068 107.335 24.8914 107.163 24.911 106.978L28.5429 77.2348C28.5613 77.1495 28.5604 77.0611 28.5402 76.9762C28.5201 76.8913 28.4812 76.812 28.4265 76.7441C28.3673 76.683 28.2954 76.6356 28.216 76.6053C28.1365 76.575 28.0515 76.5626 27.9667 76.5688Z" fill="black"/>
<path d="M55.1652 76.5688H34.7125C34.6234 76.5635 34.5342 76.5763 34.4502 76.6064C34.3662 76.6365 34.2892 76.6833 34.2236 76.744C34.0979 76.8786 34.0201 77.0512 34.0024 77.2348L30.3298 106.978C30.3115 107.062 30.312 107.149 30.3311 107.233C30.3502 107.316 30.3875 107.395 30.4404 107.463C30.4997 107.526 30.5723 107.575 30.6528 107.606C30.7334 107.637 30.8199 107.65 30.906 107.644H51.3587C51.5315 107.647 51.6988 107.582 51.8243 107.463C51.9625 107.337 52.0496 107.164 52.0687 106.978L52.7788 101.135C52.7971 101.051 52.7966 100.964 52.7775 100.881C52.7584 100.797 52.7211 100.718 52.6682 100.651C52.6089 100.588 52.5363 100.539 52.4557 100.507C52.3752 100.476 52.2887 100.463 52.2026 100.469H39.3979C39.2465 100.469 39.1767 100.382 39.1767 100.207L39.7587 95.6788C39.7529 95.6427 39.7556 95.6057 39.7666 95.5709C39.7776 95.536 39.7966 95.5042 39.8221 95.4781C39.8476 95.452 39.8788 95.4322 39.9133 95.4204C39.9478 95.4085 39.9845 95.405 40.0206 95.41H47.9363C48.0253 95.4153 48.1145 95.4025 48.1985 95.3724C48.2825 95.3423 48.3596 95.2955 48.4252 95.2348C48.5498 95.0995 48.6274 94.9273 48.6464 94.744L49.3506 88.9719C49.3689 88.8879 49.3684 88.8008 49.3493 88.717C49.3302 88.6332 49.2929 88.5547 49.24 88.487C49.1883 88.427 49.1238 88.3796 49.0512 88.3482C48.9786 88.3168 48.8999 88.3024 48.821 88.3059H40.9053C40.7307 88.3059 40.6551 88.2182 40.6842 88.043L41.1731 83.9534C41.2313 83.7723 41.3302 83.6846 41.4815 83.6846H54.2863C54.3744 83.6895 54.4626 83.6764 54.5456 83.6463C54.6286 83.6162 54.7047 83.5696 54.7694 83.5094C54.8968 83.3753 54.9766 83.2028 54.9964 83.0186L55.7006 77.2056C55.7198 77.1207 55.7198 77.0325 55.7007 76.9476C55.6815 76.8627 55.6437 76.7832 55.59 76.7148C55.534 76.661 55.4669 76.6201 55.3936 76.5949C55.3202 76.5697 55.2423 76.5608 55.1652 76.5688Z" fill="black"/>
<path d="M97.5721 76.5689H90.2792C90.1032 76.5504 89.9268 76.6008 89.7869 76.7097C89.6471 76.8185 89.5544 76.9774 89.5284 77.1531L84.5753 91.4725C84.5481 91.5893 84.4899 91.6478 84.4007 91.6478C84.3076 91.6478 84.2494 91.5893 84.2202 91.4725L82.8059 77.1298C82.8061 77.05 82.7899 76.971 82.7585 76.8978C82.7271 76.8245 82.6811 76.7585 82.6233 76.7037C82.5655 76.649 82.4971 76.6067 82.4224 76.5795C82.3477 76.5523 82.2683 76.5407 82.189 76.5455H75.9496C75.7692 76.5322 75.59 76.5836 75.444 76.6906C75.2979 76.7976 75.1945 76.9533 75.1522 77.1298L70.4959 91.4725C70.4668 91.5893 70.4028 91.6478 70.3155 91.6478C70.2282 91.6478 70.1816 91.5893 70.1816 91.4725L68.3249 77.1298C68.3251 77.05 68.3089 76.971 68.2775 76.8978C68.2461 76.8245 68.2001 76.7585 68.1423 76.7037C68.0845 76.649 68.0161 76.6067 67.9414 76.5795C67.8667 76.5523 67.7873 76.5407 67.708 76.5455H60.4267C60.2655 76.5384 60.1075 76.5926 59.9844 76.6974C59.9264 76.7504 59.8806 76.8156 59.8505 76.8882C59.8203 76.9609 59.8064 77.0394 59.8098 77.1181V77.2992L64.6756 107.042C64.6957 107.205 64.7744 107.354 64.8967 107.463C65.0041 107.564 65.1455 107.62 65.2925 107.621H71.6949C71.8719 107.616 72.0424 107.553 72.1786 107.439C72.3149 107.326 72.409 107.169 72.4457 106.995L77.003 91.9048C77.0612 91.788 77.1253 91.7237 77.2009 91.7237C77.2766 91.7237 77.3115 91.788 77.3115 91.9048L78.5047 107.042C78.5038 107.126 78.5211 107.21 78.5553 107.286C78.5895 107.363 78.6399 107.432 78.7029 107.487C78.7659 107.543 78.8401 107.584 78.9204 107.608C79.0007 107.632 79.0852 107.638 79.1682 107.626H86.0246C86.1968 107.628 86.3645 107.571 86.5007 107.465C86.6369 107.359 86.7336 107.21 86.7754 107.042L98.0552 77.2992C98.101 77.2139 98.125 77.1186 98.125 77.0217C98.125 76.9248 98.101 76.8294 98.0552 76.7442C97.9954 76.6771 97.92 76.6259 97.8357 76.5953C97.7514 76.5648 97.6608 76.5557 97.5721 76.5689Z" fill="black"/>
<path d="M127.302 76.5686H120.138C119.965 76.5681 119.797 76.6252 119.66 76.731C119.523 76.8367 119.425 76.9851 119.381 77.1528L113.013 95.7546C113.013 95.8773 112.92 95.9357 112.816 95.9357C112.711 95.9357 112.658 95.8773 112.658 95.7546L110.668 77.1528C110.668 77.0731 110.652 76.9941 110.62 76.9209C110.589 76.8476 110.543 76.7816 110.485 76.7268C110.427 76.6721 110.359 76.6298 110.284 76.6026C110.21 76.5754 110.13 76.5638 110.051 76.5686H102.711C102.55 76.5603 102.392 76.6147 102.269 76.7205C102.209 76.7724 102.162 76.8372 102.131 76.9101C102.1 76.9829 102.085 77.0619 102.089 77.1412V77.3223L106.885 107.065C106.908 107.227 106.986 107.375 107.106 107.486C107.215 107.588 107.358 107.645 107.507 107.644H114.76C114.942 107.642 115.12 107.587 115.272 107.486C115.425 107.387 115.54 107.239 115.598 107.065L127.762 77.3223C127.808 77.237 127.832 77.1416 127.832 77.0448C127.832 76.9479 127.808 76.8525 127.762 76.7672C127.707 76.699 127.637 76.6453 127.557 76.6107C127.477 76.5761 127.389 76.5616 127.302 76.5686Z" fill="black"/>
<path d="M140.061 76.5689H133.268C133.18 76.5641 133.092 76.5771 133.009 76.6072C132.926 76.6373 132.85 76.6839 132.785 76.7441C132.659 76.8787 132.582 77.0513 132.564 77.2349L128.891 106.978C128.868 107.062 128.867 107.151 128.887 107.237C128.906 107.322 128.947 107.402 129.004 107.468C129.062 107.534 129.135 107.584 129.217 107.615C129.299 107.646 129.387 107.656 129.473 107.644H136.242C136.428 107.651 136.61 107.586 136.749 107.463C136.887 107.337 136.974 107.164 136.993 106.978L140.643 77.2349C140.662 77.15 140.662 77.0619 140.643 76.977C140.623 76.8921 140.586 76.8125 140.532 76.7441C140.471 76.6814 140.398 76.6331 140.316 76.6028C140.235 76.5724 140.147 76.5609 140.061 76.5689Z" fill="black"/>
<path d="M164.715 100.493H151.492C151.346 100.493 151.271 100.405 151.271 100.23L154.105 77.2345C154.123 77.1492 154.122 77.0608 154.102 76.9758C154.082 76.8909 154.043 76.8116 153.989 76.7437C153.929 76.6826 153.858 76.6352 153.778 76.605C153.699 76.5747 153.614 76.5622 153.529 76.5685H146.76C146.58 76.5598 146.404 76.6228 146.271 76.7437C146.145 76.8783 146.067 77.0509 146.05 77.2345L142.389 106.977C142.366 107.062 142.364 107.151 142.384 107.237C142.404 107.322 142.444 107.401 142.502 107.467C142.559 107.533 142.632 107.584 142.714 107.614C142.796 107.645 142.884 107.655 142.971 107.643H163.848C164.036 107.652 164.219 107.587 164.36 107.462C164.495 107.334 164.579 107.162 164.599 106.977L165.309 101.135C165.327 101.051 165.327 100.964 165.308 100.88C165.289 100.796 165.251 100.718 165.199 100.65C165.135 100.589 165.059 100.543 164.975 100.516C164.891 100.488 164.803 100.48 164.715 100.493Z" fill="black"/>
<path d="M191.431 100.492H178.207C178.056 100.492 177.986 100.405 177.986 100.23L180.803 77.2344C180.822 77.1495 180.822 77.0614 180.803 76.9765C180.784 76.8916 180.746 76.812 180.692 76.7437C180.632 76.6818 180.56 76.6339 180.479 76.6036C180.399 76.5733 180.312 76.5613 180.227 76.5684H173.475C173.386 76.5631 173.297 76.5759 173.213 76.6061C173.129 76.6362 173.052 76.683 172.986 76.7437C172.861 76.8783 172.783 77.0508 172.765 77.2344L169.092 106.977C169.074 107.061 169.075 107.148 169.094 107.232C169.113 107.316 169.15 107.395 169.203 107.462C169.262 107.525 169.335 107.574 169.415 107.605C169.496 107.637 169.582 107.65 169.669 107.643H190.546C190.732 107.651 190.913 107.586 191.053 107.462C191.191 107.336 191.278 107.164 191.297 106.977L192.007 101.135C192.025 101.051 192.023 100.963 192.003 100.88C191.983 100.796 191.945 100.717 191.891 100.65C191.83 100.592 191.757 100.548 191.678 100.521C191.599 100.494 191.514 100.484 191.431 100.492Z" fill="black"/>
<path d="M217.745 76.5688H208.636C208.463 76.5579 208.292 76.6039 208.148 76.6999C208.004 76.7959 207.895 76.9366 207.838 77.1004L195.144 106.896C194.97 107.398 195.144 107.65 195.633 107.65H202.92C203.101 107.664 203.281 107.613 203.427 107.506C203.573 107.399 203.676 107.242 203.718 107.065L205.091 103.648C205.119 103.587 205.162 103.534 205.216 103.495C205.27 103.456 205.333 103.432 205.4 103.426H214.386C214.45 103.421 214.513 103.441 214.562 103.483C214.611 103.524 214.642 103.584 214.648 103.648L215.137 107.065C215.136 107.149 215.154 107.233 215.188 107.31C215.222 107.386 215.272 107.455 215.335 107.51C215.398 107.566 215.472 107.607 215.553 107.631C215.633 107.655 215.718 107.661 215.801 107.65H223.14C223.582 107.65 223.804 107.455 223.804 107.065V106.89L218.408 77.0946C218.384 76.9392 218.302 76.7988 218.179 76.7014C218.056 76.6039 217.901 76.5566 217.745 76.5688ZM213.28 97.0167H208.042C207.899 97.0167 207.84 96.9115 207.867 96.7012L211.715 86.8921C211.773 86.7752 211.837 86.7168 211.913 86.7168C211.988 86.7168 212.041 86.7752 212.07 86.8921L213.542 96.7304C213.542 96.933 213.455 97.0342 213.28 97.0342V97.0167Z" fill="black"/>
<path d="M248.109 77.4101C246.363 76.5802 244.448 76.1701 242.516 76.2124C240.298 76.1764 238.103 76.671 236.114 77.6555C234.233 78.5884 232.628 79.9981 231.457 81.7451C230.237 83.5781 229.471 85.6772 229.222 87.8677L228.204 96.2631C228.137 96.8448 228.108 97.4303 228.116 98.0158C228.116 101.065 229.052 103.486 230.922 105.278C232.792 107.069 235.351 107.965 238.599 107.965C240.796 107.997 242.969 107.509 244.943 106.54C246.809 105.63 248.411 104.256 249.599 102.549C250.805 100.824 251.565 98.824 251.811 96.7305L252.562 90.6487C252.58 90.5646 252.58 90.4776 252.561 90.3938C252.541 90.31 252.504 90.2314 252.451 90.1638C252.393 90.1016 252.321 90.0531 252.241 90.0218C252.162 89.9905 252.077 89.9771 251.991 89.9827H240.787C240.615 89.9834 240.449 90.0479 240.322 90.1638C240.185 90.2902 240.1 90.463 240.083 90.6487L239.42 95.9768C239.4 96.0617 239.4 96.1498 239.419 96.2347C239.439 96.3196 239.476 96.3992 239.53 96.4675C239.589 96.5287 239.661 96.576 239.741 96.6063C239.82 96.6366 239.905 96.6491 239.99 96.6428H243.709C243.913 96.6428 243.988 96.7305 243.93 96.9116L243.884 97.4432C243.849 97.9282 243.715 98.4009 243.491 98.832C243.266 99.263 242.956 99.6434 242.58 99.9495C241.807 100.565 240.842 100.888 239.856 100.861C239.376 100.875 238.898 100.791 238.452 100.613C238.005 100.435 237.6 100.168 237.26 99.8268C236.919 99.4757 236.652 99.0584 236.477 98.6003C236.302 98.1422 236.222 97.653 236.242 97.1628C236.238 96.9554 236.254 96.7481 236.288 96.5435L237.347 87.6633C237.441 86.4875 237.941 85.3817 238.762 84.5377C239.144 84.1567 239.598 83.857 240.098 83.6562C240.598 83.4555 241.134 83.3579 241.672 83.3692C242.141 83.3292 242.614 83.3973 243.053 83.5681C243.492 83.739 243.887 84.0082 244.206 84.3552C244.526 84.7023 244.763 85.118 244.899 85.5708C245.035 86.0235 245.066 86.5014 244.99 86.968C244.99 87.2309 245.153 87.3653 245.572 87.3653H252.335C252.507 87.3679 252.673 87.3053 252.8 87.1901C252.94 87.0628 253.027 86.8877 253.045 86.6993V86.6584C253.103 86.0625 253.132 85.6477 253.132 85.414C253.147 83.7637 252.695 82.1431 251.828 80.7402C250.928 79.2991 249.638 78.1444 248.109 77.4101Z" fill="black"/>
<path d="M280.913 76.7439C280.859 76.6852 280.793 76.6391 280.72 76.6088C280.646 76.5785 280.567 76.5648 280.488 76.5687H259.959C259.78 76.56 259.604 76.623 259.471 76.7439C259.345 76.8785 259.267 77.0511 259.249 77.2347L255.583 106.978C255.564 107.062 255.565 107.149 255.584 107.232C255.603 107.316 255.64 107.395 255.693 107.463C255.752 107.525 255.824 107.573 255.903 107.604C255.982 107.636 256.068 107.649 256.153 107.644H276.635C276.807 107.646 276.974 107.581 277.1 107.463C277.234 107.333 277.32 107.162 277.345 106.978L278.049 101.135C278.067 101.051 278.067 100.964 278.048 100.881C278.029 100.797 277.991 100.718 277.939 100.65C277.879 100.587 277.807 100.539 277.726 100.507C277.646 100.476 277.559 100.463 277.473 100.469H264.668C264.523 100.469 264.447 100.382 264.447 100.206L265.029 95.6787C265.023 95.6426 265.026 95.6056 265.037 95.5708C265.048 95.5359 265.067 95.5041 265.092 95.478C265.118 95.4519 265.149 95.4321 265.184 95.4203C265.218 95.4085 265.255 95.4049 265.291 95.4099H273.212C273.301 95.4148 273.389 95.4017 273.472 95.3716C273.555 95.3415 273.631 95.2949 273.695 95.2347C273.822 95.1009 273.9 94.9279 273.917 94.7439L274.627 88.9718C274.645 88.8878 274.645 88.8007 274.625 88.7169C274.606 88.6331 274.569 88.5546 274.516 88.4869C274.464 88.4279 274.399 88.3811 274.327 88.3498C274.254 88.3185 274.176 88.3035 274.097 88.3058H266.216C266.042 88.3058 265.966 88.2181 266.001 88.0429L266.484 83.9533C266.542 83.7722 266.647 83.6845 266.793 83.6845H279.597C279.686 83.6898 279.776 83.677 279.86 83.6469C279.944 83.6168 280.021 83.57 280.086 83.5093C280.212 83.3747 280.29 83.2021 280.307 83.0185L281.017 77.2055C281.033 77.1255 281.032 77.0431 281.014 76.9636C280.996 76.8841 280.961 76.8093 280.913 76.7439Z" fill="black"/>
<path d="M14.9233 51.6514C15.4379 51.6205 15.9534 51.6946 16.4385 51.8693C16.9237 52.044 17.3686 52.3157 17.7462 52.6679C18.0716 52.9754 18.3042 53.3686 18.4175 53.8025C18.5307 54.2364 18.5199 54.6936 18.3864 55.1217L16.2155 63.3008C16.1371 63.5795 15.9533 63.8164 15.7033 63.961C15.4404 64.1398 15.1303 64.2354 14.8128 64.2356C14.6756 64.243 14.5384 64.2225 14.4094 64.1753C14.2804 64.1281 14.1622 64.0552 14.0619 63.961C13.9751 63.8778 13.9128 63.7721 13.882 63.6556C13.8512 63.5391 13.853 63.4163 13.8873 63.3008L16.0641 55.1217C16.1233 54.9218 16.1258 54.7093 16.0713 54.508C16.0168 54.3068 15.9075 54.1248 15.7557 53.9824C15.5751 53.8202 15.3644 53.6955 15.1357 53.6153C14.907 53.535 14.6647 53.501 14.4228 53.5151C13.8612 53.5143 13.3114 53.6766 12.8397 53.9824C12.6219 54.1032 12.43 54.266 12.2752 54.4615C12.1203 54.6571 12.0056 54.8814 11.9375 55.1217L9.76072 63.3008C9.67558 63.5778 9.49096 63.8131 9.24271 63.961C8.97776 64.1399 8.66569 64.2355 8.34637 64.2356H8.29399C8.15679 64.2437 8.0194 64.2235 7.89028 64.1763C7.76115 64.129 7.64303 64.0558 7.54317 63.961C7.45631 63.8778 7.39404 63.7721 7.36323 63.6556C7.33242 63.5391 7.33426 63.4163 7.36856 63.3008L9.54536 55.1217C9.60802 54.9225 9.61283 54.7096 9.55923 54.5078C9.50562 54.3061 9.39583 54.1238 9.24271 53.9824C8.87561 53.6551 8.39427 53.487 7.90403 53.5151C7.34442 53.5154 6.79678 53.6776 6.32671 53.9824C5.88869 54.23 5.56326 54.6384 5.41874 55.1217L3.24193 63.3008C3.16607 63.5791 2.98418 63.8163 2.73557 63.961C2.47093 64.1406 2.15867 64.2362 1.83924 64.2356C1.70294 64.2436 1.56646 64.2233 1.43829 64.1761C1.31012 64.1288 1.19301 64.0556 1.09424 63.961C1.00738 63.8778 0.945106 63.7721 0.914295 63.6556C0.883484 63.5391 0.885331 63.4163 0.919624 63.3008L3.09061 55.1217C3.40788 54.0873 4.10205 53.2111 5.0346 52.6679C6.03285 52.0016 7.20575 51.6478 8.40458 51.6514C8.95243 51.6185 9.50084 51.706 10.0115 51.9078C10.5222 52.1096 10.9828 52.4209 11.3613 52.8198C12.3969 52.0645 13.6432 51.6556 14.9233 51.6514Z" fill="#1D1D1B"/>
<path d="M20.5865 63.1897C20.2622 62.8754 20.032 62.4762 19.922 62.0374C19.8119 61.5986 19.8264 61.1377 19.9637 60.7067L21.4305 55.1682C21.7443 54.1229 22.441 53.2357 23.3803 52.6853C24.3771 52.0094 25.5531 51.6491 26.7561 51.6512C27.2729 51.6204 27.7906 51.6963 28.2771 51.8742C28.7636 52.052 29.2087 52.3281 29.5848 52.6853C29.9085 53 30.1383 53.3991 30.2483 53.8378C30.3583 54.2764 30.3442 54.7372 30.2075 55.1682L28.735 60.7067C28.42 61.7497 27.7262 62.6359 26.791 63.1897C25.7924 63.8613 24.6172 64.2192 23.4152 64.2179C22.8988 64.2484 22.3817 64.173 21.8954 63.9962C21.409 63.8194 20.9637 63.545 20.5865 63.1897ZM24.6608 53.9998C24.2191 54.2583 23.8923 54.6762 23.747 55.1682L22.2744 60.7067C22.2093 60.9098 22.2027 61.1272 22.2552 61.3338C22.3077 61.5405 22.4172 61.7282 22.5713 61.8752C22.7476 62.0428 22.9564 62.1724 23.1847 62.2558C23.4129 62.3392 23.6558 62.3747 23.8983 62.3601C24.4639 62.3588 25.0166 62.1902 25.4872 61.8752C25.9262 61.6136 26.2521 61.1969 26.401 60.7067L27.8736 55.1682C27.9346 54.9648 27.9392 54.7485 27.8869 54.5426C27.8346 54.3367 27.7274 54.1491 27.5767 53.9998C27.4 53.8327 27.1911 53.7035 26.963 53.6202C26.7348 53.5368 26.4921 53.501 26.2497 53.5149C25.6878 53.5167 25.1389 53.6854 24.6724 53.9998H24.6608Z" fill="#1D1D1B"/>
<path d="M35.9988 64.2181C35.4575 64.1889 35.1548 63.9668 35.0792 63.5579L33.9151 52.8432C33.9093 52.7122 33.9313 52.5816 33.9794 52.4597C34.0276 52.3379 34.1008 52.2277 34.1944 52.1363C34.4133 51.9086 34.6951 51.7519 35.0035 51.6864C35.293 51.6094 35.5997 51.6299 35.8765 51.7448C35.986 51.7939 36.0813 51.87 36.1536 51.966C36.2258 52.0621 36.2727 52.1749 36.2898 52.294L37.157 60.1811L42.5466 52.2765C42.7235 52.0229 42.9763 51.8326 43.2684 51.7332C43.5572 51.626 43.8713 51.6077 44.1705 51.6806C44.294 51.7065 44.4092 51.7627 44.5057 51.8443C44.6022 51.9259 44.677 52.0302 44.7235 52.148C44.7609 52.2683 44.7688 52.396 44.7465 52.5201C44.7242 52.6442 44.6724 52.761 44.5954 52.8607L37.3025 63.5637C37.1544 63.7624 36.9619 63.9235 36.7405 64.0341C36.5192 64.1447 36.2751 64.2017 36.0279 64.2005L35.9988 64.2181Z" fill="#1D1D1B"/>
<path d="M49.1527 64.2179C48.6365 64.2484 48.1194 64.1741 47.6323 63.9994C47.1453 63.8248 46.6984 63.5533 46.3182 63.2013C45.9925 62.8942 45.7605 62.5005 45.6492 62.066C45.5379 61.6316 45.5519 61.1743 45.6896 60.7476L47.1738 55.1215C47.4865 54.0865 48.1793 53.2094 49.112 52.6677C50.1102 52.0014 51.2831 51.6476 52.482 51.6512C52.9982 51.6207 53.5154 51.695 54.0024 51.8697C54.4894 52.0443 54.9363 52.3158 55.3165 52.6677C55.6412 52.9757 55.8737 53.3687 55.9879 53.8022C56.102 54.2358 56.0932 54.6927 55.9625 55.1215L55.7006 56.0913C55.3858 57.1223 54.6932 57.995 53.7624 58.5334C52.7642 59.1997 51.5913 59.5535 50.3925 59.5499H48.3263L48.012 60.7476C47.9498 60.9458 47.9452 61.1578 47.9988 61.3586C48.0524 61.5593 48.162 61.7405 48.3146 61.881C48.4937 62.0461 48.7039 62.1735 48.9328 62.2558C49.1617 62.3381 49.4047 62.3735 49.6475 62.3601H50.2295C50.3663 62.3516 50.5033 62.371 50.6324 62.4172C50.7614 62.4634 50.8798 62.5354 50.9803 62.6288C51.0648 62.7123 51.1243 62.8178 51.1521 62.9334C51.1798 63.0491 51.1748 63.1702 51.1375 63.2831C51.0591 63.5618 50.8753 63.7987 50.6253 63.9433C50.3624 64.1221 50.0523 64.2177 49.7348 64.2179H49.1527ZM50.8988 57.6863C51.4608 57.6894 52.0112 57.5269 52.482 57.2189C52.9151 56.9724 53.2378 56.569 53.3841 56.0913L53.6344 55.1215C53.6971 54.9224 53.7019 54.7094 53.6483 54.5077C53.5947 54.3059 53.4849 54.1236 53.3317 53.9823C52.9664 53.6558 52.4872 53.4878 51.9989 53.5149C51.4373 53.5141 50.8875 53.6764 50.4158 53.9823C49.9809 54.2335 49.6566 54.6405 49.5078 55.1215L48.8326 57.6863H50.8988Z" fill="#1D1D1B"/>
<path d="M70.8335 51.6514C71.348 51.6205 71.8635 51.6946 72.3487 51.8694C72.8339 52.0441 73.2787 52.3158 73.6563 52.668C73.9818 52.9754 74.2144 53.3686 74.3276 53.8025C74.4408 54.2365 74.4301 54.6936 74.2966 55.1217L72.1256 63.3009C72.045 63.5785 71.8618 63.8146 71.6134 63.9611C71.3506 64.1398 71.0404 64.2355 70.7229 64.2356C70.5858 64.243 70.4486 64.2225 70.3195 64.1754C70.1905 64.1282 70.0723 64.0553 69.9721 63.9611C69.8852 63.8778 69.8229 63.7721 69.7921 63.6556C69.7613 63.5392 69.7632 63.4164 69.7975 63.3009L71.9743 55.1217C72.0334 54.9218 72.0359 54.7093 71.9814 54.5081C71.9269 54.3068 71.8176 54.1248 71.6658 53.9825C71.4852 53.8203 71.2745 53.6955 71.0458 53.6153C70.8171 53.5351 70.5748 53.501 70.3329 53.5151C69.7714 53.5143 69.2215 53.6766 68.7498 53.9825C68.532 54.1032 68.3401 54.2661 68.1853 54.4616C68.0304 54.6571 67.9157 54.8815 67.8476 55.1217L65.6708 63.3009C65.5857 63.5778 65.4011 63.8131 65.1528 63.9611C64.8879 64.14 64.5758 64.2356 64.2565 64.2356H64.2041C64.0669 64.2437 63.9295 64.2235 63.8004 64.1763C63.6713 64.1291 63.5532 64.0558 63.4533 63.9611C63.3664 63.8778 63.3042 63.7721 63.2734 63.6556C63.2426 63.5392 63.2444 63.4164 63.2787 63.3009L65.4555 55.1217C65.5182 54.9226 65.523 54.7097 65.4694 54.5079C65.4158 54.3061 65.3059 54.1238 65.1528 53.9825C64.7857 53.6551 64.3044 53.4871 63.8142 53.5151C63.2545 53.5154 62.7069 53.6777 62.2368 53.9825C61.7988 54.2301 61.4734 54.6384 61.3289 55.1217L59.1521 63.3009C59.0762 63.5792 58.8943 63.8163 58.6457 63.9611C58.3811 64.1406 58.0688 64.2363 57.7494 64.2356C57.6131 64.2436 57.4766 64.2234 57.3484 64.1761C57.2202 64.1289 57.1031 64.0557 57.0044 63.9611C56.9175 63.8778 56.8552 63.7721 56.8244 63.6556C56.7936 63.5392 56.7955 63.4164 56.8297 63.3009L59.0007 55.1217C59.318 54.0874 60.0122 53.2112 60.9447 52.668C61.943 52.0016 63.1159 51.6478 64.3147 51.6514C64.8617 51.6182 65.4094 51.7056 65.9192 51.9074C66.4289 52.1093 66.8885 52.4207 67.2656 52.8199C68.3037 52.0651 69.5517 51.6564 70.8335 51.6514Z" fill="#1D1D1B"/>
<path d="M79.3079 64.2182C78.7916 64.2493 78.2743 64.1753 77.7871 64.0006C77.3 63.8259 76.8532 63.5542 76.4734 63.2016C76.1473 62.8947 75.9145 62.5013 75.8022 62.0669C75.6899 61.6326 75.7027 61.1752 75.839 60.7479L77.3232 55.1218C77.6384 54.0863 78.3331 53.2094 79.2671 52.668C80.2636 52.0025 81.4344 51.6487 82.6313 51.6515C83.1476 51.6203 83.6649 51.6943 84.1521 51.869C84.6392 52.0437 85.0861 52.3155 85.4658 52.668C85.7928 52.9744 86.0269 53.3673 86.1412 53.8014C86.2555 54.2355 86.2454 54.6932 86.1119 55.1218L85.8499 56.0916C85.5352 57.1225 84.8425 57.9953 83.9118 58.5337C82.9135 59.2 81.7406 59.5538 80.5418 59.5502H78.4814L78.1671 60.7479C78.102 60.9454 78.0954 61.1576 78.1481 61.3587C78.2008 61.5599 78.3105 61.7414 78.464 61.8813C78.6445 62.046 78.8557 62.1732 79.0855 62.2554C79.3153 62.3376 79.559 62.3733 79.8026 62.3603H80.3847C80.5214 62.3515 80.6586 62.3707 80.7877 62.417C80.9168 62.4632 81.0352 62.5353 81.1355 62.6291C81.2224 62.7109 81.2835 62.8164 81.3114 62.9327C81.3394 63.0489 81.3328 63.1708 81.2926 63.2834C81.2145 63.5606 81.0332 63.7969 80.7863 63.9436C80.5213 64.1225 80.2093 64.2181 79.8899 64.2182H79.3079ZM81.054 57.6865C81.6161 57.6911 82.167 57.5284 82.6371 57.2191C83.0732 56.9748 83.3985 56.5708 83.5451 56.0916L83.7954 55.1218C83.858 54.9226 83.8628 54.7097 83.8092 54.5079C83.7556 54.3062 83.6458 54.1239 83.4927 53.9825C83.1253 53.6557 82.6442 53.4878 82.154 53.5152C81.5944 53.5155 81.0468 53.6778 80.5767 53.9825C80.1387 54.2301 79.8133 54.6385 79.6688 55.1218L78.9936 57.6865H81.054Z" fill="#1D1D1B"/>
<path d="M93.6085 63.9438C93.5219 63.8604 93.4607 63.7542 93.4318 63.6373C93.403 63.5205 93.4077 63.3978 93.4455 63.2836L95.6223 55.1044C95.6815 54.9045 95.6839 54.692 95.6294 54.4908C95.575 54.2895 95.4656 54.1075 95.3138 53.9652C95.1313 53.8024 94.9186 53.6773 94.6879 53.5971C94.4572 53.5169 94.213 53.4831 93.9693 53.4978C93.4077 53.497 92.8579 53.6593 92.3862 53.9652C91.9513 54.2165 91.627 54.6234 91.4782 55.1044L89.3247 63.2836C89.2352 63.5599 89.0491 63.7944 88.8009 63.9438C88.5355 64.1217 88.2237 64.2172 87.9045 64.2183C87.7674 64.2257 87.6302 64.2052 87.5012 64.158C87.3721 64.1109 87.254 64.038 87.1537 63.9438C87.0682 63.8598 87.008 63.7532 86.9802 63.6364C86.9524 63.5196 86.9581 63.3973 86.9965 63.2836L89.1559 55.1044C89.4686 54.0694 90.1614 53.1923 91.0941 52.6507C92.0923 51.9843 93.2652 51.6305 94.464 51.6341C94.9803 51.6036 95.4974 51.6779 95.9844 51.8526C96.4715 52.0272 96.9184 52.2987 97.2985 52.6507C97.6255 52.9571 97.8597 53.3499 97.974 53.7841C98.0883 54.2182 98.0781 54.6759 97.9446 55.1044L95.7736 63.2836C95.6841 63.5599 95.4981 63.7944 95.2498 63.9438C94.9848 64.1227 94.6728 64.2183 94.3535 64.2183C94.2172 64.2263 94.0807 64.206 93.9525 64.1588C93.8243 64.1116 93.7072 64.0384 93.6085 63.9438Z" fill="#1D1D1B"/>
<path d="M104.027 62.3601C104.164 62.3516 104.301 62.371 104.43 62.4172C104.559 62.4634 104.677 62.5354 104.778 62.6288C104.864 62.7114 104.925 62.8164 104.955 62.9319C104.985 63.0475 104.982 63.1691 104.946 63.2832C104.861 63.5601 104.677 63.7954 104.428 63.9434C104.163 64.1213 103.851 64.2168 103.532 64.2179H102.95C102.434 64.2491 101.916 64.1751 101.429 64.0004C100.942 63.8257 100.495 63.5539 100.116 63.2014C99.7894 62.8945 99.5567 62.501 99.4444 62.0667C99.3321 61.6324 99.3449 61.175 99.4812 60.7476L102.508 49.3728C102.59 49.0977 102.77 48.8627 103.014 48.7126C103.28 48.5346 103.591 48.4391 103.91 48.438C104.048 48.4306 104.185 48.4511 104.314 48.4983C104.443 48.5455 104.561 48.6184 104.661 48.7126C104.746 48.7972 104.806 48.9032 104.836 49.0194C104.866 49.1356 104.864 49.2577 104.83 49.3728L104.248 51.6337H106.489C106.626 51.6242 106.764 51.6437 106.893 51.691C107.023 51.7383 107.141 51.8123 107.24 51.9083C107.326 51.9915 107.387 52.098 107.415 52.2151C107.443 52.3322 107.437 52.4549 107.397 52.5685C107.319 52.844 107.137 53.0785 106.89 53.2228C106.625 53.4006 106.313 53.4943 105.994 53.4915H103.753L101.827 60.7476C101.765 60.9459 101.76 61.1578 101.814 61.3586C101.867 61.5594 101.977 61.7406 102.129 61.881C102.31 62.0463 102.521 62.1738 102.751 62.2561C102.981 62.3383 103.224 62.3737 103.468 62.3601H104.027Z" fill="#1D1D1B"/>
<path d="M117.134 63.3769C116.817 63.1594 116.576 62.8468 116.447 62.4837C116.317 62.1207 116.305 61.7258 116.413 61.3555L116.634 60.5551C116.712 60.2779 116.893 60.0416 117.14 59.8949C117.407 59.7203 117.718 59.6269 118.036 59.6262C118.173 59.619 118.31 59.639 118.439 59.6852C118.567 59.7313 118.686 59.8026 118.787 59.8949C118.872 59.9795 118.932 60.0855 118.962 60.2017C118.992 60.3179 118.99 60.44 118.956 60.5551L118.735 61.3555C118.671 61.5892 118.793 61.817 119.107 62.0332C119.515 62.2749 119.985 62.3888 120.458 62.3604C120.977 62.3721 121.492 62.2599 121.959 62.0332C122.39 61.817 122.634 61.5892 122.699 61.3555L123.205 59.4509L117.28 58.1714L118.217 54.6018C118.367 54.1502 118.606 53.7339 118.922 53.3784C119.237 53.0228 119.621 52.7354 120.05 52.5337C121.07 51.9642 122.219 51.6703 123.385 51.6807C124.413 51.6257 125.428 51.9269 126.261 52.5337C126.585 52.7566 126.831 53.0764 126.963 53.4477C127.096 53.819 127.109 54.2229 127 54.6018L126.715 55.671C126.623 55.9463 126.438 56.1802 126.191 56.3311C125.926 56.5101 125.614 56.6057 125.294 56.6057C125.158 56.6137 125.022 56.5934 124.893 56.5462C124.765 56.499 124.648 56.4258 124.549 56.3311C124.463 56.2474 124.403 56.1412 124.374 56.0245C124.345 55.9078 124.349 55.7853 124.386 55.671L124.666 54.6018C124.736 54.3506 124.613 54.1111 124.287 53.8832C123.867 53.6313 123.38 53.5132 122.891 53.5444C122.343 53.5284 121.8 53.6446 121.307 53.8832C120.865 54.1091 120.609 54.3487 120.539 54.6018L119.986 56.7284L125.9 58.0371L125.021 61.3847C124.872 61.826 124.637 62.2325 124.327 62.5799C124.018 62.9273 123.642 63.2083 123.222 63.4061C122.226 63.9688 121.1 64.2589 119.957 64.2474C118.944 64.2947 117.946 63.987 117.134 63.3769Z" fill="#1D1D1B"/>
<path d="M132.948 62.3604C133.085 62.3519 133.222 62.3713 133.351 62.4175C133.48 62.4637 133.598 62.5357 133.699 62.6291C133.784 62.7124 133.844 62.8174 133.874 62.9327C133.904 63.048 133.902 63.1693 133.868 63.2834C133.781 63.5613 133.594 63.7968 133.344 63.9436C133.081 64.1224 132.771 64.218 132.453 64.2182H131.871C131.355 64.2487 130.838 64.1744 130.351 63.9997C129.864 63.8251 129.417 63.5536 129.037 63.2016C128.711 62.8945 128.479 62.5008 128.368 62.0663C128.256 61.6319 128.271 61.1747 128.408 60.7479L131.429 49.373C131.513 49.097 131.695 48.8619 131.941 48.7128C132.204 48.5341 132.514 48.4384 132.832 48.4383C132.969 48.4302 133.106 48.4504 133.235 48.4976C133.365 48.5448 133.483 48.6181 133.583 48.7128C133.669 48.7964 133.731 48.9021 133.761 49.0185C133.792 49.1349 133.791 49.2575 133.757 49.373L133.175 51.634H135.404C135.542 51.6252 135.679 51.6451 135.808 51.6923C135.938 51.7396 136.056 51.8132 136.155 51.9086C136.242 51.9917 136.303 52.0983 136.331 52.2154C136.359 52.3325 136.352 52.4552 136.312 52.5687C136.234 52.8458 136.05 53.0808 135.8 53.2231C135.537 53.4001 135.226 53.4937 134.91 53.4918H132.669L130.748 60.7479C130.686 60.9462 130.681 61.1581 130.735 61.3589C130.789 61.5596 130.898 61.7409 131.051 61.8813C131.23 62.0461 131.44 62.1734 131.669 62.2556C131.898 62.3379 132.141 62.3735 132.384 62.3604H132.948Z" fill="#1D1D1B"/>
<path d="M137.82 63.2017C137.493 62.8949 137.26 62.502 137.145 62.068C137.031 61.6341 137.041 61.1766 137.174 60.748L139.345 52.5688C139.433 52.2931 139.619 52.0599 139.869 51.9145C140.133 51.7349 140.445 51.6392 140.765 51.6399C140.901 51.6319 141.038 51.6522 141.166 51.6994C141.294 51.7466 141.411 51.8198 141.51 51.9145C141.6 51.9939 141.664 52.0995 141.692 52.2166C141.72 52.3338 141.711 52.4568 141.667 52.5688L139.496 60.748C139.437 60.947 139.435 61.1585 139.49 61.3587C139.544 61.5589 139.653 61.7399 139.804 61.8814C139.985 62.0473 140.197 62.1752 140.428 62.2575C140.659 62.3398 140.904 62.3748 141.149 62.3604C141.712 62.3577 142.262 62.1913 142.732 61.8814C143.166 61.6326 143.488 61.2272 143.634 60.748L145.794 52.5688C145.881 52.2931 146.068 52.0599 146.317 51.9145C146.582 51.7355 146.894 51.6399 147.214 51.6399C147.351 51.6325 147.488 51.653 147.617 51.7002C147.746 51.7474 147.864 51.8203 147.965 51.9145C148.049 51.9979 148.109 52.1034 148.136 52.2191C148.164 52.3347 148.159 52.4559 148.122 52.5688L145.962 60.748C145.647 61.7813 144.955 62.6574 144.024 63.2017C143.026 63.8674 141.853 64.2212 140.654 64.2183C140.138 64.2494 139.621 64.1754 139.134 64.0007C138.646 63.826 138.2 63.5542 137.82 63.2017Z" fill="#1D1D1B"/>
<path d="M159.896 48.438C160.033 48.4295 160.17 48.4489 160.299 48.4951C160.428 48.5413 160.547 48.6133 160.647 48.7067C160.733 48.7894 160.793 48.8949 160.821 49.0109C160.849 49.1268 160.843 49.2483 160.804 49.3611L157.12 63.2832C157.03 63.5595 156.844 63.794 156.596 63.9433C156.331 64.1223 156.019 64.2179 155.7 64.2179C155.52 64.2384 155.338 64.2028 155.179 64.1161C155.019 64.0294 154.89 63.8956 154.809 63.733C154.072 64.0447 153.281 64.2056 152.481 64.2062C151.965 64.2368 151.448 64.1613 150.961 63.9845C150.475 63.8077 150.03 63.5333 149.652 63.178C149.325 62.8658 149.092 62.4672 148.98 62.0281C148.867 61.5889 148.881 61.1269 149.018 60.6951L150.491 55.1566C150.802 54.1117 151.497 53.2243 152.435 52.6736C153.432 51.9994 154.608 51.6412 155.81 51.6454C156.486 51.6269 157.156 51.7691 157.766 52.0602L158.482 49.3611C158.568 49.0863 158.753 48.8533 159 48.7067C159.266 48.5302 159.578 48.4367 159.896 48.438ZM152.976 62.3484C153.54 62.3495 154.092 62.1806 154.559 61.8635C154.999 61.6017 155.327 61.1854 155.479 60.6951L156.951 55.1566C157.016 54.953 157.021 54.7353 156.968 54.5286C156.914 54.3218 156.804 54.1345 156.649 53.9881C156.471 53.8209 156.261 53.6917 156.032 53.6083C155.803 53.5249 155.559 53.4892 155.316 53.5032C154.752 53.5028 154.2 53.6717 153.733 53.9881C153.294 54.2516 152.967 54.6673 152.813 55.1566L151.358 60.6951C151.288 60.8966 151.277 61.1143 151.328 61.3217C151.379 61.5291 151.488 61.7173 151.643 61.8635C151.821 62.0302 152.031 62.159 152.26 62.2424C152.489 62.3257 152.733 62.3618 152.976 62.3484Z" fill="#1D1D1B"/>
<path d="M160.321 63.9437C160.234 63.8605 160.172 63.7548 160.141 63.6383C160.11 63.5218 160.112 63.3991 160.147 63.2836L162.981 52.5922C163.068 52.3144 163.254 52.0789 163.505 51.9321C163.769 51.7576 164.079 51.6642 164.395 51.6633C164.532 51.6561 164.669 51.6762 164.798 51.7223C164.926 51.7684 165.045 51.8397 165.146 51.9321C165.233 52.0153 165.295 52.121 165.326 52.2375C165.357 52.354 165.355 52.4767 165.321 52.5922L162.469 63.2836C162.391 63.5607 162.209 63.7971 161.962 63.9437C161.698 64.1233 161.386 64.219 161.066 64.2183C160.93 64.2263 160.793 64.206 160.665 64.1588C160.537 64.1116 160.42 64.0384 160.321 63.9437ZM163.866 50.5767C163.78 50.4941 163.719 50.3891 163.689 50.2736C163.659 50.158 163.662 50.0364 163.697 49.9223L164.133 48.269C164.223 47.9926 164.409 47.7582 164.657 47.6088C164.922 47.4292 165.234 47.3336 165.554 47.3342C165.69 47.3262 165.826 47.3465 165.955 47.3937C166.083 47.441 166.2 47.5142 166.299 47.6088C166.385 47.6921 166.446 47.7984 166.475 47.9152C166.504 48.0321 166.499 48.1547 166.462 48.269L166.031 49.9223C165.944 50.1971 165.76 50.4301 165.513 50.5767C165.247 50.7532 164.935 50.8467 164.617 50.8454C164.48 50.8539 164.343 50.8345 164.214 50.7883C164.085 50.7421 163.966 50.6701 163.866 50.5767Z" fill="#1D1D1B"/>
<path d="M166.834 63.1898C166.509 62.8761 166.278 62.4773 166.166 62.0384C166.055 61.5996 166.069 61.1383 166.206 60.7068L167.678 55.1683C167.991 54.1245 168.686 53.2378 169.622 52.6854C170.621 52.0093 171.799 51.6491 173.004 51.6513C173.52 51.6203 174.037 51.6961 174.522 51.874C175.008 52.0519 175.452 52.328 175.827 52.6854C176.152 52.999 176.383 53.3979 176.494 53.8367C176.605 54.2756 176.592 54.7368 176.455 55.1683L174.983 60.7068C174.667 61.7513 173.971 62.638 173.033 63.1898C172.035 63.8623 170.859 64.2204 169.657 64.218C169.142 64.2481 168.625 64.1724 168.14 63.9956C167.655 63.8188 167.21 63.5446 166.834 63.1898ZM170.908 53.9999C170.465 54.2582 170.137 54.6759 169.989 55.1683L168.522 60.7068C168.46 60.9097 168.455 61.1257 168.506 61.3316C168.557 61.5374 168.663 61.7254 168.813 61.8753C168.99 62.0421 169.199 62.1711 169.427 62.2544C169.655 62.3378 169.898 62.3737 170.14 62.3602C170.706 62.3607 171.259 62.1919 171.729 61.8753C172.171 61.6172 172.498 61.1991 172.643 60.7068L174.115 55.1683C174.177 54.9654 174.183 54.7494 174.131 54.5436C174.08 54.3377 173.974 54.1498 173.824 53.9999C173.647 53.8326 173.437 53.7034 173.208 53.62C172.978 53.5367 172.735 53.5009 172.491 53.515C171.928 53.5156 171.377 53.6844 170.908 53.9999Z" fill="#1D1D1B"/>
<path d="M278.823 0H187.182V64.2181H278.823V0Z" fill="#ED6D64"/>
<path d="M193.212 49.0458H206.412L226.801 15.1724H213.816L193.212 49.0458Z" fill="white"/>
<path d="M215.911 49.0458H229.106L249.5 15.1724H236.515L215.911 49.0458Z" fill="white"/>
<path d="M239.204 49.0458H252.405L272.793 15.1724H259.808L239.204 49.0458Z" fill="white"/>
<path d="M215.911 49.0458V15.1724H226.801L226.446 49.0458H215.911Z" fill="white"/>
<path d="M238.61 49.0458V15.1724H249.5L249.145 49.0458H238.61Z" fill="white"/>
</g>
<defs>
<clipPath id="clip0_37_1498">
<rect width="281" height="108" fill="white"/>
</clipPath>
</defs>
</svg>
