<svg width="335" height="58" viewBox="0 0 335 58" fill="none" xmlns="http://www.w3.org/2000/svg">
<g clip-path="url(#clip0_34_204)">
<mask id="mask0_34_204" style="mask-type:luminance" maskUnits="userSpaceOnUse" x="0" y="0" width="335" height="58">
<path d="M335 0H0V58H335V0Z" fill="white"/>
</mask>
<g mask="url(#mask0_34_204)">
<path d="M25.7531 28.1799H19.5211C19.4402 28.1747 19.3591 28.1863 19.2828 28.2139C19.2065 28.2415 19.1367 28.2845 19.0778 28.3402C18.9603 28.4606 18.8866 28.6169 18.8684 28.7842L17.2427 42.35C17.238 42.39 17.2246 42.4284 17.2033 42.4625C17.182 42.4967 17.1534 42.5256 17.1195 42.5473C17.1195 42.5473 17.0086 42.5473 16.9594 42.4363L10.6904 28.6485C10.633 28.5139 10.5335 28.4015 10.407 28.3282C10.2805 28.2548 10.1336 28.2244 9.98842 28.2415H4.03972C3.95878 28.2364 3.87763 28.248 3.80135 28.2755C3.72507 28.3031 3.65529 28.3461 3.59632 28.4019C3.48321 28.5252 3.41022 28.68 3.38696 28.8459L0.0123242 56.1748C-0.00620104 56.2534 -0.00697679 56.3352 0.010069 56.4141C0.0271148 56.493 0.0615545 56.5672 0.110856 56.6311C0.167958 56.6859 0.235659 56.7284 0.309798 56.7559C0.383938 56.7835 0.462933 56.7956 0.541911 56.7914H6.77391C6.94368 56.7934 7.10891 56.7368 7.2419 56.6311C7.36995 56.5119 7.44903 56.3492 7.46362 56.1748L9.01543 42.609C9.01543 42.5103 9.07702 42.4363 9.1386 42.4117C9.20018 42.387 9.24945 42.4117 9.29871 42.535L15.6539 56.3598C15.7023 56.4904 15.7926 56.6013 15.9108 56.675C16.0289 56.7486 16.1682 56.7809 16.3066 56.7668H22.2553C22.4251 56.7687 22.5904 56.7121 22.7233 56.6064C22.8514 56.4873 22.9304 56.3246 22.945 56.1501L26.2827 28.8212C26.3039 28.7443 26.3057 28.6634 26.2879 28.5857C26.2701 28.508 26.2332 28.4359 26.1807 28.376C26.1282 28.316 26.0616 28.2701 25.987 28.2424C25.9124 28.2146 25.832 28.2058 25.7531 28.2169" fill="#1D1D1B"/>
<path d="M50.8042 28.1799H31.9482C31.8672 28.174 31.7858 28.1852 31.7094 28.2128C31.633 28.2404 31.5633 28.2838 31.5048 28.3402C31.3874 28.4606 31.3137 28.6169 31.2954 28.7842L27.9208 56.1131C27.8993 56.1915 27.8971 56.2739 27.9143 56.3533C27.9314 56.4328 27.9675 56.5069 28.0193 56.5694C28.0736 56.6245 28.1391 56.6673 28.2113 56.695C28.2836 56.7226 28.3609 56.7345 28.438 56.7298H47.3064C47.4642 56.7273 47.6163 56.6707 47.7375 56.5694C47.8611 56.447 47.9393 56.2861 47.9592 56.1131L48.612 50.7731C48.6324 50.6957 48.6337 50.6145 48.6158 50.5365C48.5979 50.4584 48.5613 50.386 48.5092 50.3252C48.4571 50.2645 48.391 50.2175 48.3166 50.1881C48.2422 50.1587 48.1618 50.1478 48.0823 50.1565H36.3081C36.1726 50.1565 36.0987 50.0825 36.0987 49.9098L36.6652 45.7538C36.6613 45.7204 36.6649 45.6866 36.6759 45.6549C36.6869 45.6232 36.7049 45.5943 36.7286 45.5706C36.7523 45.5468 36.7811 45.5288 36.8128 45.5178C36.8445 45.5068 36.8783 45.5032 36.9116 45.5071H44.2027C44.2856 45.5133 44.3689 45.5022 44.4473 45.4746C44.5257 45.447 44.5976 45.4035 44.6584 45.3468C44.7671 45.2219 44.8357 45.0672 44.8555 44.9028L45.5083 39.5998C45.5236 39.5211 45.5227 39.44 45.5058 39.3615C45.4889 39.2831 45.4562 39.2089 45.4097 39.1435C45.3608 39.0883 45.2997 39.0451 45.2314 39.0173C45.163 38.9895 45.0892 38.9778 45.0156 38.9832H37.7244C37.5643 38.9832 37.5028 38.8969 37.5274 38.7366L37.9708 35.0368C38.0323 34.8765 38.1186 34.7901 38.254 34.7901H50.0283C50.1094 34.7977 50.1912 34.7872 50.2679 34.7595C50.3445 34.7318 50.4141 34.6875 50.4717 34.6298C50.5916 34.5062 50.6655 34.3451 50.6811 34.1735L51.3338 28.8335C51.3481 28.7567 51.3468 28.6777 51.3298 28.6014C51.3129 28.5252 51.2807 28.4531 51.2353 28.3895C51.1852 28.3357 51.124 28.2935 51.0559 28.2658C50.9878 28.2381 50.9146 28.2256 50.8412 28.2292" fill="#1D1D1B"/>
<path d="M89.8712 28.1799H83.1465C82.9854 28.1621 82.8237 28.2074 82.6952 28.3062C82.5667 28.405 82.4812 28.5498 82.4568 28.7102L77.8998 41.8814C77.8998 41.9923 77.8136 42.0417 77.7274 42.0417C77.6412 42.0417 77.5919 42.0417 77.5673 41.8814L76.2618 28.7102C76.2619 28.6373 76.2471 28.5652 76.2182 28.4983C76.1893 28.4314 76.147 28.3712 76.0938 28.3215C76.0407 28.2717 75.9778 28.2335 75.9092 28.2091C75.8407 28.1848 75.7678 28.1748 75.6952 28.1799H69.9189C69.753 28.1661 69.5875 28.2119 69.4522 28.3091C69.3168 28.4062 69.2203 28.5484 69.18 28.7102L64.9925 41.8814C64.9925 41.9923 64.9062 42.0417 64.8324 42.0417C64.7585 42.0417 64.7092 42.0417 64.7092 41.8814L62.9973 28.7102C62.9973 28.3525 62.7509 28.1799 62.4307 28.1799H55.7061C55.5581 28.1701 55.4122 28.2188 55.2996 28.3155C55.243 28.364 55.198 28.4247 55.1681 28.493C55.1383 28.5614 55.1243 28.6356 55.1272 28.7102V28.8705L59.6103 56.1994C59.6313 56.3482 59.7057 56.4841 59.8197 56.5818C59.9196 56.6762 60.0517 56.7291 60.1892 56.7297H66.0886C66.4212 56.7297 66.6429 56.5324 66.7783 56.1501L70.9781 42.2883C70.9781 42.1773 71.089 42.128 71.1629 42.128C71.2368 42.128 71.2614 42.128 71.2614 42.2883L72.3698 56.1994C72.3691 56.2758 72.3848 56.3514 72.4159 56.421C72.447 56.4907 72.4928 56.5529 72.5501 56.6032C72.6074 56.6536 72.6749 56.6909 72.7479 56.7128C72.821 56.7346 72.8979 56.7404 72.9734 56.7297H79.2915C79.4482 56.7276 79.6001 56.6749 79.7244 56.5793C79.8487 56.4837 79.9388 56.3505 79.9813 56.1994L90.3638 28.8705C90.4069 28.791 90.4295 28.702 90.4295 28.6115C90.4295 28.5211 90.4069 28.432 90.3638 28.3525C90.2899 28.2292 90.1421 28.1799 89.9204 28.1799" fill="#1D1D1B"/>
<path d="M117.25 28.1799H110.649C110.491 28.1778 110.337 28.229 110.212 28.3252C110.087 28.4214 109.998 28.557 109.959 28.7102L104.084 45.7908C104.084 45.9018 103.998 45.9634 103.899 45.9634C103.801 45.9634 103.764 45.9634 103.764 45.7908L101.941 28.7102C101.941 28.6373 101.926 28.5652 101.897 28.4983C101.869 28.4314 101.826 28.3712 101.773 28.3215C101.72 28.2717 101.657 28.2335 101.588 28.2091C101.52 28.1848 101.447 28.1748 101.374 28.1799H94.5513C94.4033 28.1701 94.2574 28.2188 94.1449 28.3155C94.0882 28.364 94.0432 28.4247 94.0134 28.493C93.9835 28.5614 93.9695 28.6356 93.9724 28.7102V28.8705L98.4186 56.1994C98.4411 56.3449 98.5102 56.4791 98.6156 56.5818C98.7156 56.6762 98.8477 56.7291 98.9851 56.7297H105.673C105.84 56.7283 106.003 56.6768 106.141 56.5818C106.282 56.4941 106.387 56.3584 106.436 56.1994L117.644 28.8705C117.687 28.791 117.71 28.702 117.71 28.6115C117.71 28.5211 117.687 28.432 117.644 28.3525C117.591 28.2886 117.522 28.2393 117.445 28.2091C117.367 28.1789 117.283 28.1688 117.201 28.1799" fill="#1D1D1B"/>
<path d="M129.037 28.1799H122.805C122.724 28.1747 122.643 28.1863 122.566 28.2139C122.49 28.2415 122.42 28.2845 122.361 28.3402C122.244 28.4606 122.17 28.6169 122.152 28.7842L118.777 56.1131C118.756 56.1915 118.754 56.2739 118.771 56.3533C118.788 56.4328 118.824 56.5069 118.876 56.5694C118.933 56.6242 119.001 56.6667 119.075 56.6943C119.149 56.7219 119.228 56.7339 119.307 56.7298H125.539C125.709 56.7317 125.874 56.6751 126.007 56.5694C126.135 56.4503 126.214 56.2876 126.229 56.1131L129.566 28.7842C129.587 28.7073 129.589 28.6264 129.571 28.5487C129.554 28.471 129.517 28.3989 129.464 28.339C129.412 28.279 129.345 28.2331 129.27 28.2054C129.196 28.1776 129.115 28.1688 129.037 28.1799Z" fill="#1D1D1B"/>
<path d="M151.711 50.1935H139.53C139.394 50.1935 139.321 50.1195 139.321 49.9468L141.932 28.8212C141.946 28.7443 141.945 28.6654 141.928 28.5891C141.911 28.5128 141.879 28.4407 141.833 28.3772C141.777 28.3211 141.709 28.2778 141.635 28.2502C141.561 28.2225 141.481 28.2112 141.402 28.2169H135.195C135.114 28.211 135.032 28.2222 134.956 28.2498C134.88 28.2774 134.81 28.3208 134.751 28.3772C134.634 28.4976 134.56 28.6539 134.542 28.8212L131.167 56.1501C131.146 56.2285 131.144 56.3109 131.161 56.3903C131.178 56.4698 131.214 56.5439 131.266 56.6064C131.321 56.6603 131.387 56.7023 131.459 56.7298C131.531 56.7574 131.608 56.77 131.685 56.7667H150.922C151.092 56.7687 151.257 56.7121 151.39 56.6064C151.518 56.4873 151.598 56.3246 151.612 56.1501L152.265 50.8101C152.282 50.7326 152.28 50.6522 152.261 50.5752C152.242 50.4982 152.205 50.4267 152.154 50.3661C152.102 50.3075 152.037 50.2614 151.965 50.2315C151.892 50.2016 151.814 50.1886 151.735 50.1935" fill="#1D1D1B"/>
<path d="M176.306 50.1935H164.125C163.99 50.1935 163.928 50.1195 163.928 49.9468L166.539 28.8212C166.555 28.7436 166.553 28.6634 166.534 28.5866C166.515 28.5098 166.479 28.4382 166.428 28.3772C166.376 28.32 166.311 28.2758 166.238 28.248C166.165 28.2202 166.087 28.2095 166.01 28.2169H159.827C159.744 28.2107 159.661 28.2218 159.582 28.2494C159.504 28.277 159.432 28.3205 159.371 28.3772C159.258 28.4988 159.188 28.6552 159.174 28.8212L155.787 56.1501C155.764 56.2277 155.76 56.3101 155.776 56.3896C155.793 56.4691 155.83 56.543 155.882 56.6046C155.935 56.6661 156.003 56.7133 156.079 56.7416C156.155 56.77 156.237 56.7786 156.317 56.7667H175.542C175.713 56.7708 175.879 56.714 176.011 56.6064C176.139 56.4873 176.218 56.3246 176.232 56.1501L176.885 50.8101C176.906 50.7337 176.909 50.6532 176.891 50.5757C176.874 50.4983 176.838 50.4263 176.786 50.3661C176.732 50.3072 176.665 50.2611 176.59 50.2313C176.516 50.2014 176.435 50.1885 176.355 50.1935" fill="#1D1D1B"/>
<path d="M196.431 46.9747H191.59C191.455 46.9747 191.393 46.8884 191.418 46.6911L194.965 37.676C195.027 37.565 195.076 37.5156 195.15 37.5156C195.224 37.5156 195.261 37.5156 195.298 37.676L196.677 46.6911C196.677 46.8884 196.591 46.9747 196.431 46.9747ZM200.544 28.1799H192.157C191.999 28.17 191.841 28.2114 191.708 28.298C191.575 28.3846 191.473 28.5119 191.418 28.6609L179.73 56.0391C179.57 56.4954 179.73 56.7298 180.186 56.7298H186.923C187.088 56.741 187.252 56.6943 187.387 56.5975C187.522 56.5008 187.619 56.36 187.662 56.1995L188.893 53.0547C188.921 52.9988 188.963 52.9512 189.015 52.9166C189.067 52.882 189.127 52.8615 189.189 52.8573H197.453C197.482 52.8539 197.512 52.8563 197.54 52.8644C197.568 52.8725 197.594 52.8861 197.617 52.9045C197.64 52.9228 197.659 52.9455 197.673 52.9713C197.687 52.9971 197.696 53.0254 197.699 53.0547L198.143 56.1995C198.144 56.2764 198.161 56.3522 198.194 56.4218C198.226 56.4915 198.273 56.5535 198.331 56.6036C198.389 56.6538 198.458 56.6909 198.531 56.7127C198.605 56.7344 198.682 56.7403 198.758 56.7298H205.52C205.926 56.7298 206.124 56.5448 206.124 56.1995V56.0391L201.197 28.6609C201.173 28.5182 201.096 28.3897 200.982 28.3007C200.868 28.2117 200.725 28.1686 200.581 28.1799" fill="#1D1D1B"/>
<path d="M228.514 28.9445C226.901 28.1858 225.135 27.8102 223.354 27.8469C221.314 27.8322 219.299 28.3058 217.479 29.2282C215.755 30.0693 214.278 31.3441 213.193 32.9279C212.075 34.619 211.371 36.5497 211.136 38.5639L210.2 46.2717C210.138 46.8121 210.109 47.3557 210.114 47.8996C210.053 49.1312 210.252 50.3619 210.698 51.5114C211.143 52.661 211.826 53.7036 212.7 54.5716C214.641 56.293 217.181 57.1793 219.77 57.0381C221.795 57.069 223.8 56.6211 225.62 55.7308C227.34 54.8879 228.812 53.6132 229.894 52.031C231.006 50.4315 231.7 48.5788 231.914 46.6417L232.603 41.0551C232.622 40.9784 232.622 40.8986 232.605 40.8217C232.588 40.7447 232.554 40.6727 232.505 40.6111C232.45 40.5521 232.383 40.5061 232.309 40.4762C232.234 40.4463 232.154 40.4334 232.074 40.4384H221.765C221.608 40.4394 221.458 40.5013 221.346 40.6111C221.218 40.725 221.139 40.884 221.125 41.0551L220.509 45.9881C220.488 46.0649 220.486 46.1459 220.504 46.2236C220.521 46.3013 220.558 46.3734 220.611 46.4333C220.663 46.4932 220.73 46.5392 220.805 46.5669C220.879 46.5947 220.96 46.6034 221.038 46.5924H224.462C224.647 46.5924 224.721 46.6787 224.659 46.839V47.3323C224.623 47.7808 224.495 48.2169 224.283 48.6136C224.071 49.0104 223.78 49.3592 223.428 49.6385C222.728 50.1936 221.858 50.4898 220.965 50.4771C220.472 50.4689 219.986 50.355 219.541 50.1431C219.096 49.9312 218.702 49.6263 218.384 49.2488C218.067 48.8713 217.834 48.4301 217.701 47.9548C217.568 47.4796 217.539 46.9814 217.615 46.4937L218.587 38.3296C218.676 37.2489 219.137 36.2327 219.893 35.4561C220.247 35.1042 220.668 34.8277 221.132 34.6433C221.596 34.4589 222.092 34.3704 222.59 34.3832C223.048 34.3416 223.51 34.408 223.937 34.5772C224.365 34.7464 224.747 35.0136 225.053 35.3574C225.319 35.6787 225.514 36.0521 225.626 36.4536C225.739 36.8551 225.766 37.2757 225.706 37.6883C225.706 37.9226 225.854 38.0459 226.236 38.0459H232.468C232.545 38.0484 232.621 38.0355 232.693 38.008C232.765 37.9805 232.831 37.9389 232.887 37.8856C233.011 37.7676 233.094 37.6115 233.121 37.4416C233.121 36.899 233.194 36.5167 233.194 36.307C233.201 34.7842 232.774 33.2911 231.963 32.003C231.131 30.6844 229.944 29.6284 228.539 28.9568" fill="#1D1D1B"/>
<path d="M258.701 28.3402C258.651 28.2864 258.59 28.2441 258.522 28.2165C258.454 28.1888 258.381 28.1763 258.307 28.1799H239.451C239.368 28.1737 239.285 28.1848 239.207 28.2124C239.128 28.24 239.056 28.2835 238.995 28.3402C238.887 28.4651 238.818 28.6198 238.798 28.7842L235.411 56.1131C235.391 56.1905 235.39 56.2717 235.408 56.3498C235.425 56.4278 235.462 56.5003 235.514 56.561C235.566 56.6217 235.632 56.6688 235.707 56.6982C235.781 56.7276 235.862 56.7384 235.941 56.7297H254.809C254.967 56.7273 255.119 56.6707 255.24 56.5694C255.364 56.447 255.442 56.2861 255.462 56.1131L256.115 50.7731C256.132 50.6956 256.13 50.6152 256.111 50.5382C256.092 50.4612 256.055 50.3897 256.004 50.3291C255.952 50.2705 255.887 50.2244 255.815 50.1945C255.742 50.1646 255.664 50.1516 255.585 50.1565H243.811C243.676 50.1565 243.602 50.0825 243.602 49.9098L244.131 45.7538C244.127 45.7204 244.131 45.6866 244.142 45.6549C244.153 45.6232 244.171 45.5943 244.195 45.5706C244.218 45.5468 244.247 45.5288 244.279 45.5178C244.311 45.5068 244.344 45.5032 244.378 45.5071H251.669C251.752 45.5133 251.835 45.5022 251.913 45.4746C251.992 45.447 252.064 45.4035 252.124 45.3468C252.233 45.2219 252.302 45.0672 252.322 44.9028L252.974 39.5998C252.99 39.5211 252.989 39.44 252.972 39.3615C252.955 39.2831 252.922 39.2089 252.876 39.1435C252.824 39.0916 252.763 39.0506 252.695 39.023C252.627 38.9955 252.555 38.9819 252.482 38.9832H245.19C245.03 38.9832 244.956 38.8969 244.993 38.7365L245.437 35.0368C245.448 34.9692 245.483 34.9076 245.534 34.8626C245.586 34.8177 245.652 34.792 245.72 34.7901H257.494C257.575 34.7977 257.657 34.7872 257.734 34.7595C257.811 34.7318 257.88 34.6875 257.938 34.6298C258.058 34.5062 258.132 34.3451 258.147 34.1735L258.8 28.8335C258.814 28.7567 258.813 28.6777 258.796 28.6014C258.779 28.5251 258.747 28.4531 258.701 28.3895" fill="#1D1D1B"/>
<path d="M186.159 3.98342C186.632 3.95462 187.106 4.02169 187.553 4.18062C187.999 4.33955 188.409 4.58707 188.758 4.90836C189.053 5.19413 189.265 5.5558 189.369 5.95383C189.473 6.35185 189.466 6.77092 189.349 7.16522L187.341 14.6634C187.309 14.7908 187.25 14.9102 187.17 15.0141C187.089 15.1181 186.988 15.2044 186.873 15.2677C186.632 15.4373 186.343 15.5278 186.048 15.5267C185.922 15.5332 185.795 15.5136 185.676 15.469C185.558 15.4245 185.45 15.3559 185.358 15.2677C185.28 15.1906 185.225 15.0933 185.199 14.9866C185.173 14.8798 185.177 14.7679 185.211 14.6634L187.206 7.16522C187.26 6.98135 187.262 6.78601 187.212 6.60093C187.162 6.41586 187.062 6.24832 186.923 6.11695C186.756 5.96673 186.562 5.8512 186.35 5.77709C186.139 5.70298 185.915 5.67178 185.691 5.68531C185.171 5.68545 184.662 5.83529 184.225 6.11695C183.823 6.34359 183.526 6.72042 183.4 7.16522L181.393 14.6634C181.317 14.9199 181.145 15.1368 180.912 15.2677C180.67 15.4359 180.382 15.5262 180.087 15.5267C179.96 15.5347 179.833 15.5158 179.715 15.4712C179.596 15.4265 179.488 15.3572 179.397 15.2677C179.318 15.1912 179.261 15.0944 179.233 14.9879C179.205 14.8814 179.206 14.7692 179.237 14.6634L181.245 7.16522C181.302 6.9816 181.306 6.78545 181.256 6.59977C181.205 6.4141 181.103 6.24661 180.962 6.11695C180.795 5.96731 180.6 5.85213 180.389 5.77806C180.177 5.70398 179.954 5.67247 179.73 5.68531C179.214 5.68573 178.709 5.83564 178.277 6.11695C177.878 6.35087 177.579 6.72425 177.439 7.16522L175.444 14.6634C175.369 14.9167 175.202 15.1325 174.976 15.2677C174.733 15.4359 174.446 15.5262 174.151 15.5267C174.024 15.5347 173.897 15.5158 173.778 15.4712C173.659 15.4265 173.551 15.3572 173.461 15.2677C173.379 15.1928 173.321 15.0961 173.293 14.989C173.264 14.8819 173.267 14.7689 173.301 14.6634L175.296 7.16522C175.588 6.21885 176.22 5.41457 177.07 4.90836C177.992 4.30293 179.071 3.98136 180.173 3.98342C180.676 3.94759 181.18 4.02292 181.651 4.20408C182.121 4.38523 182.546 4.66777 182.895 5.03168C183.853 4.34305 185.004 3.97607 186.184 3.98342" fill="#1D1D1B"/>
<path d="M195.125 6.14161C194.716 6.3782 194.412 6.76181 194.275 7.21455L192.921 12.2956C192.863 12.482 192.857 12.6809 192.905 12.8702C192.953 13.0595 193.052 13.232 193.192 13.3685C193.356 13.5221 193.55 13.6406 193.762 13.7169C193.974 13.7933 194.199 13.8258 194.423 13.8125C194.941 13.8135 195.447 13.6588 195.876 13.3685C196.286 13.1319 196.589 12.7483 196.726 12.2956L198.081 7.21455C198.139 7.02806 198.144 6.8292 198.096 6.63988C198.049 6.45057 197.95 6.27814 197.81 6.14161C197.647 5.98581 197.453 5.865 197.241 5.78654C197.029 5.70809 196.804 5.67366 196.579 5.68531C196.059 5.68866 195.553 5.84758 195.125 6.14161ZM191.356 14.5771C191.058 14.2877 190.847 13.9212 190.744 13.5184C190.642 13.1156 190.654 12.6922 190.778 12.2956L192.132 7.21455C192.423 6.25441 193.066 5.43962 193.931 4.93303C194.846 4.31001 195.928 3.97895 197.034 3.98342C197.511 3.95327 197.989 4.02205 198.439 4.18544C198.888 4.34884 199.299 4.60335 199.645 4.93303C199.943 5.22237 200.155 5.58886 200.257 5.9917C200.36 6.39453 200.348 6.81788 200.224 7.21455L198.869 12.2956C198.575 13.254 197.934 14.0677 197.071 14.5771C196.154 15.1953 195.073 15.5258 193.967 15.5267C193.491 15.5539 193.013 15.4838 192.565 15.3205C192.116 15.1573 191.705 14.9043 191.356 14.5771Z" fill="#1D1D1B"/>
<path d="M205.557 15.5267C205.052 15.5267 204.769 15.2924 204.707 14.9224L203.623 5.05635C203.62 4.93738 203.641 4.81899 203.686 4.70863C203.73 4.59827 203.797 4.49832 203.882 4.41505C204.081 4.19798 204.344 4.05094 204.633 3.99575C204.897 3.93288 205.174 3.95888 205.421 4.06974C205.525 4.11152 205.615 4.18062 205.682 4.26967C205.749 4.35872 205.791 4.46438 205.803 4.57538L206.604 11.8146L211.555 4.56304C211.72 4.33317 211.952 4.16068 212.22 4.06974C212.494 3.99026 212.784 3.99026 213.058 4.06974C213.171 4.09438 213.276 4.14669 213.364 4.22201C213.452 4.29732 213.52 4.3933 213.562 4.50138C213.598 4.6112 213.607 4.72801 213.587 4.84183C213.568 4.95565 213.521 5.06311 213.452 5.15501L206.727 15.0211C206.591 15.2039 206.415 15.3526 206.212 15.4553C206.009 15.5581 205.785 15.6121 205.557 15.613V15.5267Z" fill="#1D1D1B"/>
<path d="M219.265 9.49607C219.782 9.50152 220.288 9.35112 220.718 9.06443C221.119 8.83813 221.418 8.46776 221.556 8.02849L221.777 7.14054C221.838 6.95822 221.844 6.76238 221.796 6.57646C221.748 6.39055 221.647 6.22244 221.506 6.09228C221.34 5.94263 221.145 5.82747 220.934 5.75339C220.722 5.67932 220.498 5.6478 220.275 5.66064C219.759 5.66105 219.254 5.81096 218.821 6.09228C218.417 6.31953 218.117 6.69547 217.984 7.14054L217.356 9.49607H219.265ZM217.713 15.5267C217.237 15.5548 216.761 15.4863 216.312 15.3252C215.863 15.1641 215.452 14.9138 215.102 14.5894C214.805 14.3047 214.593 13.9425 214.491 13.5437C214.389 13.1449 214.4 12.7254 214.523 12.3326L215.89 7.16521C216.185 6.21683 216.821 5.41226 217.676 4.90835C218.598 4.30293 219.677 3.98136 220.78 3.98341C221.255 3.95505 221.73 4.02229 222.179 4.18116C222.627 4.34003 223.039 4.58729 223.391 4.90835C223.691 5.19086 223.906 5.55244 224.011 5.95162C224.115 6.35081 224.105 6.77142 223.982 7.16521L223.748 8.05316C223.458 9.00381 222.82 9.8098 221.962 10.31C221.04 10.9154 219.961 11.237 218.858 11.235H216.949L216.666 12.3326C216.607 12.515 216.602 12.7105 216.65 12.8961C216.698 13.0817 216.797 13.2498 216.937 13.3808C217.275 13.6807 217.718 13.8357 218.169 13.8125H218.711C218.968 13.801 219.219 13.8893 219.413 14.0591C219.491 14.1358 219.546 14.2338 219.57 14.3411C219.594 14.4484 219.586 14.5604 219.548 14.6634C219.514 14.79 219.454 14.9085 219.374 15.0122C219.294 15.1159 219.194 15.2027 219.08 15.2677C218.838 15.4373 218.55 15.5278 218.255 15.5267H217.713Z" fill="#1D1D1B"/>
<path d="M237.628 3.98342C238.103 3.95505 238.579 4.0223 239.027 4.18116C239.476 4.34003 239.888 4.5873 240.239 4.90836C240.536 5.19305 240.748 5.55527 240.85 5.95408C240.953 6.3529 240.942 6.77241 240.818 7.16522L238.823 14.6634C238.788 14.79 238.729 14.9085 238.649 15.0122C238.569 15.1159 238.469 15.2027 238.355 15.2677C238.113 15.4359 237.825 15.5262 237.53 15.5267C237.403 15.5347 237.276 15.5158 237.157 15.4712C237.038 15.4265 236.93 15.3572 236.84 15.2677C236.761 15.1912 236.704 15.0944 236.676 14.9879C236.648 14.8814 236.649 14.7692 236.68 14.6634L238.651 7.16522C238.702 6.98114 238.703 6.78655 238.653 6.60202C238.603 6.4175 238.504 6.2499 238.367 6.11695C238.2 5.96731 238.006 5.85213 237.794 5.77806C237.583 5.70398 237.359 5.67247 237.136 5.68531C236.616 5.68751 236.108 5.83718 235.67 6.11695C235.271 6.34761 234.976 6.72284 234.845 7.16522L232.85 14.6634C232.765 14.9149 232.595 15.1287 232.369 15.2677C232.127 15.4359 231.839 15.5262 231.544 15.5267C231.417 15.5347 231.29 15.5158 231.172 15.4712C231.053 15.4265 230.945 15.3572 230.854 15.2677C230.773 15.1928 230.714 15.0961 230.686 14.989C230.658 14.8819 230.661 14.7689 230.694 14.6634L232.69 7.16522C232.748 6.98274 232.754 6.78731 232.706 6.60171C232.658 6.41611 232.558 6.24799 232.419 6.11695C232.08 5.81707 231.638 5.66208 231.187 5.68531C230.671 5.68431 230.166 5.83433 229.734 6.11695C229.332 6.34715 229.032 6.72195 228.896 7.16522L226.889 14.6634C226.854 14.79 226.795 14.9085 226.715 15.0122C226.634 15.1159 226.534 15.2027 226.421 15.2677C226.178 15.4359 225.89 15.5262 225.595 15.5267C225.469 15.5332 225.342 15.5136 225.224 15.469C225.105 15.4245 224.997 15.3559 224.906 15.2677C224.829 15.1897 224.773 15.0929 224.745 14.9869C224.717 14.8809 224.717 14.7694 224.746 14.6634L226.753 7.16522C227.042 6.21398 227.68 5.40764 228.539 4.90836C229.46 4.30026 230.54 3.97844 231.643 3.98342C232.145 3.94844 232.649 4.02416 233.12 4.20527C233.59 4.38638 234.015 4.66846 234.365 5.03168C235.319 4.34553 236.466 3.97867 237.641 3.98342" fill="#1D1D1B"/>
<path d="M247.038 9.49606C247.555 9.50152 248.061 9.35111 248.491 9.06443C248.892 8.83813 249.191 8.46776 249.329 8.02849L249.55 7.14054C249.611 6.95822 249.617 6.76238 249.569 6.57646C249.521 6.39055 249.42 6.22244 249.279 6.09228C248.941 5.7924 248.499 5.63741 248.048 5.66064C247.532 5.65963 247.027 5.80966 246.594 6.09228C246.19 6.31953 245.89 6.69547 245.757 7.14054L245.129 9.49606H247.038ZM245.437 15.502C244.961 15.5302 244.484 15.4616 244.036 15.3005C243.587 15.1395 243.175 14.8892 242.826 14.5647C242.526 14.2817 242.313 13.9195 242.21 13.5201C242.108 13.1207 242.121 12.7004 242.247 12.3079L243.577 7.16521C243.872 6.21683 244.508 5.41226 245.363 4.90835C246.284 4.30159 247.364 3.97991 248.467 3.98341C248.941 3.95575 249.417 4.02332 249.865 4.18215C250.314 4.34098 250.726 4.58787 251.078 4.90835C251.378 5.19086 251.593 5.55244 251.697 5.95162C251.802 6.3508 251.792 6.77142 251.669 7.16521L251.435 8.05316C251.161 8.98716 250.557 9.78937 249.735 10.31C248.813 10.9154 247.734 11.237 246.631 11.235H244.722L244.439 12.3326C244.38 12.515 244.375 12.7105 244.423 12.8961C244.471 13.0817 244.57 13.2498 244.71 13.3808C245.048 13.6807 245.491 13.8357 245.942 13.8125H246.484C246.609 13.8057 246.735 13.8241 246.853 13.8664C246.972 13.9088 247.08 13.9743 247.173 14.0591C247.255 14.1335 247.313 14.2309 247.34 14.3386C247.366 14.4463 247.36 14.5594 247.321 14.6634C247.287 14.79 247.227 14.9085 247.147 15.0122C247.067 15.1159 246.967 15.2027 246.853 15.2677C246.611 15.4373 246.323 15.5278 246.028 15.5267L245.437 15.502Z" fill="#1D1D1B"/>
<path d="M258.603 15.2677C258.524 15.191 258.469 15.093 258.445 14.9857C258.421 14.8784 258.429 14.7664 258.467 14.6634L260.462 7.16521C260.517 6.98135 260.519 6.786 260.469 6.60093C260.419 6.41585 260.319 6.24831 260.179 6.11695C260.012 5.9673 259.818 5.85213 259.606 5.77805C259.395 5.70398 259.171 5.67247 258.948 5.68531C258.428 5.68545 257.919 5.83528 257.482 6.11695C257.083 6.34761 256.788 6.72283 256.657 7.16521L254.662 14.6634C254.586 14.9199 254.414 15.1368 254.181 15.2677C253.939 15.4359 253.651 15.5262 253.356 15.5267C253.229 15.5347 253.102 15.5158 252.984 15.4712C252.865 15.4265 252.757 15.3572 252.666 15.2677C252.588 15.1906 252.533 15.0933 252.507 14.9866C252.481 14.8798 252.485 14.7679 252.519 14.6634L254.514 7.16521C254.803 6.21398 255.441 5.40763 256.3 4.90835C257.22 4.30025 258.3 3.97844 259.403 3.98341C259.878 3.95575 260.354 4.02332 260.802 4.18215C261.25 4.34098 261.663 4.58787 262.014 4.90835C262.31 5.19413 262.522 5.5558 262.626 5.95382C262.73 6.35185 262.723 6.77091 262.606 7.16521L260.598 14.6634C260.523 14.9199 260.35 15.1368 260.118 15.2677C259.876 15.4373 259.588 15.5278 259.292 15.5267C259.166 15.5332 259.039 15.5136 258.921 15.469C258.802 15.4245 258.694 15.3559 258.603 15.2677Z" fill="#1D1D1B"/>
<path d="M268.209 13.8125C268.463 13.8003 268.711 13.8889 268.899 14.0591C268.975 14.1378 269.03 14.2346 269.058 14.3404C269.086 14.4462 269.086 14.5574 269.059 14.6634C268.975 14.9149 268.805 15.1287 268.579 15.2677C268.336 15.4359 268.049 15.5262 267.754 15.5267H267.199C266.725 15.556 266.25 15.488 265.803 15.3268C265.357 15.1656 264.947 14.9147 264.601 14.5894C264.299 14.3078 264.083 13.9462 263.979 13.5467C263.874 13.1472 263.885 12.7262 264.01 12.3326L266.805 1.88689C266.838 1.75947 266.896 1.64011 266.977 1.53617C267.057 1.43223 267.158 1.34593 267.273 1.28259C267.511 1.11319 267.795 1.02261 268.086 1.02361C268.213 1.01557 268.34 1.03449 268.459 1.07913C268.578 1.12376 268.686 1.19311 268.776 1.28259C268.857 1.35746 268.916 1.45417 268.944 1.56127C268.973 1.66837 268.97 1.78137 268.936 1.88689L268.382 3.95876H270.451C270.577 3.95224 270.704 3.97187 270.823 4.01642C270.941 4.06098 271.05 4.12951 271.141 4.21774C271.219 4.29481 271.274 4.39215 271.3 4.49888C271.326 4.60561 271.322 4.71749 271.288 4.82203C271.211 5.07365 271.044 5.28842 270.82 5.42632C270.574 5.58547 270.288 5.67104 269.995 5.67298H267.926L266.153 12.3326C266.095 12.5162 266.092 12.7123 266.142 12.898C266.192 13.0837 266.294 13.2512 266.436 13.3808C266.603 13.5305 266.797 13.6456 267.009 13.7197C267.22 13.7938 267.444 13.8253 267.667 13.8125H268.209Z" fill="#1D1D1B"/>
<path d="M280.279 14.7497C279.987 14.552 279.764 14.2662 279.645 13.9336C279.525 13.601 279.515 13.239 279.614 12.8998L279.811 12.1599C279.886 11.9066 280.053 11.6908 280.279 11.5556C280.523 11.3911 280.811 11.305 281.104 11.3089C281.23 11.2993 281.357 11.3163 281.476 11.3588C281.594 11.4013 281.703 11.4683 281.794 11.5556C281.876 11.6305 281.934 11.7272 281.963 11.8343C281.991 11.9414 281.988 12.0544 281.954 12.1599L281.757 12.8998C281.696 13.1095 281.757 13.3192 282.09 13.5165C282.463 13.733 282.891 13.8358 283.321 13.8125C283.802 13.8235 284.278 13.7221 284.713 13.5165C285.107 13.3192 285.329 13.1095 285.39 12.8998L285.858 11.1486L280.402 9.91536L281.265 6.63491C281.407 6.21998 281.633 5.83913 281.93 5.51645C282.227 5.19378 282.587 4.93632 282.989 4.76037C283.927 4.24158 284.984 3.97397 286.056 3.98341C287.001 3.93142 287.936 4.20567 288.704 4.76037C289.003 4.96425 289.231 5.25745 289.355 5.59837C289.479 5.93928 289.492 6.31058 289.393 6.65957L289.122 7.64618C289.044 7.9009 288.872 8.11665 288.642 8.25047C288.399 8.41864 288.112 8.50897 287.817 8.50945C287.69 8.51597 287.564 8.49634 287.445 8.45179C287.326 8.40723 287.218 8.3387 287.127 8.25047C287.05 8.17263 286.996 8.07528 286.969 7.96883C286.943 7.86239 286.947 7.75086 286.979 7.64618L287.238 6.65957C287.299 6.43758 287.238 6.2156 286.893 6.00595C286.521 5.78411 286.094 5.67289 285.661 5.68531C285.158 5.67357 284.66 5.78356 284.208 6.00595C283.897 6.12733 283.642 6.36035 283.494 6.65957L282.989 8.62045L288.433 9.85371L287.632 12.9368C287.492 13.3406 287.273 13.7122 286.987 14.0299C286.702 14.3476 286.356 14.6049 285.969 14.7867C285.053 15.3063 284.017 15.5744 282.964 15.5637C282.034 15.6143 281.115 15.3397 280.365 14.7867" fill="#1D1D1B"/>
<path d="M294.837 13.8125C294.962 13.8057 295.088 13.8241 295.207 13.8664C295.325 13.9088 295.434 13.9743 295.527 14.0591C295.608 14.134 295.667 14.2307 295.695 14.3378C295.723 14.4449 295.721 14.5579 295.687 14.6634C295.612 14.9199 295.439 15.1368 295.206 15.2677C294.964 15.4359 294.676 15.5262 294.381 15.5267H293.839C293.363 15.5563 292.886 15.4884 292.437 15.3273C291.989 15.1661 291.577 14.9151 291.228 14.5894C290.929 14.3064 290.715 13.9442 290.613 13.5448C290.511 13.1454 290.523 12.7251 290.649 12.3326L293.433 1.88689C293.507 1.63363 293.674 1.41782 293.901 1.28259C294.143 1.11442 294.431 1.02409 294.726 1.02361C294.853 1.01557 294.98 1.03449 295.099 1.07913C295.218 1.12376 295.326 1.19311 295.416 1.28259C295.495 1.35913 295.552 1.45588 295.58 1.56239C295.608 1.66891 295.607 1.78112 295.576 1.88689L295.022 3.95876H297.078C297.205 3.95072 297.332 3.96963 297.451 4.01427C297.57 4.05891 297.678 4.12826 297.768 4.21774C297.85 4.29215 297.908 4.38949 297.935 4.4972C297.961 4.60491 297.954 4.71805 297.916 4.82203C297.843 5.07586 297.675 5.29203 297.448 5.42632C297.203 5.5874 296.916 5.67314 296.623 5.67298H294.566L292.842 12.3326C292.783 12.515 292.777 12.7105 292.825 12.8961C292.873 13.0817 292.973 13.2498 293.113 13.3808C293.279 13.5305 293.474 13.6456 293.685 13.7197C293.897 13.7938 294.121 13.8253 294.344 13.8125H294.837Z" fill="#1D1D1B"/>
<path d="M299.332 14.5894C299.031 14.3074 298.815 13.9464 298.708 13.5475C298.601 13.1485 298.609 12.7276 298.729 12.3326L300.736 4.83436C300.812 4.57785 300.984 4.36097 301.217 4.23007C301.46 4.06408 301.748 3.97787 302.042 3.98341C302.168 3.97453 302.294 3.99186 302.413 4.03431C302.531 4.07677 302.64 4.14343 302.732 4.23007C302.81 4.30714 302.865 4.40447 302.891 4.5112C302.917 4.61793 302.913 4.72982 302.879 4.83436L300.872 12.3326C300.82 12.5166 300.819 12.7112 300.869 12.8957C300.919 13.0803 301.018 13.2479 301.155 13.3808C301.321 13.5322 301.515 13.6485 301.727 13.7227C301.939 13.7969 302.163 13.8274 302.387 13.8125C302.903 13.8164 303.409 13.6661 303.84 13.3808C304.241 13.1497 304.54 12.7752 304.678 12.3326L306.66 4.83436C306.745 4.58288 306.915 4.36906 307.141 4.23007C307.384 4.06555 307.672 3.97948 307.966 3.98341C308.092 3.97376 308.218 3.99074 308.337 4.03323C308.456 4.07573 308.564 4.1428 308.656 4.23007C308.734 4.30714 308.789 4.40447 308.815 4.5112C308.841 4.61793 308.837 4.72982 308.803 4.83436L306.808 12.3326C306.523 13.2855 305.884 14.093 305.022 14.5894C304.105 15.2067 303.024 15.5333 301.919 15.5267C301.445 15.556 300.97 15.488 300.523 15.3268C300.076 15.1656 299.667 14.9147 299.32 14.5894" fill="#1D1D1B"/>
<path d="M313.287 13.8001C313.808 13.8014 314.319 13.6468 314.752 13.3561C315.155 13.1154 315.454 12.7328 315.59 12.2832L316.944 7.20221C317.005 7.01601 317.012 6.81638 316.964 6.62647C316.916 6.43656 316.815 6.26416 316.673 6.12927C316.509 5.97567 316.315 5.85713 316.103 5.78082C315.891 5.70451 315.667 5.67202 315.442 5.68531C314.924 5.68426 314.418 5.83892 313.989 6.12927C313.58 6.36586 313.276 6.74947 313.139 7.20221L311.796 12.2832C311.731 12.4679 311.721 12.6677 311.767 12.8581C311.812 13.0486 311.913 13.2216 312.055 13.3561C312.22 13.5092 312.414 13.6273 312.626 13.7036C312.837 13.7799 313.062 13.8127 313.287 13.8001ZM319.666 1.0236C319.919 1.01403 320.166 1.10235 320.356 1.27025C320.435 1.347 320.489 1.44497 320.513 1.55225C320.537 1.65954 320.53 1.77151 320.492 1.87454L317.105 14.6634C317.02 14.9149 316.85 15.1287 316.624 15.2677C316.382 15.4359 316.094 15.5262 315.799 15.5267C315.633 15.5434 315.466 15.5101 315.319 15.431C315.172 15.3519 315.052 15.2306 314.974 15.0827C314.295 15.3664 313.567 15.513 312.831 15.5143C312.354 15.5438 311.876 15.4746 311.427 15.3113C310.978 15.1479 310.567 14.8938 310.22 14.5647C309.922 14.2754 309.71 13.9089 309.608 13.5061C309.506 13.1032 309.517 12.6799 309.641 12.2832L310.996 7.20221C311.286 6.2415 311.928 5.42634 312.794 4.92069C313.711 4.30115 314.792 3.97043 315.898 3.97107C316.519 3.95339 317.135 4.08446 317.696 4.35339L318.361 1.88688C318.439 1.63216 318.611 1.41641 318.841 1.28258C319.086 1.12151 319.373 1.03577 319.666 1.03593" fill="#1D1D1B"/>
<path d="M323.312 2.97215C323.234 2.89508 323.178 2.79774 323.152 2.69101C323.126 2.58428 323.13 2.47239 323.164 2.36785L323.632 0.86328C323.711 0.608558 323.882 0.392806 324.113 0.258982C324.351 0.0932016 324.635 0.0068954 324.925 0.0123352C325.051 0.00268401 325.178 0.0196558 325.296 0.0621511C325.415 0.104646 325.524 0.17171 325.615 0.258982C325.697 0.333395 325.755 0.430734 325.782 0.538444C325.808 0.646153 325.801 0.759296 325.763 0.86328L325.369 2.38018C325.294 2.63669 325.121 2.85358 324.888 2.98448C324.649 3.14876 324.365 3.23492 324.076 3.23113C323.948 3.241 323.82 3.22417 323.699 3.18171C323.578 3.13925 323.467 3.07208 323.374 2.98448M320.11 15.317C320.031 15.2405 319.974 15.1437 319.946 15.0372C319.917 14.9307 319.919 14.8185 319.95 14.7127L322.561 4.8467C322.641 4.5931 322.812 4.37804 323.041 4.2424C323.285 4.07788 323.572 3.99182 323.866 3.99575C323.992 3.9861 324.118 4.00307 324.237 4.04557C324.356 4.08807 324.465 4.15512 324.556 4.2424C324.636 4.31812 324.694 4.41486 324.722 4.52166C324.75 4.62845 324.748 4.74105 324.716 4.8467L322.093 14.7127C322.058 14.8393 321.999 14.9578 321.919 15.0615C321.838 15.1652 321.738 15.252 321.625 15.317C321.382 15.4852 321.094 15.5755 320.8 15.576C320.673 15.5841 320.546 15.5651 320.427 15.5205C320.308 15.4759 320.2 15.4065 320.11 15.317Z" fill="#1D1D1B"/>
<path d="M329.79 6.14161C329.387 6.3824 329.089 6.76498 328.953 7.21455L327.598 12.2956C327.537 12.4817 327.53 12.6814 327.578 12.8713C327.626 13.0612 327.727 13.2336 327.869 13.3685C328.033 13.5227 328.227 13.6416 328.439 13.718C328.651 13.7943 328.876 13.8265 329.101 13.8125C329.622 13.8137 330.133 13.6591 330.566 13.3685C330.972 13.1314 331.272 12.7474 331.404 12.2956L332.758 7.21455C332.819 7.02835 332.826 6.82872 332.778 6.63881C332.73 6.4489 332.629 6.2765 332.487 6.14161C332.326 5.98334 332.132 5.86092 331.92 5.78231C331.708 5.7037 331.482 5.67065 331.256 5.68531C330.733 5.69065 330.224 5.84929 329.79 6.14161ZM326.095 14.5771C325.795 14.2894 325.581 13.9229 325.479 13.5195C325.377 13.1161 325.39 12.6919 325.517 12.2956L326.871 7.21455C327.158 6.25209 327.801 5.43582 328.67 4.93302C329.584 4.30788 330.666 3.97661 331.773 3.98341C332.248 3.95198 332.725 4.0202 333.173 4.18371C333.62 4.34722 334.028 4.60244 334.372 4.93302C334.673 5.21989 334.888 5.58635 334.99 5.99008C335.093 6.3938 335.079 6.81831 334.951 7.21455L333.596 12.2956C333.307 13.2531 332.67 14.0672 331.81 14.5771C330.889 15.1969 329.804 15.5275 328.694 15.5267C328.219 15.5544 327.744 15.4844 327.297 15.3211C326.85 15.1578 326.441 14.9046 326.095 14.5771Z" fill="#1D1D1B"/>
</g>
<path d="M278.062 27.8346L259.674 58H271.449L289.652 27.8346H278.062Z" fill="#A53716"/>
<path d="M298.322 27.8346L279.934 58H291.709L309.912 27.8346H298.322Z" fill="#A53716"/>
<path d="M319.124 27.8346L300.724 58H312.511L330.714 27.8346H319.124Z" fill="#A53716"/>
<path d="M279.934 27.8346V58H289.344L289.652 27.8346H279.934Z" fill="#A53716"/>
<path d="M300.194 27.8346V58H309.604L309.912 27.8346H300.194Z" fill="#A53716"/>
</g>
<defs>
<clipPath id="clip0_34_204">
<rect width="335" height="58" fill="white"/>
</clipPath>
</defs>
</svg>
