<svg viewBox="67.45387453874538 0 392.9188191881919 844" xmlns:xlink="http://www.w3.org/1999/xlink" xmlns="http://www.w3.org/2000/svg" data-name="Capa 1" id="Capa_1" style="max-height: 500px" width="392.9188191881919" height="844"><defs><style>.cls-1,.cls-11,.cls-8{fill:none;}.cls-2{clip-path:url(#clip-path);}.cls-3{clip-path:url(#clip-path-2);}.cls-4{fill:url(#Degradado_sin_nombre_2);}.cls-5{opacity:0.26;}.cls-6{clip-path:url(#clip-path-4);}.cls-7{fill:#f5a79a;}.cls-8{stroke:#1d1d1b;}.cls-9{fill:#fff;}.cls-10{fill:#90b9c9;}.cls-11{stroke:#90b9c9;stroke-width:3.28px;}</style><clipPath transform="translate(67 0.13)" id="clip-path"><rect height="844" width="390" y="-0.13" class="cls-1"/></clipPath><clipPath transform="translate(67 0.13)" id="clip-path-2"><rect height="843" width="389" y="0.37" x="0.5" class="cls-1"/></clipPath><linearGradient gradientUnits="userSpaceOnUse" gradientTransform="matrix(0, -844, -844, 0, 713638, 1689.13)" y2="845.23" x2="2" y1="845.23" x1="1" id="Degradado_sin_nombre_2"><stop stop-color="#be492e" offset="0"/><stop stop-color="#ca523c" offset="0.15"/><stop stop-color="#dd6152" offset="0.45"/><stop stop-color="#e96a5f" offset="0.73"/><stop stop-color="#ed6d64" offset="0.99"/><stop stop-color="#ed6d64" offset="1"/></linearGradient><clipPath transform="translate(67 0.13)" id="clip-path-4"><rect height="685.37" width="338.55" y="164.76" x="-68" class="cls-1"/></clipPath></defs><g class="cls-2"><g class="cls-3"><rect height="843" width="389" y="0.5" x="67.5" class="cls-4"/></g><g class="cls-3"><g class="cls-5"><g class="cls-6"><polygon points="330.55 732.37 162.27 644.41 330.55 645.91 330.55 554.6 330.55 537.02 171.98 454.14 330.55 455.56 330.55 364.24 330.55 346.67 0 173.88 0 284.57 154.02 364.24 0 364.24 0 452.6 0 474.93 154.02 554.6 0 554.6 0 559.59 0 642.96 0 670.28 330.55 841.26 330.55 732.37" class="cls-7"/></g></g></g><g class="cls-2"><rect height="843" width="389" y="0.5" x="67.5" class="cls-8"/><path transform="translate(67 0.13)" d="M325.66,286.6a8.35,8.35,0,0,0,2.7-3.43l.56,4.11H335V263.86H322.17v5.63h4.44v4.84a15.56,15.56,0,0,1-.36,3.52,4.88,4.88,0,0,1-1.32,2.45,4.57,4.57,0,0,1-5.38.05,4.39,4.39,0,0,1-1.27-2.36,16.23,16.23,0,0,1-.33-3.43V254.35a21.46,21.46,0,0,1,.22-3.18,4.71,4.71,0,0,1,1.07-2.45,3.45,3.45,0,0,1,2.7-.95,3.71,3.71,0,0,1,2.62.78,3.8,3.8,0,0,1,1,2.17,19.91,19.91,0,0,1,.23,3.18v3.21h9.06v-2.65a18.57,18.57,0,0,0-1.24-7.09,9.35,9.35,0,0,0-4.08-4.61,15.57,15.57,0,0,0-7.74-1.63,14.58,14.58,0,0,0-8,1.91,10,10,0,0,0-4.14,5.46,26.74,26.74,0,0,0-1.18,8.44v15.25a27,27,0,0,0,1.15,8.3A10.52,10.52,0,0,0,313.5,286a12.34,12.34,0,0,0,7.32,1.94,7.9,7.9,0,0,0,4.84-1.35m-42.55.68V262.06l10.13,25.22h6.19V241.69h-7.65v23.75l-10.14-23.75h-6.47v45.59Zm-17.73-45.59h-9.23v45.59h9.23Zm-36.53,45.59V267.07h8.05v20.21h9.29V241.69H236.9v18.74h-8.05V241.69h-9.28v45.59Zm-23.24,0V248.61h6.92v-6.92h-23.3v6.92h7v38.67Zm-21.11,0V281H173.81V266.68H182V260.2h-8.16V248.1h10.58v-6.41H164.52v45.59Zm-55.27,0,.62-31.13,6.08,31.13h5.8l5.8-30.9.73,30.9H155l-.79-45.59h-9.51l-6,28.76-5.63-28.76h-9.85l-.79,45.59Zm-31.74-6.9a4,4,0,0,1-1.1-2.19,17.28,17.28,0,0,1-.25-3V253.68a14.22,14.22,0,0,1,.28-2.93,4.16,4.16,0,0,1,1.13-2.17,3.53,3.53,0,0,1,2.53-.81,3.74,3.74,0,0,1,2.65.81,4.15,4.15,0,0,1,1.12,2.17,14.22,14.22,0,0,1,.28,2.93v21.55a14.66,14.66,0,0,1-.28,3,4.1,4.1,0,0,1-1.12,2.19,3.69,3.69,0,0,1-2.65.82,3.6,3.6,0,0,1-2.59-.82m10.61,5.71a9.92,9.92,0,0,0,4.22-5.15,22.53,22.53,0,0,0,1.27-8v-17a22.13,22.13,0,0,0-1.27-8,9.84,9.84,0,0,0-4.22-5.06,15.56,15.56,0,0,0-8-1.77,15.47,15.47,0,0,0-7.93,1.74,9.72,9.72,0,0,0-4.2,5.07,22.52,22.52,0,0,0-1.26,8v17a22.77,22.77,0,0,0,1.26,8,10,10,0,0,0,4.2,5.15,15,15,0,0,0,7.93,1.81,15.25,15.25,0,0,0,8-1.81m-34,.34a10.45,10.45,0,0,0,4.08-4.05,11.65,11.65,0,0,0,1.46-5.8,14.18,14.18,0,0,0-2.05-7.85,26,26,0,0,0-4.93-5.65L68.06,259a19,19,0,0,1-3-3.23,6.65,6.65,0,0,1-1.1-4,4.73,4.73,0,0,1,.79-2.67,2.67,2.67,0,0,1,2.42-1.21,2.83,2.83,0,0,1,2.28.9,5,5,0,0,1,1,2.47,33.82,33.82,0,0,1,.36,3.66l7.94-1.18a27.08,27.08,0,0,0-.59-4.42,12.36,12.36,0,0,0-1.69-4.11,8.68,8.68,0,0,0-3.4-3,12.34,12.34,0,0,0-5.63-1.12q-5.74,0-9,3t-3.29,8.64a12.81,12.81,0,0,0,1.61,6.64,19.09,19.09,0,0,0,4.13,4.84l4.73,4.11a22.69,22.69,0,0,1,3.63,3.91,8.09,8.09,0,0,1,1.38,4.81,5.11,5.11,0,0,1-.65,2.59,2.58,2.58,0,0,1-2.45,1.12,3.44,3.44,0,0,1-2.44-.92,5.7,5.7,0,0,1-1.47-2.82,23.57,23.57,0,0,1-.59-4.7l-8,1.35a21.57,21.57,0,0,0,1.66,8,9.84,9.84,0,0,0,4.25,4.67,14.48,14.48,0,0,0,7,1.55,12.41,12.41,0,0,0,6.17-1.47" class="cls-9"/><path transform="translate(67 0.13)" d="M323,360.55a10.87,10.87,0,0,0,3.48-4.42l.72,5.29H335V331.3H318.49v7.24h5.72v6.23a19.93,19.93,0,0,1-.47,4.52,6.09,6.09,0,0,1-1.7,3.15,5.88,5.88,0,0,1-6.92.07,5.63,5.63,0,0,1-1.63-3,20.35,20.35,0,0,1-.43-4.41v-26a27.82,27.82,0,0,1,.29-4.09,5.92,5.92,0,0,1,1.38-3.15,4.4,4.4,0,0,1,3.47-1.23,4.75,4.75,0,0,1,3.37,1,4.9,4.9,0,0,1,1.34,2.79,26,26,0,0,1,.29,4.09v4.13h11.65v-3.4a23.78,23.78,0,0,0-1.59-9.13,11.94,11.94,0,0,0-5.25-5.93q-3.66-2.1-9.95-2.1-6.53,0-10.32,2.46a12.91,12.91,0,0,0-5.32,7,34.29,34.29,0,0,0-1.52,10.86V342a34.84,34.84,0,0,0,1.48,10.68,13.53,13.53,0,0,0,5,7.09c2.32,1.67,5.45,2.5,9.41,2.5a10.14,10.14,0,0,0,6.23-1.74m-54.74.87V329l13,32.44h8V302.77h-9.85v30.56l-13-30.56H258v58.65Zm-22.81-58.65H233.56v58.65h11.87ZM215.6,361.42V311.68h8.91v-8.91h-30v8.91h9.05v49.74Zm-30.12-58.65H173.6v58.65h11.88Zm-29.4,57.17a12.24,12.24,0,0,0,5-6.23,26.43,26.43,0,0,0,1.45-9.09v-4.85H150.94v5.72a29.62,29.62,0,0,1-.25,4,5.63,5.63,0,0,1-1.23,3,4.19,4.19,0,0,1-3.3,1.12,4.77,4.77,0,0,1-3.22-1,5,5,0,0,1-1.52-2.82,20.33,20.33,0,0,1-.4-4.31V318.84a26.94,26.94,0,0,1,.29-4.09,5.44,5.44,0,0,1,1.38-3,4.57,4.57,0,0,1,3.47-1.16,4.27,4.27,0,0,1,3.37,1.12,5.26,5.26,0,0,1,1.19,2.9,30.26,30.26,0,0,1,.22,3.8v5.5h11.59V319a24.61,24.61,0,0,0-1.49-8.91,11.5,11.5,0,0,0-5.07-5.93q-3.58-2.1-9.88-2.1c-4.35,0-7.78.79-10.32,2.39a12.63,12.63,0,0,0-5.32,6.77,32.07,32.07,0,0,0-1.52,10.46v21.07a31.09,31.09,0,0,0,1.52,10.17,13,13,0,0,0,5.32,6.85c2.54,1.64,6,2.46,10.32,2.46s7.63-.76,10-2.28m-59.52,1.48L103.3,343,111,361.42h11.15l-11.73-28.6,10.72-30.05H111l-5.86,16.87-7-16.87H86.93l11.15,27.3L86.5,361.42Zm-15.85,0v-8.11H67V334.92h10.5v-8.33H67V311H80.56v-8.25H55v58.65Z" class="cls-9"/><path transform="translate(67 0.13)" d="M324.83,431.88a9.07,9.07,0,0,0,2.94-3.74l.61,4.47H335V407.12H321v6.13h4.84v5.27a16.44,16.44,0,0,1-.4,3.83A5.17,5.17,0,0,1,324,425a4.13,4.13,0,0,1-2.94,1,4.21,4.21,0,0,1-2.91-.92,4.84,4.84,0,0,1-1.38-2.58,17.58,17.58,0,0,1-.37-3.73v-22a23.55,23.55,0,0,1,.25-3.46,5.1,5.1,0,0,1,1.16-2.67,3.78,3.78,0,0,1,3-1,4,4,0,0,1,2.84.86,4.08,4.08,0,0,1,1.14,2.36,22.09,22.09,0,0,1,.24,3.46v3.49h9.87v-2.88a20.07,20.07,0,0,0-1.35-7.72,10.15,10.15,0,0,0-4.44-5,16.9,16.9,0,0,0-8.43-1.78c-3.67,0-6.58.7-8.73,2.08a11,11,0,0,0-4.5,5.95,29.06,29.06,0,0,0-1.29,9.19v16.6a29.37,29.37,0,0,0,1.26,9,11.39,11.39,0,0,0,4.2,6,13.35,13.35,0,0,0,8,2.12,8.58,8.58,0,0,0,5.27-1.47m-46.32.73V405.16l11,27.45h6.74V383H288v25.86l-11-25.86h-7.05v49.63ZM259.21,383h-10v49.63h10Zm-48.59,49.63.68-33.88,6.61,33.88h6.32L230.54,399l.79,33.63h7.35L237.83,383H227.47l-6.55,31.31L214.79,383H204.07l-.86,49.63Zm-34.55-7.5a4.36,4.36,0,0,1-1.2-2.39,18.24,18.24,0,0,1-.27-3.22V396a15.9,15.9,0,0,1,.3-3.18,4.5,4.5,0,0,1,1.23-2.36,3.83,3.83,0,0,1,2.76-.89,4.05,4.05,0,0,1,2.88.89,4.42,4.42,0,0,1,1.22,2.36,15.18,15.18,0,0,1,.31,3.18V419.5a15.71,15.71,0,0,1-.31,3.22,4.44,4.44,0,0,1-1.22,2.39,4.05,4.05,0,0,1-2.88.89,3.92,3.92,0,0,1-2.82-.89m11.55,6.22a10.9,10.9,0,0,0,4.59-5.61,24.68,24.68,0,0,0,1.38-8.73v-18.5a24.18,24.18,0,0,0-1.38-8.67,10.77,10.77,0,0,0-4.59-5.52q-3.23-1.94-8.73-1.93a16.87,16.87,0,0,0-8.64,1.9,10.64,10.64,0,0,0-4.57,5.51,24.53,24.53,0,0,0-1.38,8.71V417a24.68,24.68,0,0,0,1.38,8.73,10.91,10.91,0,0,0,4.57,5.61,16.45,16.45,0,0,0,8.64,2,16.8,16.8,0,0,0,8.73-2m-37.28,0a10.39,10.39,0,0,0,4.22-5.27,22.2,22.2,0,0,0,1.23-7.69v-4.11H146v4.84a25.67,25.67,0,0,1-.22,3.37,4.75,4.75,0,0,1-1,2.55,3.55,3.55,0,0,1-2.79.95,4.07,4.07,0,0,1-2.73-.83,4.23,4.23,0,0,1-1.28-2.39,17.1,17.1,0,0,1-.34-3.65V396.59a21.76,21.76,0,0,1,.25-3.47,4.68,4.68,0,0,1,1.16-2.54,3.87,3.87,0,0,1,2.94-1,3.63,3.63,0,0,1,2.85.95,4.44,4.44,0,0,1,1,2.45,27.09,27.09,0,0,1,.19,3.22v4.65h9.8v-4.16a20.79,20.79,0,0,0-1.26-7.54,9.76,9.76,0,0,0-4.29-5q-3-1.78-8.36-1.78c-3.68,0-6.59.68-8.73,2a10.64,10.64,0,0,0-4.5,5.73,27,27,0,0,0-1.29,8.86V416.8a26.17,26.17,0,0,0,1.29,8.61,10.85,10.85,0,0,0,4.5,5.79q3.21,2.08,8.73,2.09c3.63,0,6.45-.65,8.46-1.93m-55,.33a11.47,11.47,0,0,0,4.44-4.41,12.61,12.61,0,0,0,1.59-6.31,15.46,15.46,0,0,0-2.24-8.55,28.32,28.32,0,0,0-5.36-6.15l-5-4.41a21.21,21.21,0,0,1-3.28-3.53,7.26,7.26,0,0,1-1.2-4.32,5.25,5.25,0,0,1,.86-2.91,2.92,2.92,0,0,1,2.64-1.32,3,3,0,0,1,2.48,1,5.4,5.4,0,0,1,1.1,2.69,36.54,36.54,0,0,1,.4,4l8.64-1.28a30.66,30.66,0,0,0-.64-4.81,13.47,13.47,0,0,0-1.84-4.48,9.4,9.4,0,0,0-3.71-3.27A13.37,13.37,0,0,0,88,382.37q-6.24,0-9.83,3.28t-3.58,9.4a14,14,0,0,0,1.74,7.23,20.82,20.82,0,0,0,4.51,5.27L86,412a24.66,24.66,0,0,1,4,4.25,8.77,8.77,0,0,1,1.51,5.24,5.55,5.55,0,0,1-.71,2.82,2.81,2.81,0,0,1-2.67,1.23,3.73,3.73,0,0,1-2.66-1,6.24,6.24,0,0,1-1.59-3.07,25,25,0,0,1-.65-5.11l-8.7,1.47a23.69,23.69,0,0,0,1.81,8.67,10.68,10.68,0,0,0,4.63,5.08,15.76,15.76,0,0,0,7.66,1.69,13.46,13.46,0,0,0,6.71-1.6M65.05,383H55v49.63h10Z" class="cls-9"/><path transform="translate(67 0.13)" d="M335,216v-2.26h-5.68v-8.31h4.56v-2.24h-4.56v-7.49h5.62v-2.35h-8.77V216Zm-20.72,0,5-22.65h-2.88L313,210.08l-3.58-16.69h-3L311.52,216Zm-22.38-2.75a2.54,2.54,0,0,1-.88-1.46,9.42,9.42,0,0,1-.22-2.19v-9.93a9,9,0,0,1,.22-2.16,2.35,2.35,0,0,1,.88-1.4,3.16,3.16,0,0,1,1.92-.49,3.08,3.08,0,0,1,1.9.49,2.39,2.39,0,0,1,.87,1.4,9.58,9.58,0,0,1,.22,2.16v9.93a10,10,0,0,1-.22,2.19,2.58,2.58,0,0,1-.87,1.46,3,3,0,0,1-1.9.51,3.09,3.09,0,0,1-1.92-.51m5.55,2.09a5.11,5.11,0,0,0,1.95-2.56A11.24,11.24,0,0,0,300,209v-8.62a10.92,10.92,0,0,0-.6-3.83,4.94,4.94,0,0,0-1.95-2.46,6.68,6.68,0,0,0-3.63-.86,6.78,6.78,0,0,0-3.65.85,4.82,4.82,0,0,0-2,2.46,11,11,0,0,0-.6,3.84v8.59a11.76,11.76,0,0,0,.59,3.9,4.88,4.88,0,0,0,2,2.56,6.65,6.65,0,0,0,3.66.89,6.33,6.33,0,0,0,3.63-.91m-29.83.66.25-16.44L271.68,216h1.78l3.83-16.44.26,16.44h2.54l-.42-22.65H276.6l-4,18.37-4-18.37h-3.1L265.05,216Zm-29.06-2.75a2.54,2.54,0,0,1-.88-1.46,9.38,9.38,0,0,1-.23-2.19v-9.93a9,9,0,0,1,.23-2.16,2.35,2.35,0,0,1,.88-1.4,3.15,3.15,0,0,1,1.91-.49,3.11,3.11,0,0,1,1.91.49,2.42,2.42,0,0,1,.86,1.4,9,9,0,0,1,.23,2.16v9.93a9.38,9.38,0,0,1-.23,2.19,2.62,2.62,0,0,1-.86,1.46,3,3,0,0,1-1.91.51,3.08,3.08,0,0,1-1.91-.51m5.55,2.09a5.09,5.09,0,0,0,1.94-2.56,11.24,11.24,0,0,0,.6-3.85v-8.62a10.92,10.92,0,0,0-.6-3.83,4.92,4.92,0,0,0-1.94-2.46,8.18,8.18,0,0,0-7.28,0,4.77,4.77,0,0,0-2,2.46,11,11,0,0,0-.6,3.84v8.59a11.77,11.77,0,0,0,.58,3.9,5,5,0,0,0,2,2.56,6.67,6.67,0,0,0,3.66.89,6.39,6.39,0,0,0,3.64-.91m-19.8.66v-20.3H228v-2.35H217.32v2.35h3.84V216Zm-27.95,0v-8l4.86-14.65h-3l-3.41,10.94-3.47-10.94h-2.94l4.9,14.65v8Zm-22.54-20.3h1.71a4.3,4.3,0,0,1,2.37.51,2.34,2.34,0,0,1,1,1.59,14.59,14.59,0,0,1,.23,2.85V208a27.13,27.13,0,0,1-.16,3.11,3,3,0,0,1-.88,1.95,3.56,3.56,0,0,1-2.46.68h-1.79Zm2,20.3a7.25,7.25,0,0,0,3.78-.85,4.82,4.82,0,0,0,2-2.51,11.37,11.37,0,0,0,.63-4.05V200.3a10.12,10.12,0,0,0-.63-3.83,4.37,4.37,0,0,0-2.09-2.31,8.71,8.71,0,0,0-4-.77h-4.92V216Zm-18.29-18.17,1.9,10.2h-3.77ZM154.17,216l1.09-5.7h4.61l1,5.7h3l-4.84-22.65H156L151.2,216Zm-8.75,0v-2.26h-5.68v-8.31h4.56v-2.24h-4.56v-7.49h5.62v-2.35h-8.78V216Zm-24.66-20.38h1.4a3.65,3.65,0,0,1,2.88.88,4.53,4.53,0,0,1,.72,2.86,5.36,5.36,0,0,1-.39,2.27,2.27,2.27,0,0,1-1.23,1.15,6.06,6.06,0,0,1-2.18.33h-1.2Zm0,20.38V205.42h2.46l3,10.62h3L126,204.69a3.52,3.52,0,0,0,1.63-1.08,4.63,4.63,0,0,0,.89-1.82,9.28,9.28,0,0,0,.28-2.39,7.44,7.44,0,0,0-.71-3.48,4.27,4.27,0,0,0-2.2-1.93,10,10,0,0,0-3.74-.6H117.6V216Zm-24.41,0v-20.3h3.72v-2.35H89.36v2.35h3.83V216Zm-12.66,0v-2.26H78v-8.31h4.56v-2.24H78v-7.49h5.62v-2.35H74.85V216Zm-20.25-.53a4.71,4.71,0,0,0,1.4-2.07l.31,2.6h2V204.83H61.4v2.24h2.88v1.56a13.39,13.39,0,0,1-.25,2.85,3.13,3.13,0,0,1-.92,1.74,2.8,2.8,0,0,1-1.9.58,3,3,0,0,1-1.9-.53,2.69,2.69,0,0,1-.91-1.62,12.89,12.89,0,0,1-.24-2.71v-8.39a18.66,18.66,0,0,1,.15-2.5,3.06,3.06,0,0,1,.79-1.75,2.72,2.72,0,0,1,2-.64,3.09,3.09,0,0,1,1.89.46,2.27,2.27,0,0,1,.8,1.4,12.27,12.27,0,0,1,.19,2.42v.69h3v-.83a10.08,10.08,0,0,0-.59-3.71,4.15,4.15,0,0,0-1.89-2.18,7.15,7.15,0,0,0-3.42-.71,6.48,6.48,0,0,0-3.71.92,4.8,4.8,0,0,0-1.84,2.67A14.93,14.93,0,0,0,55,201v7.57a13.47,13.47,0,0,0,.57,4.17,5.12,5.12,0,0,0,1.85,2.64,5.71,5.71,0,0,0,3.4.91,3.91,3.91,0,0,0,2.62-.81" class="cls-10"/><path transform="translate(67 0.13)" d="M334.39,466.49l.59-.07v-1.28l-.33,0h-.29a.83.83,0,0,1-.68-.23,1.32,1.32,0,0,1-.18-.78v-6H335v-1.14h-1.5v-2.72h-1.72v2.72h-1v1.14h1v6.08a3.07,3.07,0,0,0,.2,1.18,1.57,1.57,0,0,0,.64.77,2.25,2.25,0,0,0,1.17.27,5.72,5.72,0,0,0,.6,0m-7.22-.33a1.85,1.85,0,0,0,.78-1,5.45,5.45,0,0,0,.22-1.61v-.65H326.6v.76a7,7,0,0,1-.05.84,1,1,0,0,1-.26.57.91.91,0,0,1-.64.2.83.83,0,0,1-.8-.4,3.57,3.57,0,0,1-.23-1.6v-2.93a8.27,8.27,0,0,1,.07-1.25,1,1,0,0,1,.3-.65,1,1,0,0,1,.65-.2,1,1,0,0,1,.59.16.85.85,0,0,1,.29.52,4.23,4.23,0,0,1,.08,1v.56h1.57v-.55a5.4,5.4,0,0,0-.21-1.62,1.72,1.72,0,0,0-.77-1,3.08,3.08,0,0,0-1.57-.33,2.87,2.87,0,0,0-1.72.44,2.23,2.23,0,0,0-.8,1.28,8.28,8.28,0,0,0-.2,2v2.15a8.12,8.12,0,0,0,.2,1.95,2.2,2.2,0,0,0,.79,1.3,3.58,3.58,0,0,0,3.28.1m-7.56-12.28h-1.73v1.8h1.73Zm0,3.19h-1.73v9.32h1.73Zm-6.85,9.32v-6.81a1.9,1.9,0,0,1,.65-.71,1.4,1.4,0,0,1,.73-.19,2.22,2.22,0,0,1,.51.06,2.94,2.94,0,0,1,.44.13V457h-.27a2,2,0,0,0-1,.29,3,3,0,0,0-1,1.14v-1.32H311v9.32Zm-5.27.1.59-.07v-1.28l-.33,0h-.3a.82.82,0,0,1-.67-.23,1.32,1.32,0,0,1-.18-.78v-6h1.5v-1.14h-1.5v-2.72h-1.72v2.72h-1v1.14h1v6.08a3.07,3.07,0,0,0,.2,1.18,1.57,1.57,0,0,0,.64.77,2.25,2.25,0,0,0,1.17.27,5.82,5.82,0,0,0,.6,0m-7.21-.24a2,2,0,0,0,.9-.8,2.44,2.44,0,0,0,.33-1.32,2.62,2.62,0,0,0-.2-1.05,3.06,3.06,0,0,0-.49-.8,6.75,6.75,0,0,0-.64-.67l-1.64-1.51a1.35,1.35,0,0,1-.36-.46,1.16,1.16,0,0,1-.11-.48,1,1,0,0,1,.25-.66.86.86,0,0,1,.67-.29.84.84,0,0,1,.6.21,1.25,1.25,0,0,1,.35.56,4.26,4.26,0,0,1,.2.85l1.16-.44a3.09,3.09,0,0,0-.67-1.73,2.07,2.07,0,0,0-1.7-.72,2.8,2.8,0,0,0-1.27.27,1.9,1.9,0,0,0-.84.77,2.51,2.51,0,0,0-.29,1.25,2.46,2.46,0,0,0,.33,1.34,4.44,4.44,0,0,0,.81.93l1.6,1.37a2.79,2.79,0,0,1,.58.66,1.6,1.6,0,0,1,.17.73,1,1,0,0,1-.24.72.94.94,0,0,1-.71.26,1,1,0,0,1-.9-.44,3.19,3.19,0,0,1-.43-1.33l-1.44.43a3,3,0,0,0,.79,1.9,2.42,2.42,0,0,0,1.84.71,3.19,3.19,0,0,0,1.35-.26m-7-12.37h-1.72v1.8h1.72Zm0,3.19h-1.72v9.32h1.72Zm-8.65,7.79a1.76,1.76,0,0,1-.3-.82,8.36,8.36,0,0,1-.07-1.17v-2.63a4,4,0,0,1,.21-1.37.79.79,0,0,1,.8-.58,1.32,1.32,0,0,1,.6.13,2.69,2.69,0,0,1,.5.28v6.11a2.74,2.74,0,0,1-.55.26,1.63,1.63,0,0,1-.52.09.78.78,0,0,1-.67-.3m1.07,1.45a3,3,0,0,0,.67-.52v.6h1.72V453.33h-1.72v4.34a3.13,3.13,0,0,0-.69-.52,1.79,1.79,0,0,0-.86-.21,1.83,1.83,0,0,0-1.44.55,3,3,0,0,0-.67,1.46,10.08,10.08,0,0,0-.18,2v1.81a5.52,5.52,0,0,0,.58,2.92,2,2,0,0,0,1.76.86,1.62,1.62,0,0,0,.83-.2m-18.77-3a1.13,1.13,0,0,1-.38-.57,2.77,2.77,0,0,1-.12-.85,5.3,5.3,0,0,1,.36-2,3.81,3.81,0,0,1,.92-1.45,1.76,1.76,0,0,1,1.22-.54.83.83,0,0,1,.22,0l.23.05-.56,3.76a2.52,2.52,0,0,1-.52,1.23,1.27,1.27,0,0,1-.73.46.77.77,0,0,1-.64-.13m2.64,5.1a14.39,14.39,0,0,0,1.74-.39l-.3-1.26a9.24,9.24,0,0,1-1,.24,9.36,9.36,0,0,1-1,.15c-.32,0-.63,0-1,0a6.68,6.68,0,0,1-1.71-.21,4.59,4.59,0,0,1-1.44-.64,4.18,4.18,0,0,1-1.11-1.07,4.72,4.72,0,0,1-.7-1.52,7.59,7.59,0,0,1-.24-2,10,10,0,0,1,.4-2.95,6.68,6.68,0,0,1,1.15-2.24,4.92,4.92,0,0,1,1.77-1.41,5.23,5.23,0,0,1,2.29-.5,4.77,4.77,0,0,1,2.05.41,3.68,3.68,0,0,1,1.4,1.11,4.69,4.69,0,0,1,.8,1.63,6.77,6.77,0,0,1,.24,1.93,6.65,6.65,0,0,1-.18,1.58,5,5,0,0,1-.52,1.31,2.84,2.84,0,0,1-.76.87,1.6,1.6,0,0,1-.95.32.35.35,0,0,1-.35-.16.78.78,0,0,1-.07-.42c0-.17,0-.36,0-.57l.91-5.91h-1.25l-.16.27a2.81,2.81,0,0,0-.31-.19,1.69,1.69,0,0,0-.37-.15,1.24,1.24,0,0,0-.37-.06,2.74,2.74,0,0,0-1.54.47,4.37,4.37,0,0,0-1.22,1.24,6.46,6.46,0,0,0-.79,1.7,6.54,6.54,0,0,0-.27,1.83,4.13,4.13,0,0,0,.26,1.47,2.35,2.35,0,0,0,.81,1.08,1.88,1.88,0,0,0,1.35.33,1.4,1.4,0,0,0,1.06-.5,2.35,2.35,0,0,0,.47-.95,1.55,1.55,0,0,0,.22.79,1.36,1.36,0,0,0,.57.52,1.71,1.71,0,0,0,.8.18,3,3,0,0,0,1.58-.42,4,4,0,0,0,1.23-1.12,5.67,5.67,0,0,0,.79-1.66,7.28,7.28,0,0,0,.27-2,7.85,7.85,0,0,0-.31-2.33,5.81,5.81,0,0,0-1-2,4.79,4.79,0,0,0-1.76-1.41,5.73,5.73,0,0,0-2.54-.52,8,8,0,0,0-2.93.52,6.11,6.11,0,0,0-2.3,1.56,7.21,7.21,0,0,0-1.52,2.65,11.88,11.88,0,0,0-.54,3.78,8.1,8.1,0,0,0,.5,3,5.52,5.52,0,0,0,1.41,2.1,5.78,5.78,0,0,0,2.11,1.23,8.11,8.11,0,0,0,2.61.41,11.79,11.79,0,0,0,1.64-.13m-11.71-2v-1.46h-4.13l3-4.57c.26-.39.49-.77.71-1.13a6,6,0,0,0,.52-1.18,5,5,0,0,0,.2-1.46,3.7,3.7,0,0,0-.77-2.48,3,3,0,0,0-2.36-.89,3.33,3.33,0,0,0-1.86.46,2.69,2.69,0,0,0-1,1.32,5.78,5.78,0,0,0-.32,2v.45h1.73V457a5,5,0,0,1,.13-1.18,1.85,1.85,0,0,1,.46-.89,1.33,1.33,0,0,1,1-.33,1.06,1.06,0,0,1,1,.51,3,3,0,0,1,.29,1.42,3.86,3.86,0,0,1-.2,1.28,5.48,5.48,0,0,1-.52,1.06L255,460l-3.32,5.17v1.23Zm-9.32,0v-1.46h-4.13l3-4.57c.26-.39.5-.77.71-1.13a5.43,5.43,0,0,0,.52-1.18,4.63,4.63,0,0,0,.21-1.46,3.65,3.65,0,0,0-.78-2.48,3,3,0,0,0-2.35-.89,3.31,3.31,0,0,0-1.86.46,2.65,2.65,0,0,0-1,1.32,5.8,5.8,0,0,0-.31,2v.45h1.72V457a5,5,0,0,1,.13-1.18,1.86,1.86,0,0,1,.47-.89,1.29,1.29,0,0,1,.95-.33,1.06,1.06,0,0,1,1,.51,2.86,2.86,0,0,1,.29,1.42,3.62,3.62,0,0,1-.2,1.28,5.44,5.44,0,0,1-.51,1.06l-.69,1.08-3.32,5.17v1.23Zm-18.1-6.06a8.25,8.25,0,0,1,.08-1.27,1,1,0,0,1,.3-.65.9.9,0,0,1,.63-.2.85.85,0,0,1,.64.21,1,1,0,0,1,.27.59,6.66,6.66,0,0,1,.06,1v.83h-2Zm3.06,5.38a3.62,3.62,0,0,0,.6-2.21v-.35h-1.68v.56a3.88,3.88,0,0,1-.07.81,1,1,0,0,1-.28.54.84.84,0,0,1-.58.18,1,1,0,0,1-.61-.17,1,1,0,0,1-.34-.52,3.35,3.35,0,0,1-.1-.92v-1.87h3.67V461a12.37,12.37,0,0,0-.17-2.18,2.43,2.43,0,0,0-.74-1.4,2.61,2.61,0,0,0-1.73-.48,2.91,2.91,0,0,0-1.67.42,2.2,2.2,0,0,0-.84,1.24,7.11,7.11,0,0,0-.25,2.06v2.13a7.41,7.41,0,0,0,.24,2,2.22,2.22,0,0,0,.83,1.26,2.91,2.91,0,0,0,1.69.42,2.35,2.35,0,0,0,2-.8m-11.62.68v-7.48a2.92,2.92,0,0,1,.62-.44,1.32,1.32,0,0,1,.64-.18.6.6,0,0,1,.59.28,1.62,1.62,0,0,1,.15.77v7.05h1.72v-7.55a3.28,3.28,0,0,0-.12-.88,1.56,1.56,0,0,0-.42-.73,1.17,1.17,0,0,0-.84-.29,2.62,2.62,0,0,0-1.29.32,5.12,5.12,0,0,0-1,.78v-4.71h-1.72v13.06Zm-5.27.1.6-.07v-1.28l-.33,0h-.3a.83.83,0,0,1-.68-.23,1.32,1.32,0,0,1-.18-.78v-6h1.5v-1.14h-1.5v-2.72H214v2.72h-1v1.14h1v6.08a3.28,3.28,0,0,0,.2,1.18,1.57,1.57,0,0,0,.64.77,2.25,2.25,0,0,0,1.17.27,5.62,5.62,0,0,0,.6,0m-15.34-.1v-7.52a4,4,0,0,1,.6-.41,1.31,1.31,0,0,1,.6-.17.62.62,0,0,1,.6.28,1.62,1.62,0,0,1,.15.77v7.05H205v-7.55a3.28,3.28,0,0,0-.12-.88,1.56,1.56,0,0,0-.42-.73,1.21,1.21,0,0,0-.86-.29,2.48,2.48,0,0,0-1.24.31,4.73,4.73,0,0,0-1,.74v-.92h-1.73v9.32Zm-5.19-12.51h-1.73v1.8h1.73Zm0,3.19h-1.73v9.32h1.73ZM186,459.42h-1.74v1.78H186ZM172.6,465a1.43,1.43,0,0,1-.25-.76c0-.32,0-.65,0-1v-2.91c0-.36,0-.69,0-1a1.5,1.5,0,0,1,.25-.77,1,1,0,0,1,1.41,0,1.71,1.71,0,0,1,.24.77c0,.31,0,.64,0,1v2.91c0,.35,0,.68,0,1a1.63,1.63,0,0,1-.24.76,1,1,0,0,1-1.41,0m2.33,1.15a2.24,2.24,0,0,0,.83-1.2,5.8,5.8,0,0,0,.25-1.82v-2.71a5.89,5.89,0,0,0-.25-1.82,2.25,2.25,0,0,0-.83-1.19,3.35,3.35,0,0,0-3.25,0,2.28,2.28,0,0,0-.85,1.19,5.89,5.89,0,0,0-.25,1.82v2.71a5.8,5.8,0,0,0,.25,1.82,2.27,2.27,0,0,0,.85,1.2,3.43,3.43,0,0,0,3.25,0m-7.65-12.22h-1.73v1.8h1.73Zm0,3.19h-1.73v9.32h1.73Zm-8.66,7.79a1.76,1.76,0,0,1-.3-.82,10.23,10.23,0,0,1-.07-1.17v-2.63a4,4,0,0,1,.21-1.37.8.8,0,0,1,.81-.58,1.31,1.31,0,0,1,.59.13,2.4,2.4,0,0,1,.5.28v6.11a2.5,2.5,0,0,1-.55.26,1.61,1.61,0,0,1-.51.09.8.8,0,0,1-.68-.3m1.07,1.45a2.57,2.57,0,0,0,.67-.52v.6h1.73V453.33h-1.73v4.34a2.72,2.72,0,0,0-.69-.52,1.76,1.76,0,0,0-.85-.21,1.83,1.83,0,0,0-1.45.55,3,3,0,0,0-.67,1.46,11,11,0,0,0-.17,2v1.81a5.42,5.42,0,0,0,.58,2.92,2,2,0,0,0,1.75.86,1.6,1.6,0,0,0,.83-.2m-9.1-.1a4.76,4.76,0,0,0,1-.74v.92h1.73v-9.32h-1.73v7.51a3.36,3.36,0,0,1-.6.41,1.31,1.31,0,0,1-.61.17.59.59,0,0,1-.59-.28,1.69,1.69,0,0,1-.15-.78v-7h-1.72v7.54a3.35,3.35,0,0,0,.12.89,1.53,1.53,0,0,0,.42.72,1.18,1.18,0,0,0,.86.29,2.65,2.65,0,0,0,1.25-.3m-6.09.28.6-.07v-1.28l-.33,0h-.3a.84.84,0,0,1-.68-.23,1.41,1.41,0,0,1-.17-.78v-6h1.5v-1.14h-1.5v-2.72h-1.73v2.72h-1v1.14h1v6.08a3.28,3.28,0,0,0,.2,1.18,1.59,1.59,0,0,0,.65.77,2.2,2.2,0,0,0,1.17.27,5.53,5.53,0,0,0,.59,0m-7.2-.24a2,2,0,0,0,.9-.8,2.44,2.44,0,0,0,.32-1.32,2.62,2.62,0,0,0-.19-1.05,3.06,3.06,0,0,0-.49-.8,6.75,6.75,0,0,0-.64-.67l-1.64-1.51a1.39,1.39,0,0,1-.37-.46,1.15,1.15,0,0,1-.1-.48.94.94,0,0,1,.25-.66.86.86,0,0,1,.67-.29.82.82,0,0,1,.59.21,1.27,1.27,0,0,1,.36.56,3.69,3.69,0,0,1,.19.85l1.16-.44a3,3,0,0,0-.67-1.73,2.05,2.05,0,0,0-1.7-.72,2.78,2.78,0,0,0-1.26.27,1.9,1.9,0,0,0-.84.77,2.41,2.41,0,0,0-.3,1.25,2.46,2.46,0,0,0,.33,1.34,4.22,4.22,0,0,0,.82.93l1.59,1.37a2.58,2.58,0,0,1,.58.66,1.49,1.49,0,0,1,.18.73,1,1,0,0,1-.24.72.94.94,0,0,1-.71.26,1,1,0,0,1-.9-.44,3.18,3.18,0,0,1-.44-1.33l-1.43.43a2.92,2.92,0,0,0,.79,1.9,2.41,2.41,0,0,0,1.83.71,3.21,3.21,0,0,0,1.36-.26m-12.32.24.6-.07v-1.28l-.33,0H125a.84.84,0,0,1-.68-.23,1.41,1.41,0,0,1-.17-.78v-6h1.5v-1.14h-1.5v-2.72h-1.73v2.72h-1v1.14h1v6.08a3.28,3.28,0,0,0,.2,1.18,1.59,1.59,0,0,0,.65.77,2.2,2.2,0,0,0,1.17.27,5.53,5.53,0,0,0,.59,0m-10-.1v-7.52a4.65,4.65,0,0,1,.61-.41,1.31,1.31,0,0,1,.6-.17.63.63,0,0,1,.6.28,1.76,1.76,0,0,1,.14.77v7.05h1.73v-7.55a3.28,3.28,0,0,0-.12-.88,1.56,1.56,0,0,0-.42-.73,1.21,1.21,0,0,0-.86-.29,2.52,2.52,0,0,0-1.25.31,5,5,0,0,0-1,.74v-.92h-1.72v9.32Zm-8.57-6.06a7.15,7.15,0,0,1,.08-1.27,1,1,0,0,1,.3-.65.9.9,0,0,1,.63-.2.85.85,0,0,1,.64.21,1.12,1.12,0,0,1,.27.59,6.66,6.66,0,0,1,.06,1v.83h-2Zm3.06,5.38a3.62,3.62,0,0,0,.6-2.21v-.35h-1.68v.56a3.88,3.88,0,0,1-.07.81,1,1,0,0,1-.28.54.84.84,0,0,1-.58.18,1,1,0,0,1-.61-.17,1,1,0,0,1-.34-.52,3.35,3.35,0,0,1-.1-.92v-1.87H110V461a12.37,12.37,0,0,0-.17-2.18,2.43,2.43,0,0,0-.74-1.4,2.61,2.61,0,0,0-1.73-.48,2.88,2.88,0,0,0-1.67.42,2.26,2.26,0,0,0-.85,1.24,7.51,7.51,0,0,0-.24,2.06v2.13a7.41,7.41,0,0,0,.24,2,2.22,2.22,0,0,0,.83,1.26,2.89,2.89,0,0,0,1.69.42,2.35,2.35,0,0,0,2-.8m-15.59.68v-7.6a3,3,0,0,1,.72-.55,1.49,1.49,0,0,1,.73-.2.74.74,0,0,1,.59.23,1.36,1.36,0,0,1,.22.91v7.21h1.58v-7.6a2.47,2.47,0,0,1,.71-.55,1.53,1.53,0,0,1,.74-.2.75.75,0,0,1,.59.23,1.42,1.42,0,0,1,.22.91v7.21h1.58v-7.32a2.94,2.94,0,0,0-.23-1.25,1.47,1.47,0,0,0-.6-.69,1.53,1.53,0,0,0-.82-.22,2.77,2.77,0,0,0-1.23.28,3.32,3.32,0,0,0-1.09.89,1.44,1.44,0,0,0-.59-.91,1.62,1.62,0,0,0-.92-.26,2.62,2.62,0,0,0-1.16.26,3.06,3.06,0,0,0-1,.79v-.89H92.25v9.32Zm-8.44-6.06a7.15,7.15,0,0,1,.08-1.27,1,1,0,0,1,.3-.65.9.9,0,0,1,.63-.2.85.85,0,0,1,.64.21,1.12,1.12,0,0,1,.27.59,6.66,6.66,0,0,1,.06,1v.83h-2Zm3.06,5.38a3.62,3.62,0,0,0,.6-2.21v-.35H87.38v.56a3.88,3.88,0,0,1-.07.81,1,1,0,0,1-.28.54.84.84,0,0,1-.58.18,1,1,0,0,1-.61-.17,1,1,0,0,1-.34-.52,3.35,3.35,0,0,1-.1-.92v-1.87h3.67V461a12.37,12.37,0,0,0-.17-2.18,2.43,2.43,0,0,0-.74-1.4,2.61,2.61,0,0,0-1.73-.48,2.88,2.88,0,0,0-1.67.42,2.2,2.2,0,0,0-.84,1.24,7.11,7.11,0,0,0-.25,2.06v2.13a7.41,7.41,0,0,0,.24,2,2.22,2.22,0,0,0,.83,1.26,2.89,2.89,0,0,0,1.69.42,2.35,2.35,0,0,0,2-.8m-9.11.68,1.78-9.32H79.45l-1.16,7.49-1.14-7.49H75.41l1.83,9.32ZM69.43,465a1.43,1.43,0,0,1-.25-.76c0-.32,0-.65,0-1v-2.91c0-.36,0-.69,0-1a1.5,1.5,0,0,1,.25-.77.78.78,0,0,1,.7-.3.8.8,0,0,1,.71.3,1.71,1.71,0,0,1,.24.77c0,.31,0,.64,0,1v2.91c0,.35,0,.68,0,1a1.63,1.63,0,0,1-.24.76.82.82,0,0,1-.71.29.8.8,0,0,1-.7-.29m2.32,1.15a2.2,2.2,0,0,0,.84-1.2,5.8,5.8,0,0,0,.25-1.82v-2.71a5.89,5.89,0,0,0-.25-1.82,2.21,2.21,0,0,0-.84-1.19,3.33,3.33,0,0,0-3.24,0,2.28,2.28,0,0,0-.85,1.19,5.89,5.89,0,0,0-.25,1.82v2.71a5.8,5.8,0,0,0,.25,1.82,2.27,2.27,0,0,0,.85,1.2,3.41,3.41,0,0,0,3.24,0m-15.15.29v-7.6a2.78,2.78,0,0,1,.71-.55,1.53,1.53,0,0,1,.74-.2.73.73,0,0,1,.58.23,1.36,1.36,0,0,1,.22.91v7.21h1.58v-7.6a2.61,2.61,0,0,1,.71-.55,1.56,1.56,0,0,1,.74-.2.74.74,0,0,1,.59.23,1.36,1.36,0,0,1,.22.91v7.21h1.58v-7.32a2.94,2.94,0,0,0-.23-1.25,1.51,1.51,0,0,0-.59-.69,1.59,1.59,0,0,0-.83-.22,2.77,2.77,0,0,0-1.23.28,3.43,3.43,0,0,0-1.09.89,1.44,1.44,0,0,0-.59-.91,1.62,1.62,0,0,0-.92-.26,2.62,2.62,0,0,0-1.16.26,2.94,2.94,0,0,0-1,.79v-.89H55v9.32Z" class="cls-9"/><path transform="translate(67 0.13)" d="M266.83,639.92V627.77H269v-1.89h-7v1.89h2.24v12.15Zm-11.58,0v-8.39l3.43,8.39h1.7v-14h-2.12v8l-3.41-8h-1.79v14Zm-4,0v-1.77h-3.37V633.5h2.62v-1.78h-2.62v-4h3.33v-1.8H245.3v14Zm-16.23,0,.19-9.8,2,9.8h1.54l2-9.76.21,9.76h1.9l-.26-14h-2.56L238,635.6l-2-9.72h-2.65l-.24,14Zm-3.72,0v-1.77h-3.37V633.5h2.62v-1.78h-2.62v-4h3.33v-1.8h-5.89v14Zm-10.54,0,2.82-14h-2.32l-1.73,9.93-1.86-9.93h-2.27l2.83,14Zm-11.84-2a1.34,1.34,0,0,1-.41-.76,5.9,5.9,0,0,1-.09-1.06v-6.46a4.83,4.83,0,0,1,.1-1.06,1.2,1.2,0,0,1,1.33-1,1.4,1.4,0,0,1,.95.27,1.38,1.38,0,0,1,.41.74,4.83,4.83,0,0,1,.1,1.06v6.46a5.09,5.09,0,0,1-.1,1.06,1.4,1.4,0,0,1-.41.76,1.72,1.72,0,0,1-1.88,0m3.34,1.6A3.13,3.13,0,0,0,213.5,638a6.9,6.9,0,0,0,.39-2.44v-5.27a6.8,6.8,0,0,0-.39-2.43,3,3,0,0,0-1.26-1.55,4.6,4.6,0,0,0-2.41-.54,4.52,4.52,0,0,0-2.37.54,3,3,0,0,0-1.27,1.55,7,7,0,0,0-.38,2.43v5.26a7.31,7.31,0,0,0,.38,2.46,3.1,3.1,0,0,0,1.27,1.59,5.34,5.34,0,0,0,4.78,0m-16.51.38.19-9.8,2,9.8h1.55l2-9.76.21,9.76h1.91l-.26-14h-2.57l-2.08,9.72-2-9.72H194l-.24,14Zm-8.18,0v-1.77h-3.36V633.5h2.61v-1.78h-2.61v-4h3.32v-1.8h-5.89v14Zm-13.85,0v-6.35h2.86v6.35h2.56v-14h-2.56v5.87H173.7v-5.87h-2.55v14Zm-6.41,0V627.77h2.2v-1.89h-7v1.89h2.24v12.15Zm-16,0v-8.39l3.43,8.39h1.7v-14h-2.12v8l-3.41-8h-1.79v14Zm-4.7-14H144v14h2.53Zm-9.83,12.06a1.34,1.34,0,0,1-.41-.76,5.9,5.9,0,0,1-.09-1.06v-6.46a4.83,4.83,0,0,1,.1-1.06,1.33,1.33,0,0,1,.42-.74,1.37,1.37,0,0,1,.92-.27,1.19,1.19,0,0,1,1.35,1,4.83,4.83,0,0,1,.1,1.06v6.46a5.09,5.09,0,0,1-.1,1.06,1.4,1.4,0,0,1-.41.76,1.34,1.34,0,0,1-.94.28,1.35,1.35,0,0,1-.94-.28m3.34,1.6a3.13,3.13,0,0,0,1.26-1.59,6.9,6.9,0,0,0,.39-2.44v-5.27a6.8,6.8,0,0,0-.39-2.43,3,3,0,0,0-1.26-1.55,4.59,4.59,0,0,0-2.4-.54,4.53,4.53,0,0,0-2.38.54,2.94,2.94,0,0,0-1.26,1.55,6.81,6.81,0,0,0-.38,2.43v5.26A7.07,7.07,0,0,0,134,638a3,3,0,0,0,1.26,1.59,5.34,5.34,0,0,0,4.78,0m-11.87.72a4.1,4.1,0,0,0,1.94-.37,2.09,2.09,0,0,0,1-1.14,6,6,0,0,0,.28-2V625.88h-2.55v10.81a3.76,3.76,0,0,1-.09.91,1,1,0,0,1-.29.54,1.08,1.08,0,0,1-.56.25,4.71,4.71,0,0,1-.92.07v1.8Z" class="cls-9"/><path transform="translate(67 0.13)" d="M264.27,660a1.49,1.49,0,0,1-.52-.85,6.11,6.11,0,0,1-.13-1.29V652a5.87,5.87,0,0,1,.13-1.28,1.41,1.41,0,0,1,.52-.82,1.88,1.88,0,0,1,1.13-.29,1.82,1.82,0,0,1,1.11.29,1.35,1.35,0,0,1,.51.82,5.27,5.27,0,0,1,.14,1.28v5.83a5.48,5.48,0,0,1-.14,1.29,1.43,1.43,0,0,1-.51.85,1.75,1.75,0,0,1-1.11.31,1.81,1.81,0,0,1-1.13-.31m3.26,1.23a2.89,2.89,0,0,0,1.14-1.5,6.51,6.51,0,0,0,.36-2.27v-5.06a6.32,6.32,0,0,0-.36-2.25,2.83,2.83,0,0,0-1.14-1.44,3.86,3.86,0,0,0-2.13-.51,4,4,0,0,0-2.15.5,2.84,2.84,0,0,0-1.15,1.45,6.56,6.56,0,0,0-.35,2.25v5.05a6.89,6.89,0,0,0,.35,2.29,2.86,2.86,0,0,0,1.15,1.5,3.86,3.86,0,0,0,2.15.53,3.69,3.69,0,0,0,2.13-.54m-9.33.39V649.68h2.19V648.3H254.1v1.38h2.25v11.93Zm-10.74,0v-9.08l3.83,9.08h1.18V648.3h-1.54v8.84l-3.78-8.84h-1.27v13.31Zm-3.4,0v-1.33h-3.34V655.4h2.68v-1.31h-2.68v-4.41H244V648.3h-5.16v13.31Zm-7.67-13.31h-1.82v13.31h1.82Zm-11.61,13.31.14-9.66,2.24,9.66h1.05l2.25-9.66.15,9.66h1.49l-.25-13.31h-1.8l-2.37,10.8-2.35-10.8h-1.82l-.25,13.31Zm-4-13.31H219v13.31h1.83Zm-6.61,13.31,2.94-13.31h-1.69l-2,9.81-2.11-9.81h-1.74l3,13.31ZM203.36,660a1.48,1.48,0,0,1-.51-.85,5.48,5.48,0,0,1-.14-1.29V652a5.27,5.27,0,0,1,.14-1.28,1.4,1.4,0,0,1,.51-.82,1.9,1.9,0,0,1,1.13-.29,1.87,1.87,0,0,1,1.12.29,1.45,1.45,0,0,1,.51.82,5.87,5.87,0,0,1,.13,1.28v5.83a6.11,6.11,0,0,1-.13,1.29,1.53,1.53,0,0,1-.51.85,1.8,1.8,0,0,1-1.12.31,1.83,1.83,0,0,1-1.13-.31m3.26,1.23a3,3,0,0,0,1.15-1.5,6.77,6.77,0,0,0,.35-2.27v-5.06a6.56,6.56,0,0,0-.35-2.25,2.9,2.9,0,0,0-1.15-1.44,3.86,3.86,0,0,0-2.13-.51,4,4,0,0,0-2.14.5,2.74,2.74,0,0,0-1.15,1.45,6.32,6.32,0,0,0-.36,2.25v5.05a6.89,6.89,0,0,0,.35,2.29,2.86,2.86,0,0,0,1.15,1.5,3.86,3.86,0,0,0,2.15.53,3.69,3.69,0,0,0,2.13-.54m-15.22.39.14-9.66,2.24,9.66h1.05l2.25-9.66.15,9.66h1.49l-.24-13.31h-1.81l-2.37,10.8L192,648.3h-1.83l-.24,13.31Zm-7.16,0v-1.33h-3.4v-12H179v13.31Zm-10.67-10.68,1.12,6h-2.22Zm-2,10.68.64-3.35h2.71l.61,3.35h1.75l-2.84-13.31h-1.79l-2.82,13.31Zm-6.93,0v-1.33h-3.34V655.4H164v-1.31h-2.68v-4.41h3.3V648.3h-5.16v13.31Zm-9,0V649.68h2.18V648.3h-6.29v1.38h2.25v11.93Zm-5.14,0v-1.33h-3.34V655.4h2.68v-1.31h-2.68v-4.41h3.31V648.3h-5.16v13.31Zm-12.62,0v-9.08l3.83,9.08h1.18V648.3h-1.54v8.84l-3.78-8.84h-1.26v13.31Zm-7-14.09,1.84-3.26H131l-1,3.26Zm1.78,13.66a2.82,2.82,0,0,0,1-1.62,9.22,9.22,0,0,0,.28-2.43V648.3H132.3v8.91a9.33,9.33,0,0,1-.12,1.56,2.11,2.11,0,0,1-.49,1.11,1.49,1.49,0,0,1-1.17.42,1.51,1.51,0,0,1-1.16-.42,2.12,2.12,0,0,1-.5-1.11,10.6,10.6,0,0,1-.11-1.56V648.3H127v8.83a9.66,9.66,0,0,0,.28,2.43,2.89,2.89,0,0,0,1.05,1.62,3.64,3.64,0,0,0,2.22.58,3.59,3.59,0,0,0,2.21-.58" class="cls-10"/></g><rect height="61.43" width="181.43" y="613.15" x="171.28" class="cls-11"/><g class="cls-2"><path transform="translate(67 0.13)" d="M307.54,706a14.1,14.1,0,0,0-4.67.91,9.38,9.38,0,0,0-3.41,2.22,9.56,9.56,0,0,0-2.21,3.41,14.31,14.31,0,0,0-.88,4.68c-.09,2-.11,2.7-.11,7.93s0,5.88.14,7.93a13.88,13.88,0,0,0,.9,4.67,9.38,9.38,0,0,0,2.22,3.41,9.6,9.6,0,0,0,3.42,2.21,14.18,14.18,0,0,0,4.67.88c2.05.09,2.71.11,7.93.1s5.88,0,7.93-.13a14.13,14.13,0,0,0,4.67-.9,9.84,9.84,0,0,0,5.62-5.64,14.18,14.18,0,0,0,.88-4.67c.09-2,.11-2.71.1-7.93s0-5.88-.13-7.93a13.88,13.88,0,0,0-.9-4.67,9.38,9.38,0,0,0-2.22-3.41,9.6,9.6,0,0,0-3.42-2.21,14.16,14.16,0,0,0-4.67-.89c-2-.09-2.71-.11-7.93-.1s-5.88,0-7.93.13m.22,34.79a10.64,10.64,0,0,1-3.57-.66A6.06,6.06,0,0,1,302,738.7a6,6,0,0,1-1.44-2.21,10.57,10.57,0,0,1-.67-3.57c-.1-2-.12-2.64-.13-7.78s0-5.74.1-7.77a10.59,10.59,0,0,1,.65-3.57,6.09,6.09,0,0,1,1.44-2.22,6,6,0,0,1,2.21-1.44,10.51,10.51,0,0,1,3.57-.67c2-.1,2.64-.12,7.77-.13s5.75,0,7.78.1a10.71,10.71,0,0,1,3.57.65,6.37,6.37,0,0,1,3.66,3.65,10.45,10.45,0,0,1,.67,3.57c.1,2,.12,2.64.13,7.77s0,5.75-.1,7.78a10.38,10.38,0,0,1-.66,3.57,6.39,6.39,0,0,1-3.64,3.66,10.83,10.83,0,0,1-3.57.67c-2,.09-2.64.11-7.78.12s-5.74,0-7.77-.09m15.69-26a2.31,2.31,0,1,0,2.3-2.32,2.31,2.31,0,0,0-2.3,2.32m-17.82,10.3a9.88,9.88,0,1,0,9.86-9.9,9.88,9.88,0,0,0-9.86,9.9m3.47,0a6.42,6.42,0,1,1,6.43,6.41,6.4,6.4,0,0,1-6.43-6.41" class="cls-9"/></g></g></svg>